<svg fill="none" height="136" viewBox="0 0 136 136" width="136" xmlns="http://www.w3.org/2000/svg"><circle cx="68" cy="68" fill="#000" r="68"/><g fill="#fff"><path fill="#fff" d="m35.0949 82.9818 8.8089-9.1143-10.9514-14.7782-13.9437-19.7299c-4.9261 8.407-7.7504 18.193-7.7504 28.6406 0 17.3075 7.7504 32.803 19.9741 43.21l17.6993-12.5084c-6.0202-3.7506-10.87-9.211-13.8368-15.7198z"/><path fill="#fff" d="m53.0181 35.0949 9.1143 8.809 14.7783-10.9515 19.7299-13.9437c-8.407-4.9261-18.193-7.7504-28.6406-7.7504-17.3075 0-32.8033 7.7504-43.2102 19.9741l12.5086 17.6993c3.7505-6.0202 9.211-10.87 15.7197-13.8368z"/><path fill="#fff" d="m92.0961 62.1325 10.9519 14.7782 13.943 19.7299c4.926-8.407 7.751-18.193 7.751-28.6406 0-17.3075-7.751-32.8033-19.974-43.2102l-17.6997 12.5086c6.0202 3.7506 10.8699 9.211 13.8367 15.7198z"/><path fill="#fff" d="m111.21 104.768-12.5084-17.6997c-3.7506 6.0202-9.211 10.87-15.7198 13.8367l-9.1143-8.8089-14.7783 10.9519-19.7298 13.943c8.4069 4.926 18.193 7.751 28.6406 7.751 17.3075 0 32.803-7.751 43.21-19.974z"/></g></svg>