<svg width="67" height="67" viewBox="0 0 67 67" fill="none" xmlns="http://www.w3.org/2000/svg">
<path d="M33.5 67C52.0015 67 67 52.0015 67 33.5C67 14.9985 52.0015 0 33.5 0C14.9985 0 0 14.9985 0 33.5C0 52.0015 14.9985 67 33.5 67Z" fill="#050F1A"/>
<path fill-rule="evenodd" clip-rule="evenodd" d="M33.796 15.9795L33.961 15.7031H38.618L40.7755 23.7276L45.6071 23.7276L42.3116 29.4411L47.1094 47.286H42.213L38.972 35.2311L32.0193 47.2852H26.5614L37.24 28.7893L33.796 15.9795ZM15.7031 47.2866L33.7903 15.9587L35.525 22.411L21.1631 47.2866H15.7031Z" fill="white"/>
</svg>
