<svg width="32" height="32" viewBox="0 0 32 32" fill="none" xmlns="http://www.w3.org/2000/svg">
<path d="M16 32C24.8366 32 32 24.8366 32 16C32 7.16344 24.8366 0 16 0C7.16344 0 0 7.16344 0 16C0 24.8366 7.16344 32 16 32Z" fill="#516FFA"/>
<path fill-rule="evenodd" clip-rule="evenodd" d="M15.66 26.96L22.3 23.12L22.32 16.38L15.84 12.6L13.75 13.7L20.25 17.47L20.23 22L15.65 24.64L11.07 21.99V10.97L15.65 8.33L17.84 9.57V13.19L19.92 14.38V8.38H19.91L15.65 6L9.01 9.83H9V23.12L15.65 26.96H15.66ZM18.51 16.97L16.91 16.05L15.42 16.84V15.2L13.75 14.22V19.68L18.51 16.97Z" fill="white"/>
</svg>
