<svg width="1440" height="624" viewBox="0 0 1440 624" fill="none" xmlns="http://www.w3.org/2000/svg">
<rect width="1440" height="624" fill="white"/>
<path d="M519.71 41.32C480.21 100.24 486.71 133.32 520.36 165C554.01 196.68 642.6 222 597.92 275.71L729.58 275C729.58 275 693.25 245.32 710.73 215.53C728.21 185.74 772.25 186.39 809.8 215.53C847.35 244.67 897.85 265.36 963.27 181.18C1028.69 97 1144.41 119.82 1209.06 164.18C1268.98 205.32 1353.06 219.45 1439.85 164.25V0H533.94C533.032 14.8091 528.113 29.0923 519.71 41.32V41.32Z" fill="#113355"/>
<path d="M671.23 210.15H669.79V208.7H668.79V210.15H667.35V211.15H668.79V212.59H669.79V211.15H671.23V210.15Z" fill="white"/>
<path d="M575.08 157.93H573.64V156.48H572.64V157.93H571.2V158.93H572.64V160.37H573.64V158.93H575.08V157.93Z" fill="white"/>
<path d="M771.06 130.82H769.62V129.38H768.62V130.82H767.17V131.82H768.62V133.27H769.62V131.82H771.06V130.82Z" fill="white"/>
<path d="M902.08 200.77H900.63V199.32H899.63V200.77H898.19V201.77H899.63V203.21H900.63V201.77H902.08V200.77Z" fill="white"/>
<path d="M918.59 55.06H917.14V53.62H916.14V55.06H914.7V56.06H916.14V57.51H917.14V56.06H918.59V55.06Z" fill="white"/>
<path d="M1137.13 3.89001H1135.68V2.45001H1134.68V3.89001H1133.24V4.89001H1134.68V6.33001H1135.68V4.89001H1137.13V3.89001Z" fill="white"/>
<path d="M1253.08 69.18H1251.63V67.74H1250.63V69.18H1249.19V70.18H1250.63V71.63H1251.63V70.18H1253.08V69.18Z" fill="white"/>
<path d="M1070.87 78.01H1069.43V76.57H1068.43V78.01H1066.99V79.01H1068.43V80.45H1069.43V79.01H1070.87V78.01Z" fill="white"/>
<path d="M1432.1 124.17H1430.66V122.72H1429.66V124.17H1428.22V125.17H1429.66V126.61H1430.66V125.17H1432.1V124.17Z" fill="white"/>
<path d="M559.53 33.55C559.889 33.55 560.18 33.259 560.18 32.9C560.18 32.541 559.889 32.25 559.53 32.25C559.171 32.25 558.88 32.541 558.88 32.9C558.88 33.259 559.171 33.55 559.53 33.55Z" fill="white"/>
<path d="M518.74 99.27C519.099 99.27 519.39 98.979 519.39 98.62C519.39 98.261 519.099 97.97 518.74 97.97C518.381 97.97 518.09 98.261 518.09 98.62C518.09 98.979 518.381 99.27 518.74 99.27Z" fill="white"/>
<path d="M648.57 156.58C648.929 156.58 649.22 156.289 649.22 155.93C649.22 155.571 648.929 155.28 648.57 155.28C648.211 155.28 647.92 155.571 647.92 155.93C647.92 156.289 648.211 156.58 648.57 156.58Z" fill="white"/>
<path d="M631.73 229.75C632.089 229.75 632.38 229.459 632.38 229.1C632.38 228.741 632.089 228.45 631.73 228.45C631.371 228.45 631.08 228.741 631.08 229.1C631.08 229.459 631.371 229.75 631.73 229.75Z" fill="white"/>
<path d="M697.46 198.02C697.819 198.02 698.11 197.729 698.11 197.37C698.11 197.011 697.819 196.72 697.46 196.72C697.101 196.72 696.81 197.011 696.81 197.37C696.81 197.729 697.101 198.02 697.46 198.02Z" fill="white"/>
<path d="M762.86 176.65C763.219 176.65 763.51 176.359 763.51 176C763.51 175.641 763.219 175.35 762.86 175.35C762.501 175.35 762.21 175.641 762.21 176C762.21 176.359 762.501 176.65 762.86 176.65Z" fill="white"/>
<path d="M737.6 127.44C737.959 127.44 738.25 127.149 738.25 126.79C738.25 126.431 737.959 126.14 737.6 126.14C737.241 126.14 736.95 126.431 736.95 126.79C736.95 127.149 737.241 127.44 737.6 127.44Z" fill="white"/>
<path d="M716.88 56.86C717.239 56.86 717.53 56.569 717.53 56.21C717.53 55.851 717.239 55.56 716.88 55.56C716.521 55.56 716.23 55.851 716.23 56.21C716.23 56.569 716.521 56.86 716.88 56.86Z" fill="white"/>
<path d="M837.65 165C838.009 165 838.3 164.709 838.3 164.35C838.3 163.991 838.009 163.7 837.65 163.7C837.291 163.7 837 163.991 837 164.35C837 164.709 837.291 165 837.65 165Z" fill="white"/>
<path d="M893.33 141.69C893.689 141.69 893.98 141.399 893.98 141.04C893.98 140.681 893.689 140.39 893.33 140.39C892.971 140.39 892.68 140.681 892.68 141.04C892.68 141.399 892.971 141.69 893.33 141.69Z" fill="white"/>
<path d="M885.89 220.62C886.249 220.62 886.54 220.329 886.54 219.97C886.54 219.611 886.249 219.32 885.89 219.32C885.531 219.32 885.24 219.611 885.24 219.97C885.24 220.329 885.531 220.62 885.89 220.62Z" fill="white"/>
<path d="M963.27 104.13C963.629 104.13 963.92 103.839 963.92 103.48C963.92 103.121 963.629 102.83 963.27 102.83C962.911 102.83 962.62 103.121 962.62 103.48C962.62 103.839 962.911 104.13 963.27 104.13Z" fill="white"/>
<path d="M972.01 69.46C972.369 69.46 972.66 69.169 972.66 68.81C972.66 68.451 972.369 68.16 972.01 68.16C971.651 68.16 971.36 68.451 971.36 68.81C971.36 69.169 971.651 69.46 972.01 69.46Z" fill="white"/>
<path d="M898.84 70.76C899.199 70.76 899.49 70.469 899.49 70.11C899.49 69.751 899.199 69.46 898.84 69.46C898.481 69.46 898.19 69.751 898.19 70.11C898.19 70.469 898.481 70.76 898.84 70.76Z" fill="white"/>
<path d="M1031.33 90.5C1031.69 90.5 1031.98 90.209 1031.98 89.85C1031.98 89.491 1031.69 89.2 1031.33 89.2C1030.97 89.2 1030.68 89.491 1030.68 89.85C1030.68 90.209 1030.97 90.5 1031.33 90.5Z" fill="white"/>
<path d="M1125.89 113.02C1126.25 113.02 1126.54 112.729 1126.54 112.37C1126.54 112.011 1126.25 111.72 1125.89 111.72C1125.53 111.72 1125.24 112.011 1125.24 112.37C1125.24 112.729 1125.53 113.02 1125.89 113.02Z" fill="white"/>
<path d="M1319.52 63.49C1319.88 63.49 1320.17 63.199 1320.17 62.84C1320.17 62.481 1319.88 62.19 1319.52 62.19C1319.16 62.19 1318.87 62.481 1318.87 62.84C1318.87 63.199 1319.16 63.49 1319.52 63.49Z" fill="white"/>
<path d="M1369.05 123.15C1369.41 123.15 1369.7 122.859 1369.7 122.5C1369.7 122.141 1369.41 121.85 1369.05 121.85C1368.69 121.85 1368.4 122.141 1368.4 122.5C1368.4 122.859 1368.69 123.15 1369.05 123.15Z" fill="white"/>
<path d="M1208.07 6.06999C1208.43 6.06999 1208.72 5.77897 1208.72 5.41999C1208.72 5.061 1208.43 4.76999 1208.07 4.76999C1207.71 4.76999 1207.42 5.061 1207.42 5.41999C1207.42 5.77897 1207.71 6.06999 1208.07 6.06999Z" fill="white"/>
<path d="M1069.14 18.66C1069.5 18.66 1069.79 18.369 1069.79 18.01C1069.79 17.651 1069.5 17.36 1069.14 17.36C1068.78 17.36 1068.49 17.651 1068.49 18.01C1068.49 18.369 1068.78 18.66 1069.14 18.66Z" fill="white"/>
<path d="M1179.7 103.07C1180.06 103.07 1180.35 102.779 1180.35 102.42C1180.35 102.061 1180.06 101.77 1179.7 101.77C1179.34 101.77 1179.05 102.061 1179.05 102.42C1179.05 102.779 1179.34 103.07 1179.7 103.07Z" fill="white"/>
<path d="M1385.71 53.54C1386.07 53.54 1386.36 53.249 1386.36 52.89C1386.36 52.531 1386.07 52.24 1385.71 52.24C1385.35 52.24 1385.06 52.531 1385.06 52.89C1385.06 53.249 1385.35 53.54 1385.71 53.54Z" fill="white"/>
<path d="M1401.47 159.35C1401.83 159.35 1402.12 159.059 1402.12 158.7C1402.12 158.341 1401.83 158.05 1401.47 158.05C1401.11 158.05 1400.82 158.341 1400.82 158.7C1400.82 159.059 1401.11 159.35 1401.47 159.35Z" fill="white"/>
<path d="M900.78 2.47001C901.139 2.47001 901.43 2.179 901.43 1.82001C901.43 1.46103 901.139 1.17001 900.78 1.17001C900.421 1.17001 900.13 1.46103 900.13 1.82001C900.13 2.179 900.421 2.47001 900.78 2.47001Z" fill="white"/>
<path d="M679.65 23.19H658.93V0H652.45V23.19H631.73V0H625.26V23.19H604.54V0H596.77V29C596.77 29.3401 596.837 29.6769 596.967 29.9911C597.097 30.3054 597.288 30.5909 597.529 30.8314C597.769 31.0719 598.055 31.2627 598.369 31.3928C598.683 31.523 599.02 31.59 599.36 31.59H684.85C685.533 31.5847 686.187 31.3095 686.668 30.8244C687.15 30.3392 687.42 29.6835 687.42 29V0H679.65V23.19Z" fill="#34516F"/>
<path d="M1020.25 0V18H965.85V0H950.32V43.26C950.32 43.6001 950.387 43.9369 950.517 44.2511C950.647 44.5654 950.838 44.8509 951.078 45.0914C951.319 45.3319 951.604 45.5227 951.919 45.6528C952.233 45.783 952.57 45.85 952.91 45.85H1033.2C1033.54 45.85 1033.88 45.783 1034.19 45.6528C1034.51 45.5227 1034.79 45.3319 1035.03 45.0914C1035.27 44.8509 1035.46 44.5654 1035.59 44.2511C1035.72 43.9369 1035.79 43.6001 1035.79 43.26V0H1020.25ZM1017.66 38.73H968.45C967.763 38.73 967.104 38.4571 966.618 37.9714C966.133 37.4857 965.86 36.8269 965.86 36.14C965.86 35.4531 966.133 34.7943 966.618 34.3086C967.104 33.8229 967.763 33.55 968.45 33.55H1017.66C1018.35 33.55 1019.01 33.8229 1019.49 34.3086C1019.98 34.7943 1020.25 35.4531 1020.25 36.14C1020.25 36.8269 1019.98 37.4857 1019.49 37.9714C1019.01 38.4571 1018.35 38.73 1017.66 38.73V38.73ZM1017.66 28.37H968.45C967.763 28.37 967.104 28.0971 966.618 27.6114C966.133 27.1257 965.86 26.4669 965.86 25.78C965.86 25.0931 966.133 24.4343 966.618 23.9486C967.104 23.4629 967.763 23.19 968.45 23.19H1017.66C1018.35 23.19 1019.01 23.4629 1019.49 23.9486C1019.98 24.4343 1020.25 25.0931 1020.25 25.78C1020.25 26.4669 1019.98 27.1257 1019.49 27.6114C1019.01 28.0971 1018.35 28.37 1017.66 28.37V28.37Z" fill="#34516F"/>
<path d="M616.84 205.14C626.494 205.14 634.32 197.314 634.32 187.66C634.32 178.006 626.494 170.18 616.84 170.18C607.186 170.18 599.36 178.006 599.36 187.66C599.36 197.314 607.186 205.14 616.84 205.14Z" fill="white"/>
<path d="M616.85 178L607.01 194.83H626.59L616.85 178ZM612.85 191.53L616.85 184.81L620.85 191.5L612.85 191.53Z" fill="#FF5000"/>
<path d="M1149.31 74.55C1158.96 74.55 1166.79 66.7239 1166.79 57.07C1166.79 47.4161 1158.96 39.59 1149.31 39.59C1139.66 39.59 1131.83 47.4161 1131.83 57.07C1131.83 66.7239 1139.66 74.55 1149.31 74.55Z" fill="white"/>
<path d="M1144.5 48.64L1144.39 68.14L1161.39 58.33L1144.5 48.64ZM1147.76 62.38L1147.88 54.55L1154.7 58.33L1147.76 62.38Z" fill="#FF5000"/>
<path d="M656.62 239.11L642.76 252.83L661.68 257.83L656.62 239.11ZM649.21 251.11L654.84 245.66L656.99 253.16L649.21 251.11Z" fill="#34516F"/>
<path d="M821 127.44L815.85 146.25L834.77 141.16L821 127.44ZM820.59 141.56L822.74 134.03L828.35 139.44L820.59 141.56Z" fill="white"/>
<path d="M675.4 68.17L661.54 81.88L680.46 86.93L675.4 68.17ZM667.99 80.17L673.62 74.72L675.77 82.22L667.99 80.17Z" fill="white"/>
<path d="M540.43 67.87V131.32C540.43 131.66 540.497 131.997 540.627 132.311C540.757 132.625 540.948 132.911 541.189 133.151C541.429 133.392 541.715 133.583 542.029 133.713C542.343 133.843 542.68 133.91 543.02 133.91H628.5C629.187 133.91 629.846 133.637 630.331 133.151C630.817 132.666 631.09 132.007 631.09 131.32V67.87H540.43Z" fill="white"/>
<path d="M631.09 62.69C631.09 62.3499 631.023 62.0131 630.893 61.6989C630.763 61.3846 630.572 61.0991 630.331 60.8586C630.091 60.6181 629.805 60.4273 629.491 60.2972C629.177 60.167 628.84 60.1 628.5 60.1H543.02C542.333 60.1 541.674 60.3729 541.189 60.8586C540.703 61.3443 540.43 62.0031 540.43 62.69V67.87H631.09V62.69Z" fill="#662D91"/>
<path d="M594.82 76.93H576.69V95.06H594.82V76.93Z" fill="#9E1F63"/>
<path d="M619.43 76.93H601.3V95.06H619.43V76.93Z" fill="#662D91"/>
<path d="M570.22 76.93H552.09V95.06H570.22V76.93Z" fill="#FF5000"/>
<path d="M617.49 100.89H554.03C552.958 100.89 552.09 101.759 552.09 102.83V102.84C552.09 103.911 552.958 104.78 554.03 104.78H617.49C618.561 104.78 619.43 103.911 619.43 102.84V102.83C619.43 101.759 618.561 100.89 617.49 100.89Z" fill="#E7EBEE"/>
<path d="M617.49 108.66H554.03C552.958 108.66 552.09 109.529 552.09 110.6V110.61C552.09 111.681 552.958 112.55 554.03 112.55H617.49C618.561 112.55 619.43 111.681 619.43 110.61V110.6C619.43 109.529 618.561 108.66 617.49 108.66Z" fill="#E7EBEE"/>
<path d="M617.49 116.43H554.03C552.958 116.43 552.09 117.299 552.09 118.37V118.38C552.09 119.451 552.958 120.32 554.03 120.32H617.49C618.561 120.32 619.43 119.451 619.43 118.38V118.37C619.43 117.299 618.561 116.43 617.49 116.43Z" fill="#E7EBEE"/>
<path d="M602.6 124.2H568.92C567.848 124.2 566.98 125.069 566.98 126.14V126.15C566.98 127.221 567.848 128.09 568.92 128.09H602.6C603.671 128.09 604.54 127.221 604.54 126.15V126.14C604.54 125.069 603.671 124.2 602.6 124.2Z" fill="#E7EBEE"/>
<path d="M700.37 175.36C712.531 175.36 722.39 165.501 722.39 153.34C722.39 141.179 712.531 131.32 700.37 131.32C688.209 131.32 678.35 141.179 678.35 153.34C678.35 165.501 688.209 175.36 700.37 175.36Z" fill="white"/>
<path d="M700.04 152.092C702.349 151.474 703.47 148.165 702.542 144.703C701.615 141.241 698.99 138.936 696.68 139.555C694.37 140.174 693.25 143.482 694.177 146.944C695.105 150.407 697.73 152.711 700.04 152.092Z" fill="#9E1F63"/>
<path d="M701.04 155.85C698.603 156.503 696.442 157.928 694.881 159.91C693.32 161.893 692.443 164.327 692.38 166.85C692.38 167.248 692.471 167.641 692.648 167.998C692.824 168.355 693.08 168.667 693.397 168.908C693.713 169.15 694.081 169.316 694.472 169.392C694.862 169.469 695.266 169.455 695.65 169.35L712.49 164.84C712.875 164.739 713.232 164.55 713.531 164.288C713.831 164.026 714.067 163.698 714.219 163.33C714.371 162.962 714.435 162.564 714.408 162.166C714.38 161.769 714.261 161.384 714.06 161.04C712.742 158.884 710.761 157.213 708.414 156.277C706.067 155.342 703.479 155.192 701.04 155.85V155.85Z" fill="#9E1F63"/>
<path d="M1404.35 98.8C1413.47 98.8 1420.86 91.4082 1420.86 82.29C1420.86 73.1718 1413.47 65.78 1404.35 65.78C1395.23 65.78 1387.84 73.1718 1387.84 82.29C1387.84 91.4082 1395.23 98.8 1404.35 98.8Z" fill="white"/>
<path d="M1408.99 77.4857C1409.69 74.8877 1408.85 72.4062 1407.12 71.943C1405.39 71.4799 1403.43 73.2105 1402.73 75.8085C1402.03 78.4065 1402.87 80.888 1404.6 81.3511C1406.33 81.8143 1408.29 80.0836 1408.99 77.4857Z" fill="#FF5000"/>
<path d="M1403.85 84.17C1402.02 83.678 1400.07 83.7953 1398.31 84.5042C1396.55 85.213 1395.07 86.4751 1394.09 88.1C1393.94 88.3573 1393.85 88.6458 1393.83 88.943C1393.81 89.2402 1393.86 89.5379 1393.97 89.813C1394.09 90.0881 1394.27 90.3329 1394.49 90.5284C1394.71 90.724 1394.98 90.8648 1395.27 90.94L1407.85 94.32C1408.14 94.3984 1408.44 94.4094 1408.73 94.3522C1409.02 94.2951 1409.3 94.1712 1409.54 93.9904C1409.77 93.8095 1409.97 93.5764 1410.1 93.3093C1410.23 93.0422 1410.3 92.7481 1410.3 92.45C1410.26 90.5584 1409.61 88.7296 1408.45 87.2371C1407.29 85.7445 1405.67 84.6685 1403.85 84.17V84.17Z" fill="#FF5000"/>
<path d="M874.56 13.47H745.05V97.65H874.56V13.47Z" fill="white"/>
<path d="M843.47 32.25H776.13V71.75H843.47V32.25Z" fill="#662D91"/>
<path d="M840.88 76.93H778.72C777.289 76.93 776.13 78.0896 776.13 79.52C776.13 80.9504 777.289 82.11 778.72 82.11H840.88C842.31 82.11 843.47 80.9504 843.47 79.52C843.47 78.0896 842.31 76.93 840.88 76.93Z" fill="#E7EBEE"/>
<path d="M840.88 86.65H778.72C777.289 86.65 776.13 87.8096 776.13 89.24C776.13 90.6704 777.289 91.83 778.72 91.83H840.88C842.31 91.83 843.47 90.6704 843.47 89.24C843.47 87.8096 842.31 86.65 840.88 86.65Z" fill="#E7EBEE"/>
<path d="M874.56 13.47H745.05V23.83H874.56V13.47Z" fill="#FF5000"/>
<path d="M837 54.06L825.27 39.55L808.15 60.72L797.75 47.84L782.61 66.57H837V54.06Z" fill="white"/>
<path opacity="0.1" d="M808.15 60.72L806.21 63.13L804.37 56.04L808.15 60.72Z" fill="#662D91"/>
<path d="M750.23 19.95C750.948 19.95 751.53 19.368 751.53 18.65C751.53 17.932 750.948 17.35 750.23 17.35C749.512 17.35 748.93 17.932 748.93 18.65C748.93 19.368 749.512 19.95 750.23 19.95Z" fill="white"/>
<path d="M755.34 19.95C756.058 19.95 756.64 19.368 756.64 18.65C756.64 17.932 756.058 17.35 755.34 17.35C754.622 17.35 754.04 17.932 754.04 18.65C754.04 19.368 754.622 19.95 755.34 19.95Z" fill="white"/>
<path d="M760.44 19.95C761.158 19.95 761.74 19.368 761.74 18.65C761.74 17.932 761.158 17.35 760.44 17.35C759.722 17.35 759.14 17.932 759.14 18.65C759.14 19.368 759.722 19.95 760.44 19.95Z" fill="white"/>
<path d="M1299.17 0V24.25C1299.17 24.9369 1299.44 25.5957 1299.93 26.0814C1300.41 26.5671 1301.07 26.84 1301.76 26.84H1387.24C1387.93 26.84 1388.59 26.5671 1389.07 26.0814C1389.56 25.5957 1389.83 24.9369 1389.83 24.25V0H1299.17ZM1361.34 21H1327.66C1327.17 20.9647 1326.71 20.7445 1326.37 20.3836C1326.04 20.0227 1325.85 19.548 1325.85 19.055C1325.85 18.562 1326.04 18.0873 1326.37 17.7264C1326.71 17.3655 1327.17 17.1453 1327.66 17.11H1361.34C1361.83 17.1453 1362.29 17.3655 1362.63 17.7264C1362.96 18.0873 1363.15 18.562 1363.15 19.055C1363.15 19.548 1362.96 20.0227 1362.63 20.3836C1362.29 20.7445 1361.83 20.9647 1361.34 21V21ZM1376.23 13.23H1312.77C1312.28 13.1947 1311.82 12.9745 1311.48 12.6136C1311.15 12.2527 1310.96 11.778 1310.96 11.285C1310.96 10.792 1311.15 10.3173 1311.48 9.9564C1311.82 9.59552 1312.28 9.37528 1312.77 9.34H1376.23C1376.72 9.37528 1377.18 9.59552 1377.52 9.9564C1377.85 10.3173 1378.04 10.792 1378.04 11.285C1378.04 11.778 1377.85 12.2527 1377.52 12.6136C1377.18 12.9745 1376.72 13.1947 1376.23 13.23V13.23ZM1376.23 5.46H1312.77C1312.28 5.42472 1311.82 5.20448 1311.48 4.8436C1311.15 4.48273 1310.96 4.00801 1310.96 3.515C1310.96 3.02199 1311.15 2.54727 1311.48 2.1864C1311.82 1.82552 1312.28 1.60528 1312.77 1.57H1376.23C1376.72 1.60528 1377.18 1.82552 1377.52 2.1864C1377.85 2.54727 1378.04 3.02199 1378.04 3.515C1378.04 4.00801 1377.85 4.48273 1377.52 4.8436C1377.18 5.20448 1376.72 5.42472 1376.23 5.46V5.46Z" fill="#34516F"/>
<path d="M919.85 178C919.85 178.34 919.917 178.677 920.047 178.991C920.177 179.305 920.368 179.591 920.608 179.831C920.849 180.072 921.134 180.263 921.449 180.393C921.763 180.523 922.1 180.59 922.44 180.59H963.76C975.745 165.105 990.773 152.237 1007.92 142.78V130H919.85V178Z" fill="white"/>
<path d="M1005.36 122.26H922.47C921.783 122.26 921.124 122.533 920.638 123.019C920.153 123.504 919.88 124.163 919.88 124.85V130H1007.95V124.82C1007.94 124.138 1007.67 123.487 1007.18 123.008C1006.7 122.529 1006.04 122.26 1005.36 122.26V122.26Z" fill="#662D91"/>
<path d="M995.64 145.57H961.97C961.283 145.57 960.624 145.843 960.138 146.329C959.653 146.814 959.38 147.473 959.38 148.16C959.38 148.847 959.653 149.506 960.138 149.991C960.624 150.477 961.283 150.75 961.97 150.75H995.05C996.05 150.02 997.13 149.31 998.19 148.61C998.2 148.46 998.2 148.31 998.19 148.16C998.19 147.48 997.923 146.827 997.445 146.343C996.968 145.858 996.32 145.581 995.64 145.57V145.57Z" fill="#E7EBEE"/>
<path d="M959.38 158.52C959.38 159.207 959.653 159.866 960.138 160.351C960.624 160.837 961.283 161.11 961.97 161.11H981.97C983.97 159.31 986.02 157.583 988.12 155.93H961.97C961.283 155.93 960.624 156.203 960.138 156.689C959.653 157.174 959.38 157.833 959.38 158.52Z" fill="#E7EBEE"/>
<path d="M936.07 166.29C935.383 166.29 934.724 166.563 934.238 167.049C933.753 167.534 933.48 168.193 933.48 168.88C933.48 169.567 933.753 170.226 934.238 170.711C934.724 171.197 935.383 171.47 936.07 171.47H971.48C973.12 169.69 974.77 167.96 976.48 166.29H936.07Z" fill="#E7EBEE"/>
<path d="M952.91 136.5H933.48V161.11H952.91V136.5Z" fill="#FF5000"/>
<path d="M943.19 148.16C944.383 148.16 945.35 146.709 945.35 144.92C945.35 143.131 944.383 141.68 943.19 141.68C941.997 141.68 941.03 143.131 941.03 144.92C941.03 146.709 941.997 148.16 943.19 148.16Z" fill="white"/>
<path d="M943.19 150.1C942.425 150.1 941.667 150.251 940.96 150.544C940.254 150.837 939.611 151.267 939.071 151.808C938.53 152.35 938.102 152.992 937.81 153.7C937.518 154.407 937.369 155.165 937.37 155.93H949.02C949.02 154.384 948.406 152.901 947.312 151.808C946.219 150.714 944.736 150.1 943.19 150.1V150.1Z" fill="white"/>
<path d="M1207.93 163.45C1208.31 163.7 1208.69 163.95 1209.06 164.21C1219.08 171.094 1229.67 177.116 1240.71 182.21H1325.01C1325.61 182.21 1326.18 181.973 1326.6 181.551C1327.02 181.129 1327.26 180.557 1327.26 179.96V103.42H1207.93V163.45Z" fill="white"/>
<path d="M1210.18 94.41H1325C1325.6 94.41 1326.17 94.6471 1326.59 95.069C1327.01 95.491 1327.25 96.0633 1327.25 96.66V103.41H1207.93V96.66C1207.93 96.0633 1208.17 95.491 1208.59 95.069C1209.01 94.6471 1209.58 94.41 1210.18 94.41V94.41Z" fill="#9E1F63"/>
<path d="M1220.31 171.44C1222.56 172.773 1224.84 174.083 1227.15 175.37H1247.33V137.09H1220.33L1220.31 171.44Z" fill="#E7EBEE"/>
<path d="M1281.11 137.19H1254.09V175.46H1281.11V137.19Z" fill="#E7EBEE"/>
<path d="M1314.88 137.28H1287.86V175.55H1314.88V137.28Z" fill="#E7EBEE"/>
<path d="M1314.87 110.26H1220.31V130.95H1314.87V110.26Z" fill="#662D91"/>
<path d="M799.21 194.55C796.4 197.361 794.132 200.666 792.52 204.3C798.608 207.528 804.406 211.276 809.85 215.5C821.31 224.39 833.97 232.5 847.85 237.07C852.851 230.542 855.181 222.356 854.365 214.173C853.549 205.99 849.65 198.425 843.459 193.012C837.268 187.6 829.249 184.747 821.03 185.033C812.812 185.318 805.011 188.721 799.21 194.55Z" fill="white"/>
<path d="M822.68 224.69C824.56 225.9 826.46 227.08 828.4 228.2L834.54 205.2L825.22 214.51L822.68 224.69Z" fill="#9E1F63"/>
<path opacity="0.2" d="M1435.25 4.6V161.73C1398.85 184.45 1361.05 196 1323 196C1284 196 1245.53 183.71 1211.66 160.45C1174.66 135.06 1126.72 119.9 1083.39 119.9C1032.16 119.9 989.39 140.13 959.63 178.4C943.57 199.07 927.51 214.4 911.9 223.96C898.39 232.24 884.77 236.43 871.42 236.43C859.75 236.43 840.96 233.89 812.62 211.91C793.45 197 772.08 188.8 752.44 188.8C732.21 188.8 715.99 197.46 706.76 213.17C698.7 226.92 699.76 242.7 709.69 258.83C712.259 262.942 715.18 266.823 718.42 270.43L607.05 271.06C613.46 261.06 615.93 251.25 614.4 241.82C610.61 218.48 583.84 201.87 557.95 185.82C544.7 177.6 532.18 169.82 523.51 161.67C506.09 145.25 497.97 130.29 497.19 113.17C496.33 94.28 504.95 71.62 523.53 43.9C531.536 32.1868 536.561 18.6963 538.17 4.6H1435.25ZM1439.85 0H533.94C533.032 14.8091 528.113 29.0923 519.71 41.32C480.21 100.24 486.71 133.32 520.36 165C554.01 196.68 642.6 222 597.92 275.71L729.58 275C729.58 275 693.25 245.32 710.73 215.53C719.42 200.72 734.73 193.44 752.44 193.44C770.44 193.44 790.92 200.88 809.8 215.53C827.42 229.2 847.9 241.02 871.42 241.02C898.03 241.02 928.55 225.9 963.27 181.21C995.27 140.08 1039.22 124.49 1083.39 124.49C1129.6 124.49 1176 141.49 1209.06 164.24C1241.19 186.3 1280.28 200.59 1323 200.59C1359.94 200.59 1399.6 189.9 1439.85 164.31V0Z" fill="#113355"/>
<path d="M680.3 254.52C680.659 254.52 680.95 254.229 680.95 253.87C680.95 253.511 680.659 253.22 680.3 253.22C679.941 253.22 679.65 253.511 679.65 253.87C679.65 254.229 679.941 254.52 680.3 254.52Z" fill="white"/>
<path d="M731.45 279C731.45 277.626 730.904 276.309 729.933 275.337C728.961 274.366 727.644 273.82 726.27 273.82H601.95C600.576 273.82 599.259 274.366 598.287 275.337C597.316 276.309 596.77 277.626 596.77 279V284.18H731.45V279Z" fill="#8899AA"/>
<path d="M596.77 284.14V360.55C596.77 361.924 597.316 363.241 598.287 364.213C599.259 365.184 600.576 365.73 601.95 365.73H726.27C727.644 365.73 728.961 365.184 729.933 364.213C730.904 363.241 731.45 361.924 731.45 360.55V284.14H596.77Z" fill="#E7EBEE"/>
<path opacity="0.2" d="M664.11 352.78C678.414 352.78 690.01 341.184 690.01 326.88C690.01 312.576 678.414 300.98 664.11 300.98C649.806 300.98 638.21 312.576 638.21 326.88C638.21 341.184 649.806 352.78 664.11 352.78Z" fill="#8899AA"/>
<path d="M664.11 350.83C678.414 350.83 690.01 339.234 690.01 324.93C690.01 310.626 678.414 299.03 664.11 299.03C649.806 299.03 638.21 310.626 638.21 324.93C638.21 339.234 649.806 350.83 664.11 350.83Z" fill="white"/>
<path opacity="0.3" d="M664.11 302.53C668.543 302.53 672.876 303.845 676.561 306.307C680.247 308.77 683.119 312.271 684.815 316.366C686.511 320.462 686.954 324.968 686.089 329.316C685.223 333.663 683.088 337.656 679.953 340.79C676.818 343.923 672.824 346.057 668.476 346.921C664.128 347.784 659.622 347.339 655.527 345.641C651.432 343.944 647.933 341.07 645.472 337.383C643.011 333.696 641.698 329.363 641.7 324.93C641.708 318.99 644.072 313.295 648.273 309.096C652.474 304.897 658.17 302.535 664.11 302.53V302.53ZM664.11 301.38C659.45 301.38 654.894 302.762 651.02 305.351C647.145 307.941 644.125 311.621 642.342 315.926C640.559 320.232 640.093 324.97 641.003 329.54C641.913 334.11 644.158 338.308 647.454 341.603C650.75 344.897 654.949 347.141 659.52 348.049C664.091 348.956 668.828 348.488 673.133 346.704C677.438 344.919 681.117 341.898 683.704 338.022C686.292 334.146 687.672 329.59 687.67 324.93C687.67 321.837 687.06 318.773 685.876 315.915C684.692 313.058 682.957 310.461 680.769 308.274C678.581 306.087 675.984 304.353 673.125 303.17C670.267 301.987 667.203 301.379 664.11 301.38V301.38Z" fill="#E7EBEE"/>
<path d="M669.78 329.48L677.77 334.05L664.18 310.61V320.16L669.78 329.48Z" fill="#9E1F63"/>
<path d="M664.15 320.11L664.18 320.16V310.61L650.45 334.08L658.53 329.48L664.15 320.11Z" fill="#FF5000"/>
<path d="M669.78 329.48H658.53L650.45 334.08L677.77 334.05L669.78 329.48Z" fill="#662D91"/>
<path d="M672.74 542.89C672.74 542.89 676.46 545.52 679.84 545.78C680.003 545.795 680.153 545.872 680.261 545.995C680.369 546.117 680.426 546.277 680.42 546.44C680.28 550.31 678.76 557.44 670.32 555.7C661.38 553.82 672.74 542.89 672.74 542.89Z" fill="#8899AA"/>
<path opacity="0.3" d="M673.71 543.52C673.1 543.15 672.71 542.89 672.71 542.89C672.71 542.89 661.35 553.82 670.29 555.7C671.881 556.104 673.55 556.084 675.13 555.64C673.29 550.94 670.51 550.67 673.71 543.52Z" fill="#113355"/>
<path d="M678.97 544.69C678.97 544.69 677.97 547.55 681.69 547.29L681.99 545.22L678.97 544.69Z" fill="#113355"/>
<path d="M660 541.46L657.47 535.13C657.425 535.016 657.348 534.917 657.249 534.845C657.15 534.773 657.032 534.73 656.91 534.721C656.788 534.713 656.666 534.739 656.558 534.798C656.45 534.856 656.36 534.943 656.3 535.05C655.485 536.48 655.013 538.08 654.923 539.724C654.833 541.367 655.126 543.009 655.78 544.52C659.43 543.13 660 541.46 660 541.46Z" fill="#34516F"/>
<path opacity="0.1" d="M448.79 598.14C456.56 584.26 509.66 603.93 565.99 598.14C622.32 592.35 714.27 583.14 712.33 608.55C710.39 633.96 624.91 609.71 558.22 608.55C491.53 607.39 441.02 612 448.79 598.14Z" fill="#1652F0"/>
<path d="M566.31 509.26L536.06 578.66C536.06 578.66 532.47 577.66 526.76 575.66C539.41 541.66 537.3 520.76 548.22 505.66C545.37 485.94 542.02 463.19 545.86 446.32C549.7 429.45 580.86 444.83 580.86 444.83C580.86 444.83 572.21 496.76 566.31 509.26Z" fill="#34516F"/>
<path d="M566.31 509.26L536.06 578.66C536.06 578.66 532.47 577.66 526.76 575.66C539.41 541.66 537.3 520.76 548.22 505.66C545.37 485.94 542.02 463.19 545.86 446.32C549.7 429.45 580.86 444.83 580.86 444.83C580.86 444.83 572.21 496.76 566.31 509.26Z" fill="#34516F"/>
<path d="M594.02 425.29L608.56 581.62H599.47C597.88 557.54 581.47 537.42 587.4 509.26C579.94 494.26 548.89 456.75 555.18 433.46C561.47 410.17 578.8 416.46 578.8 416.46L594.02 425.29Z" fill="#8899AA"/>
<path d="M603.53 581.67L596.68 509.39C596.31 505.39 595.79 501.31 595.12 497.33L583.02 424.69L584.02 424.53L596.13 497.17C596.8 501.17 597.32 505.26 597.69 509.3L604.54 581.57L603.53 581.67Z" fill="white"/>
<path opacity="0.3" d="M528.49 576.28L528.72 576.35L529.51 576.62H529.62L530.44 576.89C540.94 561.58 539.59 532.26 553.15 507.37C556.15 500.58 554.93 483.63 554.43 470.57C554.381 469.328 554.71 468.101 555.375 467.051C556.039 466.001 557.007 465.178 558.15 464.69C562.443 462.998 566.826 461.546 571.28 460.34C586.1 455.94 593.86 451.12 593.18 439.78C592.903 437.255 591.98 434.844 590.5 432.78C591.898 432.894 593.305 432.84 594.69 432.62L594.01 425.24L578.85 416.43C578.85 416.43 561.52 410.17 555.23 433.43C554.782 435.127 554.517 436.867 554.44 438.62C550.29 439.31 547 441.5 545.91 446.28C542.07 463.15 545.42 485.9 548.27 505.62C537.35 520.75 539.46 541.67 526.81 575.62L527.81 575.97L528.49 576.28Z" fill="#113355"/>
<path d="M579.373 356.976C583.884 355.767 586.259 350.005 584.678 344.107C583.097 338.209 578.159 334.408 573.648 335.617C569.137 336.826 566.762 342.587 568.343 348.485C569.924 354.384 574.863 358.185 579.373 356.976Z" fill="#56B4FC"/>
<path d="M605.85 376.94L614.52 383.13L639.18 361.2L640.67 352.27C640.739 351.841 640.966 351.453 641.306 351.183C641.647 350.912 642.076 350.78 642.51 350.81L645.85 351L654.59 341.29C654.863 340.985 655.237 340.789 655.643 340.738C656.049 340.686 656.46 340.783 656.8 341.01V341.01C656.992 341.135 657.157 341.297 657.285 341.487C657.413 341.678 657.501 341.892 657.544 342.117C657.587 342.342 657.584 342.574 657.535 342.797C657.486 343.021 657.393 343.233 657.26 343.42L651.49 351.61L653.93 358.61C654.072 359.023 654.096 359.468 653.999 359.894C653.902 360.319 653.687 360.71 653.38 361.02L652.28 362.12C650.61 363.79 649.62 365.47 647.14 366.3L645.14 366.98C645.14 366.98 625.27 394.54 617.85 396.25C610.43 397.96 601.55 392.25 601.55 392.25L596.55 379.84L605.85 376.94Z" fill="#56B4FC"/>
<path opacity="0.3" d="M576.61 356.2C578.057 355.801 579.333 354.936 580.24 353.74C575.52 346.54 576.95 341 577.07 336.74C577.08 336.563 577.08 336.387 577.07 336.21C576.202 335.566 575.203 335.12 574.144 334.904C573.085 334.688 571.991 334.707 570.94 334.96C566.45 336.16 564.09 341.9 565.66 347.77C567.23 353.64 572.12 357.41 576.61 356.2Z" fill="#1652F0"/>
<path opacity="0.3" d="M645.04 367C634.14 373.33 629.6 389.12 616.33 392.39C609.72 394.01 605.33 390.28 597.77 383.18L601.45 392.28C601.45 392.28 610.32 397.97 617.75 396.28C625.18 394.59 645.04 367 645.04 367Z" fill="#1652F0"/>
<path d="M596.51 379.86L596.42 379.89L597.77 383.2L596.51 379.86Z" fill="#1652F0"/>
<path d="M576.67 361.76C585.35 361.76 600.74 373.27 606.45 375.76C603.17 381.63 605.54 388.2 600.05 394.02C595.38 392.73 592.73 391.38 590.91 389.96C591.38 395.72 586.98 398.15 588.26 405.33C589.54 412.51 597.85 426.56 597.85 426.56C597.85 426.56 595.35 431.91 573.26 424.12C551.17 416.33 559.71 362.81 559.71 362.81L576.67 361.76Z" fill="#113355"/>
<path opacity="0.15" d="M576.98 405.94C572.072 403.256 567.571 399.89 563.61 395.94C561.911 394.274 560.129 392.695 558.27 391.21C558.27 391.84 558.34 392.46 558.38 393.08C560.03 394.44 561.38 395.7 562.65 396.94C570.659 404.64 580.403 410.299 591.06 413.44C590.81 412.88 590.58 412.33 590.35 411.79C585.667 410.405 581.175 408.44 576.98 405.94V405.94Z" fill="white"/>
<path opacity="0.15" d="M583.99 393.94C585.99 395.09 587.8 396.02 589.42 396.78C589.59 396.35 589.77 395.92 589.93 395.49C588.37 394.75 586.64 393.86 584.69 392.74C579.784 390.053 575.283 386.686 571.32 382.74C567.538 378.962 563.262 375.713 558.61 373.08C558.61 373.58 558.53 374.08 558.5 374.62C562.831 377.134 566.818 380.2 570.36 383.74C574.4 387.766 578.988 391.2 583.99 393.94V393.94Z" fill="white"/>
<path opacity="0.15" d="M590.5 415.69C585.072 414.277 579.871 412.105 575.05 409.24C570.142 406.556 565.641 403.19 561.68 399.24C560.68 398.33 559.76 397.4 558.68 396.44C558.75 397.14 558.83 397.83 558.92 398.52C559.55 399.1 560.15 399.68 560.74 400.24C568.988 408.171 579.077 413.93 590.1 417C591.1 417.29 592.1 417.57 593.19 417.91L592.35 416.21L590.5 415.69Z" fill="white"/>
<path opacity="0.15" d="M588.57 419C583.144 417.583 577.943 415.411 573.12 412.55C568.214 409.864 563.713 406.497 559.75 402.55L559.47 402.28C559.61 403.08 559.77 403.86 559.94 404.64C563.686 408.207 567.881 411.269 572.42 413.75C577.336 416.667 582.638 418.879 588.17 420.32C590.756 421.009 593.298 421.857 595.78 422.86C595.46 422.28 595.127 421.65 594.78 420.97C592.47 420.09 590.5 419.53 588.57 419Z" fill="white"/>
<path opacity="0.15" d="M571.2 415.84C567.577 413.859 564.166 411.514 561.02 408.84C561.29 409.7 561.57 410.55 561.88 411.36C564.598 413.493 567.481 415.409 570.5 417.09C575.412 420.009 580.711 422.221 586.24 423.66C589.892 424.584 593.445 425.86 596.85 427.47C597.292 427.28 597.668 426.964 597.93 426.56L597.85 426.42C594.278 424.672 590.539 423.288 586.69 422.29C581.249 420.879 576.034 418.707 571.2 415.84V415.84Z" fill="white"/>
<path opacity="0.15" d="M566.5 390.34C570.539 394.366 575.128 397.8 580.13 400.54C582.708 402.044 585.38 403.38 588.13 404.54C588.062 404.026 588.022 403.508 588.01 402.99C585.544 401.912 583.14 400.697 580.81 399.35C575.904 396.664 571.403 393.297 567.44 389.35C564.604 386.522 561.488 383.989 558.14 381.79V383.44C561.138 385.471 563.937 387.781 566.5 390.34V390.34Z" fill="white"/>
<path opacity="0.15" d="M584.71 425.59C579.285 424.179 574.087 422.007 569.27 419.14C567.27 417.98 565.51 416.9 564.03 415.89C564.615 416.942 565.284 417.946 566.03 418.89C566.81 419.37 567.65 419.89 568.55 420.38C573.466 423.297 578.768 425.509 584.3 426.95C585.52 427.3 586.76 427.65 588.09 428.09C589.652 428.319 591.231 428.413 592.81 428.37C590.175 427.264 587.469 426.335 584.71 425.59V425.59Z" fill="white"/>
<path opacity="0.15" d="M568.43 387C572.472 391.023 577.06 394.457 582.06 397.2C584.41 398.54 586.44 399.57 588.26 400.4C588.35 399.938 588.463 399.481 588.6 399.03C586.88 398.24 584.96 397.26 582.76 396.03C577.852 393.346 573.351 389.98 569.39 386.03C566.062 382.706 562.349 379.792 558.33 377.35C558.33 377.88 558.28 378.4 558.25 378.94C561.936 381.234 565.351 383.938 568.43 387V387Z" fill="white"/>
<path opacity="0.15" d="M560.85 367.14C565.759 369.821 570.261 373.188 574.22 377.14C581.781 384.413 590.888 389.882 600.86 393.14C601.165 392.76 601.449 392.362 601.71 391.95C597.103 390.571 592.683 388.63 588.55 386.17C583.646 383.48 579.145 380.114 575.18 376.17C571.143 372.141 566.554 368.707 561.55 365.97C560.83 365.56 560.14 365.18 559.47 364.82C559.42 365.25 559.36 365.74 559.29 366.3C559.79 366.54 560.3 366.83 560.85 367.14Z" fill="white"/>
<path opacity="0.15" d="M558.92 370.44C563.824 373.124 568.323 376.491 572.28 380.44C576.324 384.465 580.916 387.899 585.92 390.64C587.66 391.64 589.23 392.46 590.67 393.16C590.775 392.685 590.849 392.204 590.89 391.72C589.59 391.08 588.18 390.33 586.62 389.44C581.713 386.756 577.211 383.389 573.25 379.44C569.211 375.414 564.622 371.98 559.62 369.24L558.99 368.89C558.943 369.37 558.893 369.87 558.84 370.39L558.92 370.44Z" fill="white"/>
<path opacity="0.15" d="M562.77 363.84C567.678 366.524 572.179 369.89 576.14 373.84C583.702 381.116 592.813 386.586 602.79 389.84C602.97 389.41 603.13 388.98 603.27 388.54C593.477 385.356 584.53 379.999 577.1 372.87C573.066 368.838 568.476 365.404 563.47 362.67L563.38 362.62L560.8 362.78C561.44 363.09 562.09 363.44 562.77 363.84Z" fill="white"/>
<path opacity="0.15" d="M581.92 363.94C585.962 367.963 590.55 371.397 595.55 374.14C598.644 375.943 601.878 377.495 605.22 378.78C605.35 378.34 605.5 377.9 605.67 377.47C602.414 376.214 599.264 374.699 596.25 372.94C591.443 370.31 587.027 367.022 583.13 363.17C582.15 362.779 581.148 362.445 580.13 362.17C580.72 362.79 581.32 363.37 581.92 363.94Z" fill="white"/>
<path opacity="0.15" d="M591.7 380.74C595.537 383.004 599.607 384.848 603.84 386.24C603.93 385.78 604.01 385.32 604.09 384.86C600.014 383.51 596.095 381.726 592.4 379.54C587.493 376.856 582.991 373.489 579.03 369.54C576.282 366.791 573.267 364.322 570.03 362.17L567.69 362.32C571.458 364.651 574.944 367.41 578.08 370.54C582.117 374.565 586.702 377.999 591.7 380.74V380.74Z" fill="white"/>
<path opacity="0.15" d="M564.58 393.64C568.617 397.669 573.206 401.103 578.21 403.84C581.72 405.915 585.424 407.643 589.27 409C589.07 408.43 588.89 407.88 588.74 407.35C585.336 406.068 582.048 404.499 578.91 402.66C574 399.979 569.498 396.612 565.54 392.66C563.24 390.377 560.762 388.28 558.13 386.39C558.13 386.97 558.13 387.55 558.13 388.13C560.402 389.819 562.557 391.66 564.58 393.64V393.64Z" fill="white"/>
<path opacity="0.15" d="M579.99 367.24C584.034 371.265 588.626 374.699 593.63 377.44C597.069 379.463 600.692 381.157 604.45 382.5C604.52 382.03 604.6 381.57 604.68 381.11C601.085 379.806 597.618 378.175 594.32 376.24C589.417 373.554 584.919 370.187 580.96 366.24C579.47 364.82 577.96 363.38 575.96 361.8L573.86 361.93C576.018 363.563 578.066 365.337 579.99 367.24V367.24Z" fill="white"/>
<path d="M615.35 593.7C609.71 591.79 608.56 585.92 608.56 585.92H600.85V599.4H604.23V597.08C604.226 596.795 604.325 596.518 604.509 596.299C604.692 596.081 604.948 595.936 605.23 595.89C605.394 595.862 605.563 595.871 605.724 595.915C605.884 595.959 606.034 596.038 606.161 596.145C606.289 596.253 606.391 596.386 606.462 596.538C606.532 596.689 606.569 596.853 606.57 597.02C606.569 597.333 606.629 597.643 606.748 597.932C606.867 598.222 607.043 598.485 607.264 598.706C607.485 598.927 607.748 599.102 608.037 599.222C608.327 599.341 608.637 599.401 608.95 599.4H620.34C620.34 599.4 620.98 595.61 615.35 593.7Z" fill="#113355"/>
<path d="M537.85 592.41C533.12 588.8 533.91 582.87 533.91 582.87L526.62 580.41L522.31 593.18L525.51 594.26L526.25 592.06C526.334 591.794 526.51 591.565 526.746 591.415C526.982 591.266 527.263 591.203 527.54 591.24C527.704 591.267 527.86 591.33 527.997 591.424C528.135 591.518 528.25 591.64 528.336 591.782C528.421 591.925 528.475 592.085 528.493 592.25C528.511 592.415 528.493 592.582 528.44 592.74C528.243 593.335 528.289 593.985 528.568 594.547C528.847 595.108 529.336 595.537 529.93 595.74L540.73 599.39C540.73 599.39 542.62 596 537.85 592.41Z" fill="#113355"/>
<path d="M506.41 594.22H468.86C468.501 594.22 468.21 594.511 468.21 594.87V598.75C468.21 599.109 468.501 599.4 468.86 599.4H506.41C506.769 599.4 507.06 599.109 507.06 598.75V594.87C507.06 594.511 506.769 594.22 506.41 594.22Z" fill="#FF5000"/>
<path d="M512.24 589.04H474.69C474.331 589.04 474.04 589.331 474.04 589.69V593.57C474.04 593.929 474.331 594.22 474.69 594.22H512.24C512.599 594.22 512.89 593.929 512.89 593.57V589.69C512.89 589.331 512.599 589.04 512.24 589.04Z" fill="#662D91"/>
<path d="M507.71 583.86H470.16C469.801 583.86 469.51 584.151 469.51 584.51V588.39C469.51 588.749 469.801 589.04 470.16 589.04H507.71C508.069 589.04 508.36 588.749 508.36 588.39V584.51C508.36 584.151 508.069 583.86 507.71 583.86Z" fill="#9E1F63"/>
<path d="M512.89 578.68H475.34C474.981 578.68 474.69 578.971 474.69 579.33V583.21C474.69 583.569 474.981 583.86 475.34 583.86H512.89C513.249 583.86 513.54 583.569 513.54 583.21V579.33C513.54 578.971 513.249 578.68 512.89 578.68Z" fill="#FF5000"/>
<path d="M472.1 578.68H509.65C510.009 578.68 510.3 578.389 510.3 578.03V574.15C510.3 573.791 510.009 573.5 509.65 573.5H472.1C471.741 573.5 471.45 573.791 471.45 574.15V578.03C471.45 578.389 471.741 578.68 472.1 578.68Z" fill="#662D91"/>
<path opacity="0.2" d="M472.1 578.68H477.73C477.558 578.68 477.392 578.612 477.27 578.49C477.148 578.368 477.08 578.202 477.08 578.03V574.15C477.08 573.978 477.148 573.812 477.27 573.69C477.392 573.568 477.558 573.5 477.73 573.5H472.1C471.928 573.5 471.762 573.568 471.64 573.69C471.518 573.812 471.45 573.978 471.45 574.15V578C471.446 578.088 471.46 578.176 471.491 578.258C471.521 578.34 471.569 578.416 471.629 578.479C471.69 578.543 471.763 578.593 471.844 578.628C471.925 578.662 472.012 578.68 472.1 578.68V578.68Z" fill="#113355"/>
<path opacity="0.2" d="M475.24 583.86H487.35C487.177 583.86 487.012 583.792 486.89 583.67C486.768 583.548 486.7 583.382 486.7 583.21V579.33C486.7 579.158 486.768 578.992 486.89 578.87C487.012 578.748 487.177 578.68 487.35 578.68H475.24C475.067 578.68 474.902 578.748 474.78 578.87C474.658 578.992 474.59 579.158 474.59 579.33V583.21C474.59 583.382 474.658 583.548 474.78 583.67C474.902 583.792 475.067 583.86 475.24 583.86V583.86Z" fill="#113355"/>
<path opacity="0.2" d="M470.16 589H488.74C488.568 589 488.402 588.932 488.28 588.81C488.158 588.688 488.09 588.522 488.09 588.35V584.47C488.09 584.298 488.158 584.132 488.28 584.01C488.402 583.888 488.568 583.82 488.74 583.82H470.16C469.987 583.82 469.822 583.888 469.7 584.01C469.578 584.132 469.51 584.298 469.51 584.47V588.35C469.51 588.522 469.578 588.688 469.7 588.81C469.822 588.932 469.987 589 470.16 589V589Z" fill="#113355"/>
<path opacity="0.2" d="M474.69 594.22H486.85C486.678 594.22 486.512 594.152 486.39 594.03C486.268 593.908 486.2 593.742 486.2 593.57V589.69C486.194 589.601 486.207 589.512 486.237 589.429C486.268 589.345 486.315 589.269 486.376 589.204C486.436 589.14 486.51 589.088 486.592 589.053C486.673 589.018 486.761 589 486.85 589H474.69C474.518 589 474.352 589.068 474.23 589.19C474.108 589.312 474.04 589.478 474.04 589.65V593.53C474.034 593.619 474.047 593.707 474.077 593.791C474.108 593.875 474.155 593.951 474.216 594.016C474.276 594.08 474.35 594.132 474.432 594.167C474.513 594.202 474.601 594.22 474.69 594.22V594.22Z" fill="#113355"/>
<path opacity="0.2" d="M468.85 599.4H474.48C474.309 599.397 474.147 599.328 474.027 599.206C473.907 599.085 473.84 598.921 473.84 598.75V594.87C473.84 594.699 473.907 594.535 474.027 594.414C474.147 594.292 474.309 594.223 474.48 594.22H468.85C468.678 594.22 468.512 594.289 468.39 594.41C468.268 594.532 468.2 594.698 468.2 594.87V598.75C468.2 598.922 468.268 599.088 468.39 599.21C468.512 599.331 468.678 599.4 468.85 599.4V599.4Z" fill="#113355"/>
<path d="M490.88 573.5C501.611 573.5 510.31 564.801 510.31 554.07C510.31 543.339 501.611 534.64 490.88 534.64C480.149 534.64 471.45 543.339 471.45 554.07C471.45 564.801 480.149 573.5 490.88 573.5Z" fill="#FF5000"/>
<path d="M490.85 571.42C487.418 571.422 484.062 570.406 481.208 568.501C478.353 566.596 476.128 563.887 474.813 560.717C473.499 557.546 473.154 554.058 473.822 550.691C474.49 547.325 476.142 544.233 478.568 541.805C480.994 539.378 484.086 537.724 487.451 537.054C490.817 536.384 494.306 536.727 497.477 538.04C500.648 539.353 503.358 541.576 505.265 544.43C507.172 547.283 508.19 550.638 508.19 554.07C508.185 558.668 506.356 563.077 503.106 566.329C499.855 569.581 495.448 571.412 490.85 571.42ZM490.85 537.73C487.615 537.728 484.453 538.686 481.763 540.481C479.072 542.277 476.975 544.831 475.736 547.818C474.498 550.806 474.173 554.095 474.804 557.267C475.434 560.44 476.991 563.354 479.279 565.641C481.566 567.928 484.48 569.486 487.653 570.116C490.825 570.747 494.113 570.422 497.101 569.184C500.089 567.945 502.643 565.848 504.439 563.157C506.234 560.467 507.192 557.305 507.19 554.07C507.185 549.738 505.461 545.585 502.398 542.522C499.335 539.459 495.182 537.735 490.85 537.73V537.73Z" fill="#FF1900"/>
<path d="M490.93 544.36L481.08 561.2H500.67L490.93 544.36ZM486.85 557.89L490.85 551.17L494.85 557.85L486.85 557.89Z" fill="white"/>
<path d="M646.6 610.41C646.6 610.41 643.39 609.64 643.25 609.27C636.38 590.75 647.66 585 651.46 577.38C655.26 569.76 654.7 558 654.7 558H670.85C670.85 558 683.85 572.24 673.44 588.43C663.03 604.62 663.73 610.43 663.73 610.43L646.6 610.41Z" fill="#8899AA"/>
<path opacity="0.3" d="M662.72 606.12C662.92 607.42 663.21 608.89 663.56 610.41H663.77C663.77 610.41 663.2 605.23 671.77 591.11C664.01 596.13 661.85 600.7 662.72 606.12Z" fill="#113355"/>
<path opacity="0.3" d="M658.08 562.92L654.74 560.53C654.74 564.4 654.22 571.87 651.46 577.38C647.66 584.99 636.46 590.73 643.22 609.17C643.37 609.57 647.93 610.41 647.93 610.41H649.04C643.44 593.66 657.47 586.37 658.08 562.92Z" fill="#113355"/>
<path d="M655.35 593.57L667.71 604.17C668.098 604.503 668.41 604.915 668.624 605.38C668.838 605.844 668.949 606.349 668.95 606.86V606.86C668.95 607.802 668.576 608.704 667.91 609.37C667.244 610.036 666.341 610.41 665.4 610.41H655.4L655.35 593.57Z" fill="#8899AA"/>
<path d="M677.5 574.38C677.5 590.98 675.42 601.99 676.72 605.23C678.02 608.47 681.25 606.52 681.25 610.41H673.48L668.3 578.68L677.5 574.38Z" fill="#8899AA"/>
<path d="M641.38 608.86C624.55 596.67 642.78 587.2 636.57 574.15C636.949 573.473 637.522 572.926 638.216 572.578C638.909 572.231 639.691 572.099 640.46 572.2C648.23 580.62 631.39 596.81 643.69 603.93C646.69 605.19 652.23 603.93 652.23 603.93L652.33 610.41H646.25C644.504 610.416 642.801 609.874 641.38 608.86V608.86Z" fill="#8899AA"/>
<path d="M673.1 542.15C671.989 540.807 670.585 539.738 668.994 539.025C667.404 538.312 665.671 537.975 663.93 538.04C658.22 538.04 648.78 547.75 647.09 549.53C647.009 549.617 646.954 549.725 646.931 549.842C646.908 549.958 646.918 550.079 646.96 550.19C647.28 551.08 648.3 553.19 650.53 553.3C649.288 555.011 648.188 556.82 647.24 558.71C647.196 558.799 647.173 558.896 647.173 558.995C647.173 559.094 647.196 559.191 647.24 559.28C647.602 559.979 648.129 560.578 648.775 561.026C649.422 561.474 650.169 561.757 650.95 561.85C650.31 563.54 650.86 566.66 651.15 567.99C651.166 568.075 651.2 568.155 651.249 568.227C651.297 568.298 651.36 568.359 651.433 568.404C651.507 568.45 651.588 568.481 651.674 568.494C651.759 568.507 651.846 568.502 651.93 568.48C652.93 568.25 654.67 567.73 655.31 566.9C655.547 568.568 656.378 570.095 657.65 571.2C657.748 571.273 657.864 571.317 657.986 571.328C658.108 571.338 658.231 571.315 658.34 571.26C659.762 570.593 661.003 569.595 661.96 568.35C663.24 569.731 664.74 570.89 666.4 571.78C666.502 571.844 666.62 571.878 666.74 571.878C666.86 571.878 666.978 571.844 667.08 571.78C668.552 570.819 669.737 569.479 670.51 567.9C672.346 567.938 674.179 567.708 675.95 567.22C676.046 567.196 676.135 567.15 676.21 567.086C676.286 567.022 676.345 566.941 676.384 566.85C676.423 566.758 676.44 566.66 676.434 566.561C676.428 566.462 676.399 566.366 676.35 566.28C675.81 565.28 674.52 564.28 674.35 562.55C675.24 562.176 676.051 561.636 676.74 560.96C676.821 560.893 676.885 560.807 676.925 560.709C676.964 560.611 676.98 560.505 676.969 560.401C676.958 560.296 676.921 560.195 676.862 560.108C676.803 560.02 676.723 559.949 676.63 559.9C674.12 558.5 667.37 553.5 673.1 542.15Z" fill="#FF5000"/>
<path d="M668.79 544.43L669.27 534.88C669.28 534.759 669.256 534.638 669.2 534.53C669.145 534.422 669.061 534.331 668.956 534.269C668.852 534.207 668.733 534.174 668.612 534.176C668.49 534.178 668.372 534.214 668.27 534.28C666.58 535.28 663.27 537.51 662.6 541.16C661.68 546.13 668.79 544.43 668.79 544.43Z" fill="#8899AA"/>
<path d="M637.3 576C638.136 575.938 638.945 575.682 639.664 575.251C640.383 574.821 640.991 574.228 641.44 573.52C640.83 570.27 639.03 569.26 639.51 566.17C639.526 566.054 639.511 565.936 639.466 565.827C639.421 565.719 639.347 565.625 639.253 565.556C639.158 565.486 639.047 565.443 638.93 565.431C638.814 565.42 638.696 565.44 638.59 565.49C637.63 566.013 636.739 566.654 635.94 567.4C635.267 566.022 634.13 564.925 632.73 564.3C632.576 564.227 632.399 564.218 632.239 564.274C632.078 564.33 631.945 564.447 631.87 564.6C631.515 565.526 631.398 566.527 631.53 567.51C631.53 567.51 629.71 566.88 628.29 566.51C628.19 566.483 628.085 566.48 627.984 566.501C627.882 566.523 627.787 566.568 627.707 566.634C627.627 566.699 627.564 566.783 627.522 566.878C627.481 566.973 627.463 567.077 627.47 567.18C627.62 569.85 630.32 572.18 630.32 572.18C629.777 572.634 629.326 573.187 628.99 573.81C628.939 573.911 628.916 574.024 628.922 574.137C628.929 574.25 628.964 574.36 629.026 574.454C629.088 574.549 629.173 574.627 629.274 574.678C629.374 574.73 629.487 574.755 629.6 574.75C631.63 574.55 633.79 573.12 637.3 576Z" fill="#FF5000"/>
<path d="M584.85 363.7C572.13 350.42 575.72 342.55 576.57 336.7C577.42 330.85 563.4 328.49 550.4 337.04C537.4 345.59 537.22 356.75 543.4 363.67C549.58 370.59 549.73 376.22 540.32 383.92C530.91 391.62 500.32 407.24 489.74 417.85C485.74 421.85 477.22 433.5 481.11 440.68C485 447.86 499.59 447.12 505.23 446.92C512.31 446.66 512.52 450.87 502.81 456.37C494.44 461.12 478.39 465.88 470.86 477.51C463.33 489.14 469.49 508.51 483.86 509.85C498.23 511.19 522.19 496.68 532.11 478.54C542.03 460.4 551.61 459.03 565.64 456.13C579.67 453.23 587.21 449.37 587.46 438.84C587.71 428.31 568.69 416.77 571.8 399.66C574.91 382.55 584.92 380.87 584.85 363.7Z" fill="#FF5000"/>
<path d="M602.08 280.26C602.798 280.26 603.38 279.678 603.38 278.96C603.38 278.242 602.798 277.66 602.08 277.66C601.362 277.66 600.78 278.242 600.78 278.96C600.78 279.678 601.362 280.26 602.08 280.26Z" fill="#FF5000"/>
<path d="M607.19 280.26C607.908 280.26 608.49 279.678 608.49 278.96C608.49 278.242 607.908 277.66 607.19 277.66C606.472 277.66 605.89 278.242 605.89 278.96C605.89 279.678 606.472 280.26 607.19 280.26Z" fill="#9E1F63"/>
<path d="M612.29 280.26C613.008 280.26 613.59 279.678 613.59 278.96C613.59 278.242 613.008 277.66 612.29 277.66C611.572 277.66 610.99 278.242 610.99 278.96C610.99 279.678 611.572 280.26 612.29 280.26Z" fill="#662D91"/>
<path opacity="0.1" d="M731.45 284.14H596.77V287.82C638.04 285.39 672.94 286.47 695.61 286.82C706.36 287 719.97 286.89 731.45 286.72V284.14Z" fill="#113355"/>
<path d="M560.67 332.43C557.004 333.408 553.522 334.975 550.36 337.07C537.36 345.63 537.18 356.78 543.36 363.7C549.54 370.62 549.69 376.25 540.28 383.95C535.66 387.74 525.93 393.43 515.98 399.5C539.37 393.88 548.48 385.23 556.06 372.44C563.64 359.65 548.48 347.81 560.69 332.44L560.67 332.43Z" fill="#FF1900"/>
<path d="M571.67 399.84C555.28 433.5 592.03 435.55 572.58 454.44C582.11 451.63 587.19 447.49 587.4 438.87C587.66 428.35 568.63 416.8 571.74 399.69L571.67 399.84Z" fill="#FF1900"/>
<path d="M497.52 447C500.57 447.11 503.34 447 505.17 446.93C512.25 446.67 512.46 450.88 502.75 456.38C500.35 457.74 497.33 459.1 494.05 460.62C535.53 452.67 526.32 440.52 497.52 447Z" fill="#FF1900"/>
<path d="M523.95 489.62C492.04 516.43 473.11 493.79 470.4 478.21C463.51 489.9 469.7 508.54 483.8 509.88C495.09 511 512.28 502.21 523.95 489.62Z" fill="#FF1900"/>
<path opacity="0.2" d="M587.4 509.26C581.47 537.42 597.88 557.54 599.47 581.62H606.38C602.78 550.58 588.67 539.55 587.4 509.26Z" fill="#113355"/>
<path d="M648.14 557C650.423 555.81 652.406 554.118 653.94 552.05C652.91 552.71 651.744 553.127 650.53 553.27C649.642 554.453 648.844 555.699 648.14 557Z" fill="#FF1900"/>
<path d="M655.3 566.9C655.456 567.712 655.722 568.499 656.09 569.24C657.089 567.354 657.559 565.232 657.45 563.1C657.05 564.521 656.312 565.825 655.3 566.9V566.9Z" fill="#FF1900"/>
<path d="M674.3 562.52C673.322 562.784 672.297 562.829 671.3 562.65C672.518 563.599 673.865 564.37 675.3 564.94C674.758 564.236 674.412 563.401 674.3 562.52V562.52Z" fill="#FF1900"/>
<path d="M631.53 567.51L630.7 567.23C630.969 568 631.5 568.651 632.2 569.07C631.891 568.591 631.664 568.064 631.53 567.51V567.51Z" fill="#FF1900"/>
<path d="M809.85 215.5C810.75 216.2 811.66 216.89 812.57 217.58L825.29 214.38V214.46L834.61 205.15L806.03 212.64C807.24 213.56 808.53 214.51 809.85 215.5Z" fill="#FF5000"/>
</svg>
