<svg xmlns="http://www.w3.org/2000/svg" width="128" height="128" viewBox="0 0 128 128" fill="none">
<circle cx="64" cy="64" r="64" fill="#FF5000"/>
<path fill-rule="evenodd" clip-rule="evenodd" d="M60.7 41.2306L36.6543 80.7965L46.2175 75.2752C46.2402 75.2355 46.2636 75.1959 46.2878 75.1565L60.7 51.6916V41.2306ZM87.6814 86.25H41.2086L49.8689 81.25H78.6954C78.7989 81.25 78.9011 81.2462 79.0018 81.2389L87.6814 86.25ZM91.4679 80.3533L67.7 41.2444V51.7053L81.9043 74.8317L91.4679 80.3533ZM67.6141 27.6246C66.0561 25.0611 62.3355 25.0611 60.7776 27.6246L24.588 87.1726C22.968 89.8383 24.8869 93.25 28.0062 93.25H100.385C103.505 93.25 105.424 89.8383 103.804 87.1726L67.6141 27.6246ZM64.1958 59.3749L55.0595 74.25H73.3321L64.1958 59.3749Z" fill="white"/>
</svg>