<svg viewBox="0 0 100 32" version="1.1" xmlns="http://www.w3.org/2000/svg" preserveAspectRatio="none" class="SparkLine__Svg-sc-9wg5ja-0 cdfFYq"><path d="M 0,19.869779179810678 C 1.6176154818265257e-17,20.133955835962112 -0.19999999999999993,21.65395583596216 0,21.19066246056785 C 0.19999999999999998,20.72736908517354 0.6000000000000002,18.72772239747635 1,17.553312302839117 C 1.4,16.37890220820189 1.8,15.505615141955836 2,15.318611987381704 C 2.2,15.131608832807572 1.7999999999999998,15.996063091482645 2,16.618296529968454 C 2.2,17.240529968454265 2.6,19.45978548895901 3,18.42977917981075 C 3.4,17.399772870662492 3.8000000000000003,13.296201892744515 4,11.468264984227154 C 4.2,9.640328075709794 3.8,9.622965299684518 4,9.29009463722395 C 4.2,8.957223974763382 4.6,9.53600000000002 5,9.803911671924315 C 5.4,10.07182334384861 5.8,10.397324921135667 6,10.629652996845426 C 6.2,10.861981072555185 5.8,11.270864353312245 6,10.965552050473113 C 6.2,10.66023974763398 6.6,9.911823343848488 7,9.103091482649768 C 7.4,8.294359621451049 7.8,7.600555205047328 8,6.9218927444795195 C 8.2,6.243230283911711 7.8,5.85998738170348 8,5.709779179810726 C 8.2,5.559570977917971 8.6,5.85822082018926 9,6.170851735015749 C 9.4,6.483482649842237 9.6,6.379356466876908 10,7.272933753943168 C 10.4,8.166511041009429 10.8,10.003785488959014 11,10.638738170347052 C 11.2,11.27369085173509 10.799999999999999,9.882094637224062 11,10.447697160883354 C 11.2,11.013299684542647 11.6,13.262990536277583 12,13.466750788643509 C 12.4,13.670511041009435 12.8,11.337085173501638 13,11.466498422712984 C 13.2,11.59591167192433 12.8,13.341728706624535 13,14.11381703470024 C 13.2,14.885905362775945 13.6,15.048429022082038 14,15.326940063091508 C 14.4,15.605451104100977 14.8,16.065413249211318 15,15.506372239747584 C 15.2,14.947331230283853 14.8,12.826700315457378 15,12.531735015772846 C 15.2,12.236769716088313 15.6,13.493602523659302 16,14.031545741324921 C 16.4,14.569488958990542 16.8,15.555078864353312 17,15.221451104100947 C 17.2,14.88782334384858 16.8,12.923760252365925 17,12.363406940063092 C 17.2,11.803053627760258 17.6,12.0924164037855 18,12.419684542586776 C 18.4,12.746952681388052 18.6,14.336000000000094 19,13.999747634069475 C 19.4,13.663495268138856 19.8,11.390839116719178 20,10.73842271293368 C 20.2,10.086006309148182 19.8,10.587608832807566 20,10.737665615141982 C 20.2,10.887722397476397 20.6,11.469425867507965 21,11.488706624605753 C 21.4,11.50798738170354 21.8,10.757047318612003 22,10.834069400630915 C 22.2,10.911091482649827 21.8,11.66793690851736 22,11.873817034700316 C 22.2,12.079697160883272 22.6,12.347406940063047 23,11.863470031545692 C 23.4,11.379533123028336 23.8,10.054813880126144 24,9.45413249211354 C 24.2,8.853451104100937 23.8,9.100719242902237 24,8.860063091482674 C 24.2,8.619406940063111 24.6,7.960883280757049 25,8.250851735015724 C 25.4,8.540820189274399 25.8,9.812138801261835 26,10.30990536277605 C 26.2,10.807671924290265 25.8,10.55005678233444 26,10.7396845425868 C 26.2,10.929312302839161 26.6,10.983167192429038 27,11.258044164037855 C 27.4,11.532921135646673 27.8,11.671823343848562 28,12.11406940063089 C 28.2,12.55631545741322 27.8,13.251129337539387 28,13.469274447949502 C 28.2,13.687419558359617 28.6,13.76176656151427 29,13.204794952681462 C 29.4,12.647823343848655 29.6,11.299078864353318 30,10.684416403785464 C 30.4,10.069753943217611 30.8,10.325148264984149 31,10.131482649842198 C 31.2,9.937817034700247 30.8,9.507785488958971 31,9.71608832807571 C 31.2,9.924391167192448 31.6,11.003154574132518 32,11.172996845425892 C 32.4,11.342839116719267 32.8,11.514902208201907 33,10.565299684542586 C 33.2,9.615697160883265 32.8,7.738044164037806 33,6.424984227129288 C 33.2,5.111924290220771 33.6,3.5799621451103905 34,4 C 34.4,4.4200378548896095 34.8,7.653097791798152 35,8.525173501577337 C 35.2,9.397249211356522 34.8,8.277905362776059 35,8.360378548895923 C 35.2,8.442851735015788 35.6,9.305034700315467 36,8.937539432176656 C 36.4,8.570044164037846 36.8,6.440832807570944 37,6.522902208201868 C 37.2,6.604971608832793 36.8,8.794447949526862 37,9.34788643533128 C 37.2,9.901324921135696 37.6,9.76040378548894 38,9.29009463722395 C 38.4,8.81978548895896 38.6,7.722851735015787 39,6.996340694006333 C 39.4,6.269829652996879 39.8,5.029400630914851 40,5.657539432176681 C 40.2,6.285678233438511 39.8,9.443987381703485 40,10.137034700315482 C 40.2,10.83008201892748 40.6,9.13170977917988 41,9.122776025236668 C 41.4,9.113842271293455 41.8,10.028820189274509 42,10.092365930599419 C 42.2,10.15591167192433 41.8,9.05337539432179 42,9.440504731861223 C 42.2,9.827634069400656 42.6,11.475835962145162 43,12.02801261829658 C 43.4,12.580189274448 43.8,11.632403785489002 44,12.20138801261832 C 44.2,12.770372239747639 43.8,14.493930599369046 44,14.872933753943169 C 44.2,15.251936908517292 44.6,14.007268138801228 45,14.096403785488935 C 45.4,14.185539432176641 45.8,15.14044164037855 46,15.318611987381704 C 46.2,15.496782334384859 45.8,14.939406940063062 46,14.987255520504707 C 46.2,15.035104100946352 46.6,15.705791798107265 47,15.55785488958993 C 47.4,15.409917981072594 47.8,14.286435331230333 48,14.24757097791803 C 48.2,14.208706624605728 47.8,15.912681388012668 48,15.363533123028416 C 48.2,14.814384858044164 48.6,12.085299684542514 49,11.501829652996772 C 49.4,10.91835962145103 49.6,12.267608832807591 50,12.446182965299709 C 50.4,12.624757097791827 50.8,12.267507886435281 51,12.394700315457364 C 51.2,12.521892744479446 50.8,13.00562776025238 51,13.082145110410119 C 51.2,13.158662460567857 51.6,12.798586750788639 52,12.777287066246057 C 52.4,12.755987381703475 52.8,12.610624605678288 53,12.97564668769721 C 53.2,13.340668769716133 52.8,14.17827129337539 53,14.60239747634067 C 53.2,15.02652365930595 53.6,15.071343848580378 54,15.09627760252361 C 54.4,15.121211356466842 54.8,14.15788012618302 55,14.727066246056832 C 55.2,15.296252365930645 54.8,16.488681388012537 55,17.94220820189267 C 55.2,19.3957350157728 55.6,21.41193690851741 56,21.994700315457486 C 56.4,22.57746372239756 56.8,20.847798107255514 57,20.856025236593034 C 57.2,20.864252365930554 56.8,21.58344479495265 57,22.035835962145086 C 57.2,22.48822712933752 57.6,23.306094637223968 58,23.117981072555203 C 58.4,22.92986750788644 58.6,21.606410094637216 59,21.09526813880126 C 59.4,20.584126182965303 59.8,20.625009463722424 60,20.562271293375417 C 60.2,20.49953312302841 59.8,20.21784227129336 60,20.78157728706622 C 60.2,21.34531230283908 60.6,21.937261829652968 61,23.380946372239723 C 61.4,24.82463091482648 61.8,27.69993690851735 62,28 C 62.2,28.30006309148265 61.8,25.643457413249173 62,24.881261829652974 C 62.2,24.119066246056775 62.6,24.605880126183028 63,24.189022082019 C 63.4,23.772164037854974 63.8,22.549652996845452 64,22.796971608832834 C 64.2,23.044290220820216 63.8,25.59671924290228 64,25.42561514195591 C 64.2,25.254511041009536 64.6,23.02526182965305 65,21.94145110410097 C 65.4,20.85764037854889 65.8,20.364517350157676 66,20.00656151419551 C 66.2,19.648605678233345 65.8,19.900012618296444 66,20.151671924290145 C 66.2,20.403331230283847 66.6,21.55346372239743 67,21.26485804416401 C 67.4,20.97625236593059 67.8,19.134132492113586 68,18.708643533123052 C 68.2,18.283154574132517 67.8,19.353539432176653 68,19.137413249211335 C 68.2,18.921287066246016 68.6,18.02998107255512 69,17.628012618296456 C 69.4,17.22604416403779 69.6,17.285047318611987 70,17.127570977918005 C 70.4,16.970094637224022 70.8,16.657463722397537 71,16.840630914826548 C 71.2,17.02379810725556 70.8,17.941854889589884 71,18.043406940063065 C 71.2,18.144958990536246 71.6,17.80850473186121 72,17.348391167192453 C 72.4,16.888277602523697 72.8,15.840302839116777 73,15.742839116719292 C 73.2,15.645375394321807 72.8,16.738776025236564 73,16.861072555205023 C 73.2,16.983369085173482 73.6,16.611381703470112 74,16.35432176656159 C 74.4,16.097261829653068 74.8,15.624227129337516 75,15.575772870662412 C 75.2,15.527318611987308 74.8,15.647192429022011 75,16.112050473186073 C 75.2,16.576908517350137 75.6,17.89880126182973 76,17.900063091482725 C 76.4,17.90132492113572 76.8,16.4986246056782 77,16.118359621451056 C 77.2,15.738094637223911 76.8,15.966182965299685 77,15.998738170347004 C 77.2,16.031293375394323 77.6,16.017059936908474 78,16.28113564668765 C 78.4,16.545211356466822 78.6,16.636921135646652 79,17.319116719242878 C 79.4,18.001312302839104 79.8,19.39846056782334 80,19.69211356466877 C 80.2,19.9857665615142 79.8,19.21781703470032 80,18.787381703470032 C 80.2,18.356946372239744 80.6,18.02064353312302 81,17.539936908517326 C 81.4,17.05923028391163 81.8,16.669425867507815 82,16.383848580441565 C 82.2,16.098271293375316 81.8,16.035230283911606 82,16.112050473186073 C 82.2,16.18887066246054 82.6,16.756895899053642 83,16.767949526813908 C 83.4,16.779003154574173 83.8,15.706649842271322 84,16.167318611987405 C 84.2,16.627987381703488 83.8,18.844214511041017 84,19.07129337539432 C 84.2,19.29837223974762 84.6,17.828996845425834 85,17.302712933753917 C 85.4,16.776429022082 85.8,17.54912302839119 86,16.439873817034726 C 86.2,15.330624605678265 85.8,12.717981072555204 86,11.756466876971608 C 86.2,10.794952681388011 86.6,12.263419558359637 87,11.632302839116743 C 87.4,11.001186119873852 87.8,8.956365930599423 88,8.600883280757147 C 88.2,8.24540063091487 87.8,9.213728706624625 88,9.854889589905362 C 88.2,10.496050473186099 88.6,11.085324921135602 89,11.806687697160834 C 89.4,12.528050473186067 89.6,12.827406940063073 90,13.461703470031521 C 90.4,14.09599999999997 90.8,15.178750788643448 91,14.97817034700308 C 91.2,14.77758990536271 90.8,12.909324921135656 91,12.458801261829677 C 91.2,12.008277602523698 91.6,12.96171608832809 92,12.725552050473187 C 92.4,12.489388012618283 92.8,11.821274447949467 93,11.277981072555155 C 93.2,10.734687697160844 92.8,10.294258675078913 93,10.009085173501626 C 93.2,9.72391167192434 93.6,9.570876971608788 94,9.85211356466872 C 94.4,10.133350157728652 94.8,11.027331230283925 95,11.415268138801286 C 95.2,11.803205047318647 94.8,11.65769085173502 95,11.79179810725552 C 95.2,11.92590536277602 95.6,12.311924290220821 96,12.085804416403786 C 96.4,11.85968454258675 96.8,11.244971608832792 97,10.661198738170347 C 97.2,10.077425867507902 96.8,9.786952681388078 97,9.166940063091557 C 97.2,8.546927444795037 97.6,7.596063091482718 98,7.561135646687746 C 98.4,7.526208201892774 98.8,8.706069400630906 99,8.992302839116695" class="SparkLine__Path-sc-9wg5ja-1 kDnVnu"></path></svg>