<svg viewBox="0 0 100 32" version="1.1" xmlns="http://www.w3.org/2000/svg" preserveAspectRatio="none" class="SparkLine__Svg-sc-9wg5ja-0 cdfFYq"><path d="M 0,25.232758620689665 C 1.2352040991399791e-17,25.434482758620696 -7.411224594839874e-17,25.837931034482757 0,26.24137931034482 C 2.4704081982799582e-17,26.64482758620688 -0.20000000000000004,27.162068965517214 0,27.24999999999997 C 0.20000000000000004,27.33793103448273 0.8,27.198275862068947 1,26.6810344827586 C 1.2,26.163793103448256 1,25.677586206896517 1,24.66379310344825 C 1,23.64999999999998 0.8,22.64396551724138 1,21.612068965517253 C 1.2,20.580172413793125 1.8,19.698275862068996 2,19.50431034482762 C 2.2,19.310344827586242 2,20.096551724137964 2,20.64224137931036 C 2,21.187931034482755 1.7999999999999998,21.875862068965464 2,22.232758620689598 C 2.2,22.58965517241373 2.8,22.012931034482744 3,22.42672413793103 C 3.2,22.840517241379313 3,24.257758620689643 3,24.301724137931025 C 3,24.345689655172407 2.8000000000000003,23.996551724137944 3,22.646551724137943 C 3.2,21.29655172413794 3.8,18.85775862068963 4,17.55172413793101 C 4.2,16.24568965517239 4,16.708620689655188 4,16.116379310344843 C 4,15.5241379310345 3.8000000000000003,14.859482758620683 4,14.590517241379295 C 4.2,14.321551724137908 4.8,14.285344827586176 5,14.771551724137906 C 5.2,15.257758620689636 5,16.6646551724138 5,17.021551724137943 C 5,17.378448275862088 4.8,16.625862068965517 5,16.556034482758626 C 5.2,16.486206896551735 5.8,16.245689655172455 6,16.67241379310349 C 6.2,17.099137931034527 6,18.46982758620691 6,18.689655172413797 C 6,18.909482758620683 5.8,17.846551724137925 6,17.771551724137925 C 6.2,17.696551724137926 6.8,18.550000000000008 7,18.314655172413808 C 7.2,18.079310344827608 7,17.40431034482763 7,16.594827586206932 C 7,15.785344827586236 6.8,15.506034482758615 7,14.267241379310331 C 7.2,13.028448275862047 7.8,11.13275862068965 8,10.400862068965516 C 8.2,9.668965517241382 7.8,10.400862068965525 8,10.607758620689662 C 8.2,10.814655172413799 8.8,11.435344827586205 9,11.435344827586205 C 9.2,11.435344827586205 9,10.646551724137948 9,10.607758620689662 C 9,10.568965517241375 8.8,11.360344827586157 9,11.241379310344776 C 9.2,11.122413793103394 9.8,10.12672413793103 10,10.012931034482756 C 10.2,9.899137931034483 10,10.356896551724091 10,10.672413793103406 C 10,10.98793103448272 9.799999999999999,11.106896551724152 10,11.590517241379327 C 10.2,12.074137931034503 10.8,12.731034482758599 11,13.090517241379287 C 11.2,13.449999999999974 11,13.056896551724138 11,13.387931034482765 C 11,13.718965517241392 10.8,14.585344827586209 11,14.74568965517242 C 11.2,14.906034482758631 11.8,14.468965517241411 12,14.189655172413818 C 12.2,13.910344827586226 12,13.131896551724125 12,13.34913793103446 C 12,13.566379310344793 11.8,15.281034482758582 12,15.275862068965484 C 12.2,15.270689655172387 12.8,13.59224137931034 13,13.323275862068972 C 13.2,13.054310344827604 13,13.333620689655206 13,13.931034482758646 C 13,14.528448275862086 12.8,15.762068965517201 13,16.31034482758617 C 13.2,16.85862068965514 13.8,16.700862068965563 14,16.67241379310349 C 14.2,16.64396551724142 14,16.26120689655169 14,16.16810344827582 C 14,16.074999999999946 13.8,16.124137931034465 14,16.206896551724125 C 14.2,16.289655172413784 14.8,16.597413793103417 15,16.581896551724114 C 15.2,16.56637931034481 15,16.12931034482761 15,16.12931034482761 C 15,16.12931034482761 14.8,16.561206896551703 15,16.581896551724114 C 15.2,16.602586206896525 15.8,16.258620689655167 16,16.23275862068966 C 16.2,16.20689655172415 15.8,16.40086206896555 16,16.452586206896576 C 16.2,16.5043103448276 16.8,16.563793103448248 17,16.491379310344783 C 17.2,16.41896551724132 17,15.723275862068908 17,16.090517241379256 C 17,16.457758620689606 16.8,17.727586206896515 17,18.327586206896527 C 17.2,18.92758620689654 17.8,19.375000000000014 18,19.090517241379324 C 18.2,18.806034482758633 18,17.068103448275842 18,16.90517241379308 C 18,16.742241379310315 17.8,18.138793103448254 18,18.275862068965502 C 18.2,18.41293103448275 18.8,17.53620689655173 19,17.590517241379317 C 19.2,17.644827586206905 19,18.405172413793096 19,18.54741379310344 C 19,18.689655172413786 18.8,18.653448275862075 19,18.30172413793104 C 19.2,17.950000000000003 19.8,17.199999999999992 20,16.78879310344826 C 20.2,16.377586206896527 20,16.346551724137893 20,16.245689655172377 C 20,16.144827586206862 19.8,16.610344827586193 20,16.284482758620683 C 20.2,15.958620689655174 20.8,14.66293103448276 21,14.616379310344833 C 21.2,14.569827586206905 21,15.950862068965545 21,16.05172413793105 C 21,16.152586206896554 20.8,15.097413793103406 21,15.12068965517236 C 21.2,15.143965517241313 21.8,16.250862068965468 22,16.16810344827582 C 22.2,16.08534482758617 22,15.032758620689624 22,14.706896551724114 C 22,14.381034482758604 21.8,14.375862068965516 22,14.53879310344827 C 22.2,14.701724137931025 22.8,15.356034482758577 23,15.521551724137886 C 23.2,15.687068965517195 23,15.405172413793078 23,15.366379310344813 C 23,15.327586206896548 22.8,15.612068965517247 23,15.327586206896557 C 23.2,15.043103448275867 23.8,14.58017241379308 24,13.943965517241365 C 24.2,13.307758620689649 23.8,12.38448275862074 24,12.146551724137977 C 24.2,11.908620689655214 24.8,12.539655172413765 25,12.754310344827553 C 25.2,12.968965517241342 25,13.227586206896563 25,13.219827586206922 C 25,13.21206896551728 24.8,12.956034482758662 25,12.715517241379347 C 25.2,12.475000000000032 25.8,11.869827586206899 26,12.017241379310342 C 26.2,12.164655172413784 26,13.137068965517242 26,13.452586206896557 C 26,13.768103448275872 25.8,13.600000000000017 26,13.594827586206911 C 26.2,13.589655172413805 26.8,13.297413793103434 27,13.426724137931021 C 27.2,13.556034482758609 27,13.956896551724153 27,14.241379310344843 C 27,14.525862068965534 26.8,14.62672413793103 27,14.84913793103447 C 27.2,15.07155172413791 27.8,15.237068965517217 28,15.353448275862045 C 28.2,15.469827586206872 28,15.480172413793087 28,15.431034482758605 C 28,15.381896551724124 27.8,14.965517241379295 28,15.10775862068964 C 28.2,15.249999999999986 28.8,15.878448275862048 29,16.142241379310327 C 29.2,16.406034482758606 29,16.431896551724137 29,16.42672413793104 C 29,16.42155172413794 28.8,16.240517241379322 29,16.116379310344843 C 29.2,15.992241379310364 29.8,15.842241379310378 30,15.806034482758646 C 30.2,15.769827586206913 30,15.984482758620672 30,15.935344827586182 C 30,15.886206896551691 29.8,15.578448275862058 30,15.560344827586192 C 30.2,15.542241379310326 30.8,15.795689655172362 31,15.844827586206852 C 31.2,15.893965517241343 31,15.901724137931053 31,15.806034482758646 C 31,15.710344827586239 30.8,15.531896551724122 31,15.366379310344813 C 31.2,15.200862068965504 31.8,14.776724137931065 32,14.978448275862105 C 32.2,15.180172413793144 32,16.60000000000002 32,16.375000000000014 C 32,16.15000000000001 31.8,14.15603448275864 32,13.853448275862085 C 32.2,13.55086206896553 32.8,14.665517241379304 33,14.862068965517237 C 33.2,15.05862068965517 32.8,15.006896551724157 33,14.83620689655175 C 33.2,14.665517241379344 33.8,14.748275862069011 34,14.008620689655206 C 34.2,13.268965517241401 34,11.931896551724108 34,11.137931034482726 C 34,10.343965517241344 33.8,10.20431034482759 34,10.038793103448292 C 34.2,9.873275862068994 34.8,10.349137931034518 35,10.310344827586233 C 35.2,10.271551724137948 35,9.506034482758597 35,9.844827586206865 C 35,10.183620689655132 34.8,11.670689655172392 35,12.004310344827573 C 35.2,12.337931034482754 35.8,11.65517241379311 36,11.512931034482765 C 36.2,11.37068965517242 36,11.101724137931015 36,11.29310344827585 C 36,11.484482758620686 35.8,12.472413793103486 36,12.469827586206943 C 36.2,12.4672413793104 36.8,11.559482758620733 37,11.280172413793132 C 37.2,11.00086206896553 37,11.339655172413776 37,11.073275862068932 C 37,10.806896551724089 36.8,10.206896551724087 37,9.948275862068915 C 37.2,9.689655172413742 37.8,9.32758620689652 38,9.780172413793071 C 38.2,10.232758620689623 38,11.96034482758615 38,12.211206896551671 C 38,12.462068965517192 37.8,11.326724137931016 38,11.034482758620676 C 38.2,10.742241379310336 38.8,10.863793103448241 39,10.749999999999968 C 39.2,10.636206896551695 39,11.32155172413793 39,10.465517241379308 C 39,9.609482758620686 38.8,7.227586206896507 39,6.469827586206856 C 39.2,5.712068965517205 39.8,7.170689655172424 40,6.676724137931053 C 40.2,6.1827586206896825 40,4.256034482758628 40,4 C 40,3.7439655172413717 39.8,4.5560344827586015 40,5.396551724137911 C 40.2,6.237068965517221 40.8,7.191379310344814 41,8.20258620689655 C 41.2,9.213793103448285 40.8,10.325862068965545 41,10.452586206896587 C 41.2,10.579310344827629 41.8,9.257758620689698 42,8.836206896551762 C 42.2,8.414655172413825 42,8.168965517241391 42,8.344827586206904 C 42,8.520689655172417 41.8,9.371551724137952 42,9.715517241379327 C 42.2,10.059482758620703 42.8,9.963793103448266 43,10.064655172413781 C 43.2,10.165517241379296 43,10.17586206896552 43,10.219827586206904 C 43,10.263793103448288 42.8,9.963793103448277 43,10.284482758620697 C 43.2,10.605172413793118 43.8,11.487068965517299 44,11.823275862069012 C 44.2,12.159482758620726 44,11.908620689655145 44,11.965517241379267 C 44,12.02241379310339 43.8,11.743103448275816 44,12.107758620689621 C 44.2,12.472413793103426 44.8,13.2043103448276 45,13.788793103448292 C 45.2,14.373275862068983 45,14.789655172413772 45,15.030172413793078 C 45,15.270689655172385 44.8,15.094827586206883 45,14.991379310344824 C 45.2,14.887931034482765 45.8,14.668103448275888 46,14.512931034482785 C 46.2,14.357758620689681 46,14.210344827586209 46,14.215517241379306 C 46,14.220689655172404 45.8,14.613793103448268 46,14.53879310344827 C 46.2,14.463793103448273 46.8,13.943965517241386 47,13.840517241379317 C 47.2,13.737068965517247 47,13.990517241379312 47,14.021551724137927 C 47,14.052586206896542 46.8,13.879310344827562 47,13.99568965517239 C 47.2,14.112068965517217 47.8,14.652586206896546 48,14.603448275862064 C 48.2,14.554310344827583 48,13.902586206896535 48,13.749999999999986 C 48,13.597413793103437 47.8,13.333620689655177 48,13.840517241379317 C 48.2,14.347413793103456 48.8,15.811206896551722 49,16.284482758620683 C 49.2,16.757758620689646 48.8,17.026724137931023 49,16.206896551724125 C 49.2,15.387068965517225 49.8,12.780172413793082 50,12.185344827586185 C 50.2,11.590517241379288 50,12.581034482758612 50,13.23275862068964 C 50,13.884482758620669 49.8,14.993965517241316 50,15.443965517241324 C 50.2,15.893965517241332 50.8,15.671551724137942 51,15.48275862068968 C 51.2,15.293965517241418 51,14.696551724137949 51,14.500000000000016 C 51,14.303448275862083 50.8,14.608620689655192 51,14.500000000000016 C 51.2,14.39137931034484 51.8,14.083620689655168 52,13.956896551724135 C 52.2,13.830172413793102 52,13.742241379310364 52,13.866379310344852 C 52,13.99051724137934 51.8,14.528448275862095 52,14.577586206896576 C 52.2,14.626724137931058 52.8,14.006034482758643 53,14.112068965517256 C 53.2,14.218103448275869 53,15.462068965517231 53,15.10775862068964 C 53,14.75344827586205 52.8,12.749137931034474 53,12.340517241379306 C 53.2,11.931896551724138 53.8,12.656034482758631 54,13.0646551724138 C 54.2,13.47327586206897 54,14.277586206896528 54,14.38362068965515 C 54,14.489655172413771 53.8,13.67758620689656 54,13.594827586206911 C 54.2,13.512068965517262 54.8,13.87155172413793 55,13.969827586206902 C 55.2,14.068103448275874 55,13.902586206896595 55,14.08620689655177 C 55,14.269827586206945 54.8,14.56465517241381 55,14.887931034482774 C 55.2,15.211206896551738 55.8,15.242241379310393 56,15.702586206896596 C 56.2,16.1629310344828 56,16.67241379310344 56,17.189655172413786 C 56,17.70689655172413 55.8,17.49741379310349 56,18.28879310344832 C 56.2,19.08017241379315 56.8,20.735344827586225 57,21.146551724137936 C 57.2,21.557758620689647 57,20.47672413793102 57,20.34482758620688 C 57,20.21293103448274 56.8,19.946551724137926 57,20.487068965517235 C 57.2,21.027586206896544 57.8,22.390517241379285 58,23.04741379310342 C 58.2,23.704310344827555 57.8,23.926724137931007 58,23.771551724137915 C 58.2,23.616379310344822 58.8,21.98965517241381 59,22.271551724137954 C 59.2,22.5534482758621 59,25.07758620689658 59,25.18103448275864 C 59,25.2844827586207 58.8,23.49999999999997 59,22.78879310344825 C 59.2,22.077586206896527 59.8,21.940517241379325 60,21.62500000000002 C 60.2,21.309482758620717 60,21.286206896551732 60,21.211206896551726 C 60,21.13620689655172 59.8,21.159482758620687 60,21.249999999999986 C 60.2,21.340517241379285 60.8,21.552586206896507 61,21.663793103448228 C 61.2,21.77499999999995 61,21.503448275862027 61,21.806034482758584 C 61,22.10862068965514 60.8,22.853448275862043 61,23.176724137931007 C 61.2,23.49999999999997 61.8,22.902586206896512 62,23.42241379310341 C 62.2,23.942241379310307 62,25.62327586206894 62,25.7758620689655 C 62,25.928448275862056 61.8,24.1801724137931 62,24.185344827586206 C 62.2,24.190517241379315 62.8,25.881896551724132 63,25.801724137931036 C 63.2,25.72155172413794 63,24.65344827586211 63,23.78448275862073 C 63,22.915517241379348 62.8,21.648275862068967 63,21.45689655172413 C 63.2,21.265517241379296 63.8,22.08793103448276 64,22.827586206896555 C 64.2,23.56724137931035 64,24.503448275862077 64,25.155172413793103 C 64,25.80689655172413 63.8,26.499999999999968 64,26.086206896551694 C 64.2,25.67241379310342 64.8,22.703448275862065 65,23.086206896551726 C 65.2,23.468965517241386 65,27.565517241379315 65,28 C 65,28.434482758620685 64.8,26.254310344827566 65,25.258620689655153 C 65.2,24.26293103448274 65.8,23.324137931034493 66,23.021551724137936 C 66.2,22.71896551724138 65.8,23.647413793103418 66,23.745689655172377 C 66.2,23.843965517241337 66.8,23.21551724137928 67,23.51293103448274 C 67.2,23.8103448275862 67,24.746551724137944 67,25.232758620689665 C 67,25.718965517241386 66.8,25.94396551724134 67,25.94396551724134 C 67.2,25.94396551724134 67.8,25.871551724137934 68,25.232758620689665 C 68.2,24.593965517241397 68,23.2698275862069 68,22.749999999999993 C 68,22.230172413793085 67.8,22.24051724137927 68,22.633620689655125 C 68.2,23.02672413793098 68.8,24.513793103448233 69,24.715517241379274 C 69.2,24.917241379310315 69,23.60862068965515 69,23.642241379310327 C 69,23.675862068965504 68.8,24.612068965517224 69,24.883620689655164 C 69.2,25.155172413793103 69.8,25.27155172413797 70,25.000000000000032 C 70.2,24.728448275862092 70,23.787068965517197 70,23.52586206896546 C 70,23.264655172413722 69.8,23.812931034482723 70,23.693965517241352 C 70.2,23.57499999999998 70.8,22.959482758620666 71,22.931034482758605 C 71.2,22.902586206896544 71,23.494827586206906 71,23.551724137931046 C 71,23.608620689655186 70.8,23.28275862068966 71,23.215517241379313 C 71.2,23.148275862068967 71.8,23.293103448275865 72,23.215517241379313 C 72.2,23.13793103448276 72,23.016379310344828 72,22.827586206896555 C 72,22.638793103448283 71.8,22.65689655172416 72,22.271551724137954 C 72.2,21.886206896551748 72.8,21.146551724137943 73,20.90086206896553 C 73.2,20.655172413793117 73,20.965517241379334 73,21.043103448275886 C 73,21.120689655172438 72.8,21.182758620689675 73,21.28879310344829 C 73.2,21.3948275862069 73.8,21.56810344827585 74,21.573275862068947 C 74.2,21.578448275862044 73.8,21.247413793103437 74,21.314655172413776 C 74.2,21.381896551724115 74.8,21.891379310344767 75,21.909482758620634 C 75.2,21.9275862068965 75,21.4698275862069 75,21.405172413793107 C 75,21.340517241379313 74.8,21.552586206896496 75,21.586206896551666 C 75.2,21.619827586206835 75.8,21.702586206896534 76,21.573275862068947 C 76.2,21.44396551724136 76,20.81034482758615 76,20.939655172413737 C 76,21.068965517241324 75.8,22.30517241379308 76,22.21982758620688 C 76.2,22.134482758620678 76.8,20.61637931034479 77,20.512931034482722 C 77.2,20.409482758620655 77,21.335344827586184 77,21.702586206896534 C 77,22.069827586206884 76.8,22.274137931034467 77,22.349137931034466 C 77.2,22.424137931034466 77.8,21.98448275862065 78,22.077586206896523 C 78.2,22.170689655172396 78,22.739655172413837 78,22.814655172413836 C 78,22.889655172413836 77.8,22.248275862068937 78,22.452586206896513 C 78.2,22.65689655172409 78.8,23.743103448275832 79,23.836206896551708 C 79.2,23.929310344827584 79,23.037068965517257 79,22.918103448275886 C 79,22.799137931034515 78.8,22.858620689655197 79,23.241379310344847 C 79.2,23.624137931034497 79.8,24.44396551724138 80,24.83189655172414 C 80.2,25.219827586206897 80,25.15258620689658 80,25.18103448275864 C 80,25.2094827586207 79.8,25.018103448275827 80,24.974137931034445 C 80.2,24.930172413793063 80.8,24.96379310344827 81,24.961206896551726 C 81.2,24.95862068965518 81,24.875862068965525 81,24.961206896551726 C 81,25.046551724137927 80.8,25.439655172413776 81,25.38793103448274 C 81.2,25.336206896551705 81.8,24.98448275862069 82,24.702586206896555 C 82.2,24.42068965517242 82,24.174999999999994 82,23.97844827586206 C 82,23.781896551724127 81.8,23.807758620689647 82,23.71982758620689 C 82.2,23.631896551724132 82.8,23.543965517241386 83,23.538793103448278 C 83.2,23.53362068965517 82.8,23.626724137931006 83,23.693965517241352 C 83.2,23.7612068965517 83.8,24.001724137931035 84,23.87500000000001 C 84.2,23.748275862068986 84,22.72931034482762 84,23.06034482758624 C 84,23.391379310344856 83.8,24.808620689655175 84,25.530172413793093 C 84.2,26.25172413793101 84.8,26.525862068965488 85,26.668103448275833 C 85.2,26.810344827586178 85,26.497413793103437 85,26.24137931034482 C 85,25.9853448275862 84.8,25.752586206896535 85,25.38793103448274 C 85.2,25.023275862068946 85.8,24.725862068965505 86,24.418103448275843 C 86.2,24.110344827586182 86,24.418103448275808 86,23.849137931034427 C 86,23.280172413793046 85.8,22.002586206896524 86,21.573275862068947 C 86.2,21.14396551724137 86.8,21.56810344827584 87,21.702586206896534 C 87.2,21.83706896551723 87,22.305172413793102 87,22.245689655172416 C 87,22.18620689655173 86.8,21.493103448275875 87,21.405172413793107 C 87.2,21.31724137931034 87.8,21.875862068965485 88,21.806034482758584 C 88.2,21.736206896551682 88,21.244827586206878 88,21.056034482758605 C 88,20.867241379310332 87.8,20.968103448275848 88,20.862068965517224 C 88.2,20.7560344827586 88.8,20.618965517241346 89,20.52586206896549 C 89.2,20.432758620689636 89,20.31637931034485 89,20.396551724137954 C 89,20.476724137931058 88.8,20.71206896551723 89,20.926724137931018 C 89.2,21.141379310344806 89.8,21.28362068965517 90,21.469827586206897 C 90.2,21.656034482758624 90,21.689655172413804 90,21.85775862068966 C 90,22.025862068965512 89.8,21.904310344827536 90,22.31034482758616 C 90.2,22.716379310344784 90.8,23.681034482758633 91,23.88793103448278 C 91.2,24.094827586206925 90.8,23.77155172413794 91,23.344827586206897 C 91.2,22.918103448275854 91.8,22.13706896551722 92,21.75431034482756 C 92.2,21.3715517241379 92,21.43620689655169 92,21.43103448275859 C 92,21.425862068965493 91.8,21.844827586206897 92,21.72844827586207 C 92.2,21.612068965517246 92.8,20.784482758620662 93,20.849137931034456 C 93.2,20.91379310344825 93,22.08534482758621 93,22.05172413793104 C 93,22.01810344827587 92.8,20.856896551724134 93,20.681034482758612 C 93.2,20.50517241379309 93.8,21.08706896551722 94,21.172413793103424 C 94.2,21.25775862068963 94,21.32241379310342 94,21.10775862068963 C 94,20.89310344827584 93.8,20.417241379310337 94,20.099137931034477 C 94.2,19.781034482758617 94.8,19.558620689655168 95,19.517241379310338 C 95.2,19.475862068965508 95,20.119827586206874 95,19.892241379310327 C 95,19.66465517241378 94.8,18.46724137931036 95,18.3793103448276 C 95.2,18.291379310344844 95.8,19.13706896551724 96,19.452586206896544 C 96.2,19.76810344827585 96,19.897413793103425 96,19.95689655172412 C 96,20.016379310344817 95.8,19.80948275862071 96,19.750000000000025 C 96.2,19.69051724137934 96.8,19.610344827586214 97,19.659482758620694 C 97.2,19.708620689655174 97,20.0189655172414 97,19.995689655172427 C 97,19.972413793103453 96.8,19.786206896551686 97,19.543103448275826 C 97.2,19.299999999999965 97.8,19.10086206896554 98,18.780172413793128 C 98.2,18.459482758620716 98,18.3508620689655 98,17.93965517241377 C 98,17.528448275862036 97.8,17.130172413793083 98,16.72413793103447 C 98.2,16.318103448275856 98.8,15.937931034482766 99,15.909482758620694 C 99.2,15.881034482758622 99,16.44741379310343 99,16.581896551724114" class="SparkLine__Path-sc-9wg5ja-1 kDnVnu"></path></svg>