<svg width="64" height="64" viewBox="0 0 64 64" fill="none" alt="Dublin, Ireland illustration" class="Cards__iconStyle-sc-1np73mb-4 cwIGzX"><path d="M32 40.5c-11.046 0-20 4-20 4v6s8.954-4 20-4 20 4 20 4v-6s-8.954-4-20-4z" fill="#D4EEFF"></path><path d="M36.5 59h-9l4-54h1l4 54z" fill="#56B4FC"></path><path d="M28.862 40.615l-.447 6.029A47.489 47.489 0 0132 46.5c1.226 0 2.42.056 3.585.143l-.447-6.029A47.926 47.926 0 0032 40.5c-1.07 0-2.113.047-3.138.115zM15 41.5H0V59h15V41.5zM3 39.5H0v2h3v-2zM9 39.5H6v2h3v-2zM15 39.5h-3v2h3v-2zM64 41.5H49V59h15V41.5zM52 39.5h-3v2h3v-2zM58 39.5h-3v2h3v-2zM64 39.5h-3v2h3v-2z" fill="#1652F0"></path></svg>