<svg fill="none" height="600" viewBox="0 0 1441 600" width="1441" xmlns="http://www.w3.org/2000/svg" xmlns:xlink="http://www.w3.org/1999/xlink"><linearGradient id="a" gradientUnits="userSpaceOnUse" x1="1441" x2="1" y1="300" y2="300"><stop offset="0" stop-color="#0b283f"/><stop offset=".4938" stop-color="#133578"/><stop offset="1" stop-color="#0b283f"/></linearGradient><clipPath id="b"><path d="m0 0h1441v600h-1441z"/></clipPath><g clip-path="url(#b)"><path d="m1441 0h-1440v600h1440z" fill="#135"/><path d="m1441 0h-1440v600h1440z" fill="url(#a)" opacity=".5"/><g opacity=".4"><path d="m1131.04 290.25-2.17 2.16 2.17 2.17-1.42 1.41-2.16-2.16-2.17 2.16-1.41-1.41 2.16-2.17-2.16-2.16 1.41-1.42 2.17 2.17 2.16-2.17z" fill="#0b283f"/><path d="m1028.75 538.2h-3.06v-3.07h-2v3.07h-3.06v2h3.06v3.06h2v-3.06h3.06z" fill="#fff"/><path d="m1331.24 216.42-2.16 2.17-2.17-2.17-1.41 1.41 2.16 2.17-2.16 2.17 1.41 1.41 2.17-2.17 2.16 2.17 1.42-1.41-2.17-2.17 2.17-2.16z" fill="#fff"/><path d="m1249.27 363.05v3.06h-3.07v2h3.07v3.06h2v-3.06h3.06v-2h-3.06v-3.06z" fill="#0b283f"/><path d="m1416.14 271h-3.06v-3.06h-2v3.06h-3.06v2h3.06v3.06h2v-3.06h3.06z" fill="#0b283f"/><path d="m1352.42 390.16h-3.07v-3.06h-2v3.06h-3.06v2h3.06v3.06h2v-3.06h3.07z" fill="#fff"/><path d="m1393.69 58.65h-3.06v-3.06h-2v3.06h-3.06v2h3.06v3.06h2v-3.06h3.06z" fill="#fff"/><path d="m1230.25 182.81h-3.07v-3.06h-2v3.06h-3.06v2h3.06v3.07h2v-3.07h3.07z" fill="#0b283f"/><path d="m1095.35 159.23-2.17 2.17-2.16-2.17-1.42 1.42 2.17 2.16-2.17 2.17 1.42 1.41 2.16-2.16 2.17 2.16 1.41-1.41-2.16-2.17 2.16-2.16z" fill="#fff"/><path d="m842.25 95.81h-3.07v-3.06h-2v3.06h-3.06v2h3.06v3.07h2v-3.07h3.07z" fill="#fff"/><path d="m1038.75 263.1h-3.06v-3.06h-2v3.06h-3.06v2h3.06v3.06h2v-3.06h3.06z" fill="#0b283f"/><path d="m1093.02 398h-3.06v-3.06h-2v3.06h-3.07v2h3.07v3.06h2v-3.06h3.06z" fill="#fff"/><path d="m988.02 354h-3.06v-3.06h-2v3.06h-3.07v2h3.07v3.06h2v-3.06h3.06z" fill="#0b283f"/><path d="m1033.67 162.54c.55 0 1-.448 1-1s-.45-1-1-1-1 .448-1 1 .45 1 1 1z" fill="#0b283f"/><path d="m970 135c.552 0 1-.448 1-1s-.448-1-1-1-1 .448-1 1 .448 1 1 1z" fill="#fff"/><path d="m1061.85 191c.55 0 1-.448 1-1s-.45-1-1-1-1 .448-1 1 .45 1 1 1z" fill="#fff"/><path d="m1216.84 108.14c.55 0 1-.448 1-1s-.45-1-1-1-1 .448-1 1 .45 1 1 1z" fill="#fff"/><path d="m1266.55 142.38c.55 0 1-.448 1-1s-.45-1-1-1-1 .448-1 1 .45 1 1 1z" fill="#0b283f"/><path d="m1290.62 85.53c.55 0 1-.4477 1-1s-.45-1-1-1-1 .4477-1 1 .45 1 1 1z" fill="#0b283f"/><path d="m959 261.67c.552 0 1-.448 1-1s-.448-1-1-1-1 .448-1 1 .448 1 1 1z" fill="#fff"/><path d="m991 282.33c.552 0 1-.448 1-1s-.448-1-1-1-1 .448-1 1 .448 1 1 1z" fill="#0b283f"/><path d="m1095.31 254.67c.55 0 1-.448 1-1s-.45-1-1-1-1 .448-1 1 .45 1 1 1z" fill="#fff"/><path d="m1077.79 361.37c.55 0 1-.448 1-1s-.45-1-1-1-1 .448-1 1 .45 1 1 1z" fill="#fff"/><path d="m991.87 427.48c.552 0 1-.448 1-1s-.448-1-1-1-1 .448-1 1 .448 1 1 1z" fill="#fff"/><path d="m1020.63 395c.55 0 1-.448 1-1s-.45-1-1-1-1 .448-1 1 .45 1 1 1z" fill="#fff"/><path d="m1069.08 296.84c.55 0 1-.448 1-1s-.45-1-1-1-1 .448-1 1 .45 1 1 1z" fill="#fff"/><path d="m1006.08 236.06c.55 0 1-.448 1-1s-.45-1-1-1-1 .448-1 1 .45 1 1 1z" fill="#fff"/><path d="m1021.63 100.83c.55 0 1-.448 1-1 0-.5523-.45-1-1-1s-1 .4477-1 1c0 .552.45 1 1 1z" fill="#0b283f"/><path d="m936.56 83.67c.552 0 1-.4477 1-1s-.448-1-1-1-1 .4477-1 1 .448 1 1 1z" fill="#0b283f"/><path d="m988.65 45.95c.552 0 1-.4477 1-1s-.448-1-1-1-1 .4477-1 1 .448 1 1 1z" fill="#fff"/><path d="m1087.31 99.05c.55 0 1-.4477 1-1s-.45-1-1-1-1 .4477-1 1 .45 1 1 1z" fill="#fff"/><path d="m1164.36 219.57c.55 0 1-.448 1-1s-.45-1-1-1-1 .448-1 1 .45 1 1 1z" fill="#fff"/><path d="m1281.5 258.41c.55 0 1-.448 1-1s-.45-1-1-1-1 .448-1 1 .45 1 1 1z" fill="#0b283f"/><path d="m1181.99 316.39c.55 0 1-.448 1-1s-.45-1-1-1-1 .448-1 1 .45 1 1 1z" fill="#fff"/><path d="m1223.46 338.96c.55 0 1-.448 1-1s-.45-1-1-1-1 .448-1 1 .45 1 1 1z" fill="#fff"/><path d="m1198.44 391.26c.55 0 1-.448 1-1s-.45-1-1-1-1 .448-1 1 .45 1 1 1z" fill="#fff"/><path d="m1314.85 441.82c.55 0 1-.448 1-1s-.45-1-1-1-1 .448-1 1 .45 1 1 1z" fill="#fff"/><path d="m1337.09 475.59c.55 0 1-.448 1-1s-.45-1-1-1-1 .448-1 1 .45 1 1 1z" fill="#0b283f"/><g fill="#fff"><path d="m1391.21 463.61c.55 0 1-.448 1-1s-.45-1-1-1-1 .448-1 1 .45 1 1 1z"/><path d="m1394.69 312.31c.55 0 1-.448 1-1s-.45-1-1-1-1 .448-1 1 .45 1 1 1z"/><path d="m1334.14 344.87c.55 0 1-.448 1-1s-.45-1-1-1-1 .448-1 1 .45 1 1 1z"/><path d="m1349.35 265.72c.55 0 1-.448 1-1s-.45-1-1-1-1 .448-1 1 .45 1 1 1z"/><path d="m1283.5 322.04c.55 0 1-.448 1-1s-.45-1-1-1-1 .448-1 1 .45 1 1 1z"/><path d="m1334.14 145.7c.55 0 1-.448 1-1s-.45-1-1-1-1 .448-1 1 .45 1 1 1z"/><path d="m1284.5 201.03c.55 0 1-.448 1-1s-.45-1-1-1-1 .448-1 1 .45 1 1 1z"/><path d="m1330.08 50.01c.55 0 1-.4477 1-1s-.45-1-1-1-1 .4477-1 1 .45 1 1 1z"/></g><path d="m1373.21 108.83c.55 0 1-.448 1-1s-.45-1-1-1-1 .448-1 1 .45 1 1 1z" fill="#0b283f"/><path d="m1128.46 342.07c.55 0 1-.448 1-1s-.45-1-1-1-1 .448-1 1 .45 1 1 1z" fill="#fff"/><path d="m1142.65 379.1c.55 0 1-.448 1-1s-.45-1-1-1-1 .448-1 1 .45 1 1 1z" fill="#0b283f"/><path d="m1177 264.92c.55 0 1-.448 1-1s-.45-1-1-1-1 .448-1 1 .45 1 1 1z" fill="#fff"/><path d="m1227.84 232.78c.55 0 1-.448 1-1s-.45-1-1-1-1 .448-1 1 .45 1 1 1z" fill="#0b283f"/><path d="m1161 133c.55 0 1-.448 1-1s-.45-1-1-1-1 .448-1 1 .45 1 1 1z" fill="#0b283f"/><path d="m884 75c.552 0 1-.4477 1-1s-.448-1-1-1-1 .4477-1 1 .448 1 1 1z" fill="#fff"/><path d="m1124 197c.55 0 1-.448 1-1s-.45-1-1-1-1 .448-1 1 .45 1 1 1z" fill="#fff"/><path d="m939 12c.552 0 1-.4477 1-1s-.448-1-1-1-1 .4477-1 1 .448 1 1 1z" fill="#fff"/><path d="m1315 529c.55 0 1-.448 1-1s-.45-1-1-1-1 .448-1 1 .45 1 1 1z" fill="#fff"/><path d="m1411 393c.55 0 1-.448 1-1s-.45-1-1-1-1 .448-1 1 .45 1 1 1z" fill="#fff"/><path d="m1413 573c.55 0 1-.448 1-1s-.45-1-1-1-1 .448-1 1 .45 1 1 1z" fill="#0b283f"/><path d="m1339 573c.55 0 1-.448 1-1s-.45-1-1-1-1 .448-1 1 .45 1 1 1z" fill="#fff"/><path d="m919 284c.552 0 1-.448 1-1s-.448-1-1-1-1 .448-1 1 .448 1 1 1z" fill="#0b283f"/><path d="m1373 19c.55 0 1-.4477 1-1s-.45-1-1-1-1 .4477-1 1 .45 1 1 1z" fill="#fff"/><path d="m904 149c.552 0 1-.448 1-1s-.448-1-1-1-1 .448-1 1 .448 1 1 1z" fill="#0b283f"/><path d="m837 14c.552 0 1-.4477 1-1s-.448-1-1-1-1 .4477-1 1 .448 1 1 1z" fill="#fff"/><path d="m819 139c.552 0 1-.448 1-1s-.448-1-1-1-1 .448-1 1 .448 1 1 1z" fill="#0b283f"/><path d="m819 351c.552 0 1-.448 1-1s-.448-1-1-1-1 .448-1 1 .448 1 1 1z" fill="#fff"/><path d="m886 407c.552 0 1-.448 1-1s-.448-1-1-1-1 .448-1 1 .448 1 1 1z" fill="#0b283f"/><path d="m886 351c.552 0 1-.448 1-1s-.448-1-1-1-1 .448-1 1 .448 1 1 1z" fill="#0b283f"/><path d="m947 401c.552 0 1-.448 1-1s-.448-1-1-1-1 .448-1 1 .448 1 1 1z" fill="#0b283f"/><path d="m856 378c.552 0 1-.448 1-1s-.448-1-1-1-1 .448-1 1 .448 1 1 1z" fill="#fff"/><path d="m989 408c.552 0 1-.448 1-1s-.448-1-1-1-1 .448-1 1 .448 1 1 1z" fill="#fff"/><path d="m934 369c.552 0 1-.448 1-1s-.448-1-1-1-1 .448-1 1 .448 1 1 1z" fill="#fff"/><path d="m722 395c.552 0 1-.448 1-1s-.448-1-1-1-1 .448-1 1 .448 1 1 1z" fill="#fff"/><path d="m706 344c.552 0 1-.448 1-1s-.448-1-1-1-1 .448-1 1 .448 1 1 1z" fill="#fff"/><path d="m776 409c.552 0 1-.448 1-1s-.448-1-1-1-1 .448-1 1 .448 1 1 1z" fill="#fff"/><path d="m749 373c.552 0 1-.448 1-1s-.448-1-1-1-1 .448-1 1 .448 1 1 1z" fill="#0b283f"/><path d="m806 397c.552 0 1-.448 1-1s-.448-1-1-1-1 .448-1 1 .448 1 1 1z" fill="#0b283f"/><path d="m716 90c.552 0 1-.4477 1-1s-.448-1-1-1-1 .4477-1 1 .448 1 1 1z" fill="#0b283f"/><path d="m749 134c.552 0 1-.448 1-1s-.448-1-1-1-1 .448-1 1 .448 1 1 1z" fill="#fff"/><path d="m655 100c.552 0 1-.4477 1-1s-.448-1-1-1-1 .4477-1 1 .448 1 1 1z" fill="#fff"/><path d="m696 133c.552 0 1-.448 1-1s-.448-1-1-1-1 .448-1 1 .448 1 1 1z" fill="#0b283f"/><path d="m648 158c.552 0 1-.448 1-1s-.448-1-1-1-1 .448-1 1 .448 1 1 1z" fill="#fff"/><path d="m787 90c.552 0 1-.4477 1-1s-.448-1-1-1-1 .4477-1 1 .448 1 1 1z" fill="#fff"/><path d="m618 15c.552 0 1-.4477 1-1s-.448-1-1-1-1 .4477-1 1 .448 1 1 1z" fill="#fff"/><path d="m735 27c.552 0 1-.4477 1-1s-.448-1-1-1-1 .4477-1 1 .448 1 1 1z" fill="#0b283f"/><path d="m454.04 86.25-2.17 2.16 2.17 2.17-1.42 1.41-2.16-2.16-2.17 2.16-1.41-1.41 2.16-2.17-2.16-2.16 1.41-1.42 2.17 2.17 2.16-2.17z" fill="#fff"/><path d="m595.04 388.25-2.17 2.16 2.17 2.17-1.42 1.41-2.16-2.16-2.17 2.16-1.41-1.41 2.16-2.17-2.16-2.16 1.41-1.42 2.17 2.17 2.16-2.17z" fill="#fff"/><path d="m469.25 266.81h-3.07v-3.06h-2v3.06h-3.06v2h3.06v3.07h2v-3.07h3.07z" fill="#0b283f"/><path d="m99.76 73.98-2.16-2.17 2.16-2.16-1.41-1.42-2.17 2.17-2.16-2.17-1.42 1.42 2.17 2.16-2.17 2.17 1.42 1.41 2.16-2.16 2.17 2.16z" fill="#0b283f"/><path d="m59.25 155.81h-3.07v-3.06h-2v3.06h-3.06v2h3.06v3.07h2v-3.07h3.07z" fill="#fff"/><path d="m257.25 147.81h-3.07v-3.06h-2v3.06h-3.06v2h3.06v3.07h2v-3.07h3.07z" fill="#fff"/><path d="m47.25 369.81h-3.07v-3.06h-2v3.06h-3.06v2h3.06v3.07h2v-3.07h3.07z" fill="#fff"/><path d="m249.25 353.81h-3.07v-3.06h-2v3.06h-3.06v2h3.06v3.07h2v-3.07h3.07z" fill="#fff"/><path d="m104.25 487.81h-3.07v-3.06h-2v3.06h-3.06v2h3.06v3.07h2v-3.07h3.07z" fill="#0b283f"/><path d="m579 89c.552 0 1-.4477 1-1s-.448-1-1-1-1 .4477-1 1 .448 1 1 1z" fill="#fff"/><path d="m429 134c.552 0 1-.448 1-1s-.448-1-1-1-1 .448-1 1 .448 1 1 1z" fill="#fff"/><path d="m607 137c.552 0 1-.448 1-1s-.448-1-1-1-1 .448-1 1 .448 1 1 1z" fill="#fff"/><path d="m478 148c.552 0 1-.448 1-1s-.448-1-1-1-1 .448-1 1 .448 1 1 1z" fill="#0b283f"/><path d="m386 95c.552 0 1-.4477 1-1s-.448-1-1-1-1 .4477-1 1 .448 1 1 1z" fill="#fff"/><path d="m379 151c.552 0 1-.448 1-1s-.448-1-1-1-1 .448-1 1 .448 1 1 1z" fill="#fff"/><path d="m316 116c.552 0 1-.448 1-1s-.448-1-1-1-1 .448-1 1 .448 1 1 1z" fill="#0b283f"/><path d="m285 218c.552 0 1-.448 1-1s-.448-1-1-1-1 .448-1 1 .448 1 1 1z" fill="#0b283f"/><path d="m353 255c.552 0 1-.448 1-1s-.448-1-1-1-1 .448-1 1 .448 1 1 1z" fill="#fff"/><path d="m388 291c.552 0 1-.448 1-1s-.448-1-1-1-1 .448-1 1 .448 1 1 1z" fill="#fff"/><path d="m412 258c.552 0 1-.448 1-1s-.448-1-1-1-1 .448-1 1 .448 1 1 1z" fill="#0b283f"/><path d="m505 257c.552 0 1-.448 1-1s-.448-1-1-1-1 .448-1 1 .448 1 1 1z" fill="#fff"/><path d="m519 299c.552 0 1-.448 1-1s-.448-1-1-1-1 .448-1 1 .448 1 1 1z" fill="#fff"/><path d="m553 371c.552 0 1-.448 1-1s-.448-1-1-1-1 .448-1 1 .448 1 1 1z" fill="#fff"/><path d="m507 405c.552 0 1-.448 1-1s-.448-1-1-1-1 .448-1 1 .448 1 1 1z" fill="#0b283f"/><path d="m462 357c.552 0 1-.448 1-1s-.448-1-1-1-1 .448-1 1 .448 1 1 1z" fill="#0b283f"/><path d="m673 362c.552 0 1-.448 1-1s-.448-1-1-1-1 .448-1 1 .448 1 1 1z" fill="#0b283f"/><path d="m651 397c.552 0 1-.448 1-1s-.448-1-1-1-1 .448-1 1 .448 1 1 1z" fill="#fff"/><path d="m619 358c.552 0 1-.448 1-1s-.448-1-1-1-1 .448-1 1 .448 1 1 1z" fill="#0b283f"/><path d="m442 379c.552 0 1-.448 1-1s-.448-1-1-1-1 .448-1 1 .448 1 1 1z" fill="#fff"/><path d="m361 402c.552 0 1-.448 1-1s-.448-1-1-1-1 .448-1 1 .448 1 1 1z" fill="#fff"/><path d="m363 353c.552 0 1-.448 1-1s-.448-1-1-1-1 .448-1 1 .448 1 1 1z" fill="#fff"/><path d="m293 395c.552 0 1-.448 1-1s-.448-1-1-1-1 .448-1 1 .448 1 1 1z" fill="#fff"/><path d="m310 347c.552 0 1-.448 1-1s-.448-1-1-1-1 .448-1 1 .448 1 1 1z" fill="#fff"/><path d="m293 274c.552 0 1-.448 1-1s-.448-1-1-1-1 .448-1 1 .448 1 1 1z" fill="#fff"/><path d="m223 276c.552 0 1-.448 1-1s-.448-1-1-1-1 .448-1 1 .448 1 1 1z" fill="#fff"/><path d="m198 317c.552 0 1-.448 1-1s-.448-1-1-1-1 .448-1 1 .448 1 1 1z" fill="#fff"/><path d="m225 378c.552 0 1-.448 1-1s-.448-1-1-1-1 .448-1 1 .448 1 1 1z" fill="#0b283f"/><path d="m191 405c.552 0 1-.448 1-1s-.448-1-1-1-1 .448-1 1 .448 1 1 1z" fill="#fff"/><path d="m167 362c.552 0 1-.448 1-1s-.448-1-1-1-1 .448-1 1 .448 1 1 1z" fill="#0b283f"/><path d="m118 394c.552 0 1-.448 1-1s-.448-1-1-1-1 .448-1 1 .448 1 1 1z" fill="#fff"/><path d="m126 436c.552 0 1-.448 1-1s-.448-1-1-1-1 .448-1 1 .448 1 1 1z" fill="#fff"/><path d="m81 406c.5523 0 1-.448 1-1s-.4477-1-1-1-1 .448-1 1 .4477 1 1 1z" fill="#0b283f"/><path d="m128 495c.552 0 1-.448 1-1s-.448-1-1-1-1 .448-1 1 .448 1 1 1z" fill="#0b283f"/><path d="m128 557c.552 0 1-.448 1-1s-.448-1-1-1-1 .448-1 1 .448 1 1 1z" fill="#fff"/><path d="m98 534c.5523 0 1-.448 1-1s-.4477-1-1-1-1 .448-1 1 .4477 1 1 1z" fill="#fff"/><path d="m72 564c.5523 0 1-.448 1-1s-.4477-1-1-1-1 .448-1 1 .4477 1 1 1z" fill="#0b283f"/><path d="m61 507c.5523 0 1-.448 1-1s-.4477-1-1-1-1 .448-1 1 .4477 1 1 1z" fill="#fff"/><path d="m32 464c.5523 0 1-.448 1-1s-.4477-1-1-1-1 .448-1 1 .4477 1 1 1z" fill="#fff"/><path d="m83 444c.5523 0 1-.448 1-1s-.4477-1-1-1-1 .448-1 1 .4477 1 1 1z" fill="#fff"/><path d="m19 410c.5523 0 1-.448 1-1s-.4477-1-1-1-1 .448-1 1 .4477 1 1 1z" fill="#fff"/><path d="m85 352c.5523 0 1-.448 1-1s-.4477-1-1-1-1 .448-1 1 .4477 1 1 1z" fill="#fff"/><path d="m111 311c.552 0 1-.448 1-1s-.448-1-1-1-1 .448-1 1 .448 1 1 1z" fill="#0b283f"/><path d="m132 343c.552 0 1-.448 1-1s-.448-1-1-1-1 .448-1 1 .448 1 1 1z" fill="#0b283f"/><path d="m45 333c.5523 0 1-.448 1-1s-.4477-1-1-1-1 .448-1 1 .4477 1 1 1z" fill="#0b283f"/><path d="m162 301c.552 0 1-.448 1-1s-.448-1-1-1-1 .448-1 1 .448 1 1 1z" fill="#fff"/><path d="m103 246c.552 0 1-.448 1-1s-.448-1-1-1-1 .448-1 1 .448 1 1 1z" fill="#fff"/><path d="m62 293c.5523 0 1-.448 1-1s-.4477-1-1-1-1 .448-1 1 .4477 1 1 1z" fill="#fff"/><path d="m36 260c.5523 0 1-.448 1-1s-.4477-1-1-1-1 .448-1 1 .4477 1 1 1z" fill="#0b283f"/><path d="m64 206c.5523 0 1-.448 1-1s-.4477-1-1-1-1 .448-1 1 .4477 1 1 1z" fill="#fff"/><path d="m17 182c.5523 0 1-.448 1-1s-.4477-1-1-1-1 .448-1 1 .4477 1 1 1z" fill="#fff"/><path d="m15 303c.5523 0 1-.448 1-1s-.4477-1-1-1-1 .448-1 1 .4477 1 1 1z" fill="#fff"/><path d="m118 183c.552 0 1-.448 1-1s-.448-1-1-1-1 .448-1 1 .448 1 1 1z" fill="#0b283f"/><path d="m167 222c.552 0 1-.448 1-1s-.448-1-1-1-1 .448-1 1 .448 1 1 1z" fill="#fff"/><path d="m227 223c.552 0 1-.448 1-1s-.448-1-1-1-1 .448-1 1 .448 1 1 1z" fill="#fff"/><path d="m198 168c.552 0 1-.448 1-1s-.448-1-1-1-1 .448-1 1 .448 1 1 1z" fill="#fff"/><path d="m295 169c.552 0 1-.448 1-1s-.448-1-1-1-1 .448-1 1 .448 1 1 1z" fill="#0b283f"/><path d="m327 190c.552 0 1-.448 1-1s-.448-1-1-1-1 .448-1 1 .448 1 1 1z" fill="#fff"/><path d="m519 94c.552 0 1-.4477 1-1s-.448-1-1-1-1 .4477-1 1 .448 1 1 1z" fill="#fff"/><path d="m483 45c.552 0 1-.4477 1-1s-.448-1-1-1-1 .4477-1 1 .448 1 1 1z" fill="#fff"/><path d="m535 157c.552 0 1-.448 1-1s-.448-1-1-1-1 .448-1 1 .448 1 1 1z" fill="#fff"/><path d="m535 32c.552 0 1-.4477 1-1s-.448-1-1-1-1 .4477-1 1 .448 1 1 1z" fill="#fff"/><path d="m414 27c.552 0 1-.4477 1-1s-.448-1-1-1-1 .4477-1 1 .448 1 1 1z" fill="#0b283f"/><path d="m355 29c.552 0 1-.4477 1-1s-.448-1-1-1-1 .4477-1 1 .448 1 1 1z" fill="#fff"/><path d="m269 103c.552 0 1-.448 1-1s-.448-1-1-1-1 .448-1 1 .448 1 1 1z" fill="#fff"/><path d="m193 102c.552 0 1-.448 1-1s-.448-1-1-1-1 .448-1 1 .448 1 1 1z" fill="#fff"/><path d="m150 134c.552 0 1-.448 1-1s-.448-1-1-1-1 .448-1 1 .448 1 1 1z" fill="#fff"/><path d="m93 116c.5523 0 1-.448 1-1s-.4477-1-1-1-1 .448-1 1 .4477 1 1 1z" fill="#fff"/><path d="m40 110c.5523 0 1-.448 1-1s-.4477-1-1-1-1 .448-1 1 .4477 1 1 1z" fill="#fff"/><path d="m44 29c.5523 0 1-.4477 1-1s-.4477-1-1-1-1 .4477-1 1 .4477 1 1 1z" fill="#fff"/><path d="m130 25c.552 0 1-.4477 1-1s-.448-1-1-1-1 .4477-1 1 .448 1 1 1z" fill="#fff"/><path d="m144 83c.552 0 1-.4477 1-1s-.448-1-1-1-1 .4477-1 1 .448 1 1 1z" fill="#0b283f"/><g fill="#1650a3" opacity=".5"><path d="m1380 544c11.6 0 21-9.402 21-21s-9.4-21-21-21-21 9.402-21 21 9.4 21 21 21z"/><path d="m1380 495c-15.46 0-28 12.54-28 28s12.54 28 28 28 28-12.54 28-28-12.54-28-28-28zm0 52c-13.23 0-24-10.77-24-24s10.77-24 24-24 24 10.77 24 24-10.77 24-24 24z"/></g><g fill="#1650a3" opacity=".5"><path d="m326.5 32.125c19.675 0 35.625-15.9499 35.625-35.625s-15.95-35.625-35.625-35.625-35.625 15.9499-35.625 35.625 15.95 35.625 35.625 35.625z"/><path d="m326.5-51c-26.227 0-47.5 21.2732-47.5 47.5s21.273 47.5 47.5 47.5 47.5-21.2732 47.5-47.5-21.273-47.5-47.5-47.5zm0 88.2143c-22.444 0-40.714-18.2706-40.714-40.7143s18.27-40.7143 40.714-40.7143 40.714 18.2706 40.714 40.7143-18.27 40.7143-40.714 40.7143z"/></g><path d="m149.93 237.46c-12.45 0-22.54 10.09-22.54 22.54s10.09 22.54 22.54 22.54 22.54-10.09 22.54-22.54-10.1-22.54-22.54-22.54zm-12.63 10.52c-3.1 3.25-4.81 7.52-4.81 12.02 0 1.18.12 2.37.35 3.51l-1.96.4c-.26-1.28-.4-2.6-.4-3.92 0-5.01 1.9-9.77 5.36-13.4 1.21-1.27 2.58-2.37 4.08-3.27l1.03 1.71c-1.33.82-2.56 1.81-3.65 2.95zm17.61-4.69c-2.4-.71-4.99-.9-7.47-.55l-.28-1.98c2.77-.4 5.65-.19 8.32.61z" fill="#1650a3" opacity=".5"/><g fill="#184176" opacity=".5"><path d="m1441 170.02c-1.31.49-2.63.97-3.96 1.45-9.22 3.31-18.19 6.14-26.09 8.26 5.67 6.3 13.9 10.27 23.04 10.27 2.41 0 4.75-.28 7-.8v-19.18z"/><path d="m1434 128c-17.12 0-31 13.88-31 31 0 .97.06 1.93.15 2.88-2.22 1.05-4.32 2.08-6.26 3.08-13.32 6.92-14.4 9.97-13.58 12.24.49 1.38 1.71 2.53 5.85 2.53 2.7 0 6.63-.49 12.42-1.73 9.75-2.08 22.35-5.83 35.46-10.54 1.33-.48 2.65-.96 3.96-1.45v-37.21c-2.25-.51-4.59-.8-7-.8zm-46.45 47.68c1.62-1.86 7.25-5.37 16.25-9.67.55 2.38 1.39 4.65 2.45 6.79-9.69 2.41-16.27 3.29-18.7 2.88z"/></g><path d="m39 533 2.12 9.88 9.88 2.12-9.88 2.12-2.12 9.88-2.12-9.88-9.88-2.12 9.88-2.12z" fill="#184176"/></g><path d="m1441 600.5h-1440s322.35-42.5 720-42.5 720 42.5 720 42.5z" fill="#fff"/></g></svg>