<svg viewBox="0 0 100 32" version="1.1" xmlns="http://www.w3.org/2000/svg" preserveAspectRatio="none" class="SparkLine__Svg-sc-9wg5ja-0 cdfFYq"><path d="M 0,23.904789217092112 C 2.1662235323030352e-17,24.258560367077763 -1.5045560331365612e-16,24.854602810438795 0,25.673644967020373 C 5.015186777121871e-17,26.49268712360195 -0.19999999999999996,28.3221106968741 0,28 C 0.2,27.6778893031259 0.8,25.443762546601704 1,24.063091482649885 C 1.2000000000000002,22.682420418698065 1,21.84685976484085 1,21.09664468024091 C 1,20.34642959564097 0.8,20.44829366217384 1,20.312016059650176 C 1.2,20.175738457126513 1.8000000000000003,20.011930025810155 2,20.41525666762259 C 2.2,20.818583309435024 2,22.22540866073987 2,22.32864926871234 C 2,22.43188987668481 1.7999999999999998,20.716719242902194 2,20.931459707484937 C 2.2,21.14620017206768 2.8,23.08574706051047 3,23.402351591626054 C 3.2,23.718956122741638 3,23.479437912245523 3,22.51448236306285 C 3,21.549526813880178 2.8,19.687066246056826 3,18.577573845712685 C 3.2,17.468081445368544 3.8,17.74889589905365 4,16.967020361342144 C 4.2,16.185144823630637 4,15.195411528534562 4,14.668196157155144 C 4,14.140980785775726 3.8,14.092801835388553 4,14.330943504445056 C 4.2,14.56908517350156 4.8,15.532664181244659 5,15.858904502437664 C 5.2,16.18514482363067 5,15.810725552050458 5,15.962145110410079 C 5,16.1135646687697 4.8,16.42466303412679 5,16.61600229423577 C 5.2,16.80734155434475 5.8,17.02345856036708 6,16.91884141095498 C 6.2,16.81422426154288 6,16.17963865787215 6,16.092916547175278 C 6,16.006194436478406 5.8,16.726125609406385 6,16.485230857470622 C 6.2,16.24433610553486 6.8,15.411528534556984 7,14.888442787496473 C 7.2,14.365357040435962 6.8,14.107943791224573 7,13.86980212216807 C 7.2,13.631660453111566 7.8,14.094178376828232 8,13.697734442213953 C 8.2,13.301290507599674 8,12.037625466016665 8,11.887582449096673 C 8,11.73753943217668 7.8,12.855291081158594 8,12.947519357613992 C 8.2,13.03974763406939 8.8,12.54006309148263 9,12.34872383137366 C 9.2,12.15738457126469 9,12.055520504731872 9,11.990823057069143 C 9,11.926125609406414 8.8,12.011471178663689 9,12.025236593060018 C 9.2,12.039002007456348 9.8,12.094063665041613 10,12.05965012905079 C 10.2,12.025236593059965 10,11.649440780040232 10,11.853168913105902 C 10,12.056897046171573 9.8,12.75893318038431 10,13.07829079437914 C 10.2,13.39764840837397 10.8,13.269630054488141 11,13.44995698308005 C 11.2,13.630283911671958 11,13.851907083452812 11,13.979925437338682 C 11,14.107943791224553 10.8,14.233209062231218 11,14.0900487525094 C 11.2,13.946888442787582 11.8,12.93926010897624 12,13.264123888729594 C 12.2,13.588987668482948 12,15.353713794092346 12,15.714367651276174 C 12,16.07502150846 11.8,15.345454545454585 12,15.067393174648732 C 12.2,14.78933180384288 12.799999999999999,13.86704903928878 13,14.324060797246911 C 13.2,14.781072555205043 13,16.654545454545488 13,17.352451964439393 C 13,18.050358474333297 12.8,17.74476627473479 13,17.813593346716434 C 13.2,17.88242041869808 13.8,17.732377401778084 14,17.69658732434762 C 14.2,17.66079724691716 14,17.454316030972212 14,17.634642959564122 C 14,17.814969888156032 13.8,18.472956696300574 14,18.598221967307165 C 14.2,18.723487238313755 14.8,18.65741324921136 15,18.26096931459708 C 15.2,17.8645253799828 14.8,16.905075996558683 15,16.61600229423577 C 15.2,16.326928591912857 15.8,16.821106968741034 16,16.81560080298251 C 16.2,16.810094637223983 16,16.472841984513973 16,16.588471465443142 C 16,16.70410094637231 15.8,17.257470605104707 16,17.39374820762836 C 16.2,17.53002581015201 16.8,16.889934040722725 17,17.269859478061406 C 17.2,17.649784915400087 17,18.892801835388596 17,19.29337539432177 C 17,19.693948953254946 16.8,19.68156008029827 17,19.272727272727288 C 17.2,18.863894465156307 17.8,17.656667622598214 18,17.249211356466873 C 18.2,16.841755090335532 18,17.35245196443937 18,17.235445942070584 C 18,17.118439919701796 17.8,16.40126182965305 18,16.66418124462293 C 18.2,16.927100659592814 18.8,18.076512761686285 19,18.550043016920004 C 19.2,19.023573272153723 19,19.08964726125611 19,19.031832520791525 C 19,18.97401778032694 18.8,18.493604817895037 19,18.26096931459708 C 19.2,18.028333811299124 19.8,17.883796960137694 20,17.868655004301736 C 20.2,17.85351304846578 20,18.452308574706077 20,18.185259535417288 C 20,17.9182104961285 19.8,16.515514769142555 20,16.533409807857783 C 20.2,16.55130484657301 20.8,18.068253513048482 21,18.27473472899342 C 21.2,18.481215944938356 21,17.604359047892192 21,17.565815887582474 C 21,17.527272727272756 20.8,18.141210209349033 21,18.08201892744482 C 21.2,18.02282764554061 21.8,17.56994551190138 22,17.269859478061406 C 22.2,16.96977344422143 22,16.592601089762006 22,16.581588758244944 C 22,16.570576426727882 21.8,17.224433610553533 22,17.2147978204761 C 22.2,17.205162030398668 22.8,16.682076283338148 23,16.533409807857783 C 23.2,16.38474333237742 22.8,16.438428448523084 23,16.47146544307428 C 23.2,16.504502437625476 23.8,16.91195870375685 24,16.698594780613757 C 24.2,16.485230857470665 24,15.759793518784122 24,15.404645827358818 C 24,15.049498135933515 23.8,14.759047892170942 24,14.922856323487244 C 24.2,15.086664754803545 24.8,15.941496988815564 25,16.223687983940323 C 25.2,16.50587897906508 25,16.570576426727882 25,16.33381129911104 C 25,16.0970461714942 24.8,15.103183252079226 25,15.039862345856106 C 25.2,14.976541439632985 25.8,15.776312016059675 26,16.017206767995436 C 26.2,16.2581015199312 26,16.203039862345936 26,16.244336105534913 C 26,16.28563234872389 25.8,16.109435044450805 26,16.223687983940323 C 26.2,16.33794092342984 26.8,16.602236879839396 27,16.81560080298251 C 27.2,17.028964726125622 27,17.144594207054794 27,17.29050759965589 C 27,17.436420992256984 26.8,17.386865500430204 27,17.54516776598799 C 27.2,17.703470031545777 27.8,17.947117866360784 28,18.08201892744482 C 28.2,18.216919988528858 28,18.097160883280843 28,18.219673071408167 C 28,18.34218525953549 27.8,18.51562948092917 28,18.69457986808144 C 28.2,18.87353025523371 28.8,19.110295382850616 29,19.114425007169512 C 29.2,19.118554631488408 29,18.72211069687408 29,18.715227989675924 C 29,18.70834528247777 28.8,19.166733581875615 29,19.080011471178743 C 29.2,18.99328936048187 29.8,18.572067679954113 30,18.28161743619156 C 30.2,17.991167192429007 29.8,17.691081158589075 30,17.627760252365977 C 30.2,17.56443934614288 30.8,17.903068540292594 31,17.965012905076065 C 31.2,18.026957269859537 31,18.035216518497275 31,17.93748207628333 C 31,17.839747634069386 30.8,17.626383710926316 31,17.476340694006346 C 31.2,17.326297677086377 31.8,16.991798107255608 32,17.187266991683476 C 32.2,17.382735876111344 32,18.486722110696874 32,18.453685116145678 C 32,18.420648121594482 31.8,17.36621737883573 32,17.022082018927502 C 32.2,16.677946659019273 32.8,16.964267278462867 33,16.733008316604526 C 33.2,16.501749354746185 33,16.461829652996848 33,15.865787209635805 C 33,15.269744766274762 32.8,14.468597648408423 33,13.752796099799314 C 33.2,13.036994551190205 33.8,12.491884141095571 34,12.286779466590263 C 34.2,12.081674792084954 34,12.741038141669106 34,12.727272727272766 C 34,12.713507312876425 33.8,12.267507886435345 34,12.217952394608563 C 34.2,12.168396902781781 34.8,12.189045024376307 35,12.47949526813886 C 35.2,12.769945511901414 35,13.447203900200803 35,13.670203613421327 C 35,13.893203326641851 34.8,13.739030685402952 35,13.594493834241485 C 35.2,13.449956983080018 35.8,12.720390020074559 36,12.947519357613992 C 36.2,13.174648695153424 36,14.585603670777179 36,14.730140521938646 C 36,14.874677373100113 35.8,14.0996845425868 36,13.670203613421327 C 36.2,13.240722684255854 36.8,12.903470031545757 37,12.582735876111277 C 37.2,12.262001720676798 37,12.237223974763408 37,12.066532836248932 C 37,11.895841697734456 36.8,11.488385431603136 37,11.729280183538897 C 37.2,11.970174935474658 37.8,13.056266131344994 38,13.271006595927737 C 38.2,13.48574706051048 37.8,12.78784055061664 38,12.802982506452608 C 38.2,12.818124462288576 38.8,13.361858330943548 39,13.34671637510758 C 39.2,13.331574419271611 39,13.279265844565563 39,12.727272727272766 C 39,12.175279609979968 38.8,11.130484657298597 39,10.586750788643593 C 39.2,10.04301691998859 39.8,11.325953541726463 40,10.008603383997745 C 40.2,8.691253226269026 40,5.065443074275885 40,4 C 40,2.9345569257241144 39.8,3.943561800975065 40,4.681388012618317 C 40.2,5.4192142242615695 40.8,6.930656724978526 41,7.689131058216262 C 41.2,8.447605391453997 41,8.72429022082018 41,8.473759678806996 C 41,8.223229136793812 40.8,6.948551763693784 41,6.436478348150345 C 41.2,5.924404932606906 41.8,5.633954688844323 42,5.913392601089804 C 42.2,6.192830513335284 42,7.181187266991752 42,7.83366790937775 C 42,8.48614855176375 41.8,9.022999713220546 42,9.175795813019796 C 42.2,9.328591912819046 42.8,8.480642386005202 43,8.597648408374 C 43.2,8.714654430742799 43,9.076684829366224 43,9.760825924863788 C 43,10.444967020361352 42.8,11.506280470318371 43,12.01835388586182 C 43.2,12.53042730140527 43.8,12.370748494407813 44,12.321193002581033 C 44.2,12.271637510754253 44,11.570977917981134 44,11.770576426727917 C 44,11.9701749354747 43.8,12.805735589331887 44,13.319185546314953 C 44.2,13.83263550329802 44.8,14.08454258675081 45,14.337826211643252 C 45.2,14.591109836535693 45,14.628276455405773 45,14.585603670777157 C 45,14.542930886148541 44.8,14.273128763980514 45,14.12446228850017 C 45.2,13.975795813019827 45.8,13.78308001147123 46,13.842271293375443 C 46.2,13.901462575279657 45.8,14.505764267278481 46,14.420418698021239 C 46.2,14.335073128763996 46.8,13.272383137367399 47,13.415543447089227 C 47.2,13.558703756811056 47,14.950387152279934 47,15.136220246630378 C 47,15.322053340980823 46.8,14.3047892170921 47,14.344708918841448 C 47.2,14.384628620590796 47.8,15.401892744479499 48,15.33581875537712 C 48.2,15.269744766274743 48,14.358474333237789 48,14.014338973329558 C 48,13.670203613421327 47.8,13.268253513048471 48,13.61514195583597 C 48.2,13.962030398623469 48.8,15.404645827358818 49,15.74878118726705 C 49.2,16.092916547175278 49,16.17963865787211 49,15.33581875537712 C 49,14.491998852882132 48.8,12.076168626326373 49,11.529681674792101 C 49.2,10.98319472325783 49.8,12.056897046171478 50,12.60338399770576 C 50.2,13.149870949240043 50,13.904215658158956 50,14.262116432463515 C 50,14.620017206768074 49.8,14.500258101519947 50,14.39288786922856 C 50.2,14.285517636937172 50.8,13.846400917694277 51,13.725265271006581 C 51.2,13.604129624318885 51,13.800975050186402 51,13.787209635790083 C 51,13.773444221393763 50.8,13.6027530828793 51,13.656438199024988 C 51.2,13.710123315170677 51.8,13.960653857183859 52,14.055635216518525 C 52.2,14.15061657585319 52,14.208431316317753 52,14.131344995698313 C 52,14.054258675078874 51.8,13.593117292801876 52,13.670203613421327 C 52.2,13.747289934040777 52.8,14.472727272727319 53,14.516776598795564 C 53.2,14.56082592486381 52.8,13.9716661887009 53,13.890450243762553 C 53.2,13.809234298824206 53.8,13.81749354746202 54,14.11069687410383 C 54.2,14.40390020074564 54,15.185775738457117 54,15.356466876971604 C 54,15.52715801548609 53.8,14.893948953254988 54,14.964152566676262 C 54.2,15.034356180097536 54.8,15.733639231431008 55,15.707484944077978 C 55.2,15.681330656724947 55,14.962776025236591 55,14.833381129911114 C 55,14.703986234585637 54.8,14.888442787496475 55,15.06051046745059 C 55.2,15.232578147404704 55.8,15.211930025810167 56,15.69371952968169 C 56.2,16.17550903355321 56,16.968396902781823 56,17.4694579868082 C 56,17.97051907083458 55.8,17.257470605104654 56,18.199024949813577 C 56.2,19.1405792945225 56.8,21.667909377688623 57,22.177229710352815 C 57.2,22.686550043017007 57,20.669916833954737 57,20.745626613134537 C 57,20.821336392314336 56.8,21.903297963865803 57,22.555778606251813 C 57.2,23.208259248637823 57.8,24.052079151132837 58,24.008029825064582 C 58.2,23.963980498996328 58,22.943963292228293 58,22.335531975910538 C 58,21.727100659592782 57.8,20.72773157441932 58,20.965873243475812 C 58.2,21.204014912532305 58.8,23.216518497275597 59,23.526240321193004 C 59.2,23.83596214511041 59,22.855864640091813 59,22.51448236306285 C 59,22.173100086033887 58.8,22.02168052767423 59,21.81932893604819 C 59.2,21.61697734442215 59.8,21.588069974189885 60,21.502724404932643 C 60.2,21.4173788356754 60,21.407743045597933 60,21.392601089761975 C 60,21.377459133926017 59.8,21.50685402925156 60,21.427014625752854 C 60.2,21.347175222254148 60.8,20.93283624892461 61,20.99340407226844 C 61.2,21.05397189561227 60.8,21.44903928878689 61,21.72985374247201 C 61.2,22.01066819615713 61.8,21.731230283911703 62,22.39747634069404 C 62.2,23.06372239747638 62,24.9729853742472 62,25.061084026383703 C 62,25.149182678520205 61.8,22.963234872383133 62,22.837969601376543 C 62.2,22.712704330369952 62.8,24.499455119013483 63,24.434757671350745 C 63.2,24.370060223688007 63,23.14080871809583 63,22.51448236306285 C 63,21.88815600802987 62.8,21.421508459994275 63,21.303125896185847 C 63.2,21.18474333237742 63.8,21.472440493260734 64,21.922569544020714 C 64.2,22.372698594780694 64,23.05546314883862 64,23.55377114998574 C 64,24.052079151132858 63.8,24.86423860051629 64,24.41410954975631 C 64.2,23.96398049899633 64.8,21.791798107255545 65,21.303125896185847 C 65.2,20.81445368511615 65,21.793174648695175 65,21.970748494407825 C 65,22.148322340120476 64.8,22.650759965586502 65,22.1909951247491 C 65.2,21.7312302839117 65.8,20.0848867221107 66,19.671924290220822 C 66.2,19.258961858330945 66,20.23768282190998 66,20.12618296529972 C 66,20.014683108689457 65.8,19.073128763980524 66,19.114425007169512 C 66.2,19.1557212503585 66.8,20.03808431316322 67,20.33266418124466 C 67.2,20.627244049326098 67,20.56529968454258 67,20.587324347576704 C 67,20.609349010610828 66.8,20.931459707484947 67,20.44278749641527 C 67.2,19.954115285345594 67.8,18.507370232291418 68,18.14396329222832 C 68.2,17.780556352165224 68,18.23343848580441 68,18.625752796099793 C 68,19.018067106395176 67.8,20.123429882420464 68,20.105534843705236 C 68.2,20.08763980499001 68.8,18.7799254373387 69,18.53627760252366 C 69.2,18.292629767708622 68.8,18.709721823917377 69,18.88729566963004 C 69.2,19.0648695153427 69.8,19.574189848006945 70,19.424146831086972 C 70.2,19.274103814167 70,18.21279036421 70,18.13708058503018 C 70,18.06137080585036 69.8,19.022196730714114 70,19.045597935187864 C 70.2,19.068999139661614 70.8,18.216919988528854 71,18.254086607398936 C 71.2,18.291253226269017 71,19.104789217092048 71,19.231431029538268 C 71,19.358072841984487 70.8,19.183252079151107 71,18.88729566963004 C 71.2,18.59133926010897 71.8,17.985661026670517 72,17.75164898193293 C 72.2,17.517636937195345 72,17.915457413249243 72,17.71723544594211 C 72,17.519013478634974 71.8,17.271236019501078 72,16.760539145397257 C 72.2,16.249842271293435 72.8,15.406022368798405 73,15.163751075423004 C 73.2,14.921479782047603 73,15.368855749928336 73,15.549182678520255 C 73,15.729509607112174 72.8,15.777688557499326 73,16.0653857183826 C 73.2,16.353082879265877 73.8,16.8692859191282 74,16.987668482936627 C 74.2,17.106051046745055 74,16.671063951821065 74,16.657298537424737 C 74,16.64353312302841 73.8,17.034470891884137 74,16.91884141095498 C 74.2,16.80321193002582 74.8,16.123200458847183 75,16.07915113277894 C 75.2,16.035101806710696 75,16.523774017780372 75,16.698594780613757 C 75,16.87341554344714 74.8,16.83211930025816 75,16.953254946945854 C 75.2,17.07439059363355 75.8,17.11018067106399 76,17.304273014052228 C 76.2,17.498365357040466 75.8,18.05724118153144 76,17.923716661887045 C 76.2,17.79019214224265 76.8,16.928477201032436 77,16.636650415830253 C 77.2,16.34482363062807 77,16.45770002867796 77,16.464582735876135 C 77,16.47146544307431 76.8,16.67932320045892 77,16.67106395182113 C 77.2,16.662804703183337 77.8,16.320045884714702 78,16.423286492687172 C 78.2,16.526527100659642 78,17.136334958417056 78,17.187266991683476 C 78,17.238199024949896 77.8,16.60086033839984 78,16.67794665901927 C 78.2,16.7550329796387 78.8,17.35520504731863 79,17.57269859478062 C 79.2,17.790192142242606 79,17.686951534270126 79,17.765414396329216 C 79,17.843877258388307 78.8,17.43642099225702 79,17.965012905076065 C 79.2,18.49360481789511 79.8,20.066991683395496 80,20.40837396042445 C 80.2,20.7497562374534 80,19.948609119587037 80,19.671924290220822 C 80,19.395239460854608 79.8,19.271350731287665 80,19.02494981359338 C 80.2,18.778548895899096 80.8,18.62299971322058 81,18.439919701749393 C 81.2,18.256839690278206 81,18.222426154287337 81,18.109549756237445 C 81,17.996673358187554 80.8,18.068253513048543 81,17.875537711499934 C 81.2,17.682821909951326 81.8,17.32905075996559 82,17.145970748494403 C 82.2,16.962890737023216 82,16.991798107255555 82,16.960137654144 C 82,16.928477201032443 81.8,17.14872383137367 82,16.987668482936627 C 82.2,16.826613134499585 82.8,16.35032979638665 83,16.15486091195878 C 83.2,15.959392027530916 83,15.834126756524293 83,16.010324060797295 C 83,16.1865213650703 82.8,17.141841124175528 83,17.03584743332379 C 83.2,16.929853742472055 83.8,15.483108689417866 84,15.480355606538609 C 84.2,15.477602523659352 83.8,16.55405792945231 84,17.022082018927502 C 84.2,17.490106108402696 84.8,17.905821623171818 85,17.820476053914575 C 85.2,17.735130484657333 85,16.92159449383429 85,16.595354172641287 C 85,16.26911385144828 84.8,16.428792658445683 85,16.18927444794955 C 85.2,15.949756237453418 85.8,15.704731861198761 86,15.397763120160622 C 86.2,15.090794379122483 86,14.993059936908562 86,14.654430742758857 C 86,14.315801548609151 85.8,14.084542586750791 86,13.704617149412098 C 86.2,13.324691712073404 86.8,12.92411815314024 87,12.754803556065392 C 87.2,12.585488958990544 87,12.95853168913106 87,12.85804416403786 C 87,12.75755663894466 86.8,12.190421565815894 87,12.252365930599387 C 87.2,12.31431029538288 87.8,13.251735015772937 88,13.167765987955322 C 88.2,13.083796960137708 88,12.010094637223965 88,11.832520791511314 C 88,11.654946945798663 87.8,12.289532549469488 88,12.279896759392066 C 88.2,12.270260969314645 88.8,12.074792084886747 89,11.784341841124204 C 89.2,11.493891597361662 89,10.72991109836542 89,10.827645540579354 C 89,10.925379982793288 88.8,11.909607112130786 89,12.27301405219387 C 89.2,12.636420992256955 89.8,12.47811872669919 90,12.644680240894779 C 90.2,12.811241755090368 90,13.072784628620624 90,13.105821623171819 C 90,13.138858617723013 89.8,12.383137367364546 90,12.80986521365075 C 90.2,13.236593059936956 90.8,15.008201892744518 91,15.239460854602846 C 91.2,15.470719816461175 91,14.416289073702362 91,13.966160022942395 C 91,13.516030972182428 90.8,13.166389446515662 91,12.988815600803012 C 91.2,12.81124175509036 91.8,12.97367364496703 92,13.07829079437914 C 92.2,13.182907943791248 91.8,13.542185259535477 92,13.511901347863551 C 92.2,13.481617436191625 92.8,13.032864926871245 93,12.926871236019508 C 93.2,12.820877545167772 93,13.083796960137697 93,12.981932893604867 C 93,12.880068827072037 92.8,12.577229710352784 93,12.417550903355359 C 93.2,12.257872096357934 93.8,12.156008029825083 94,12.18353885861774 C 94.2,12.211069687410399 94,12.482248351018098 94,12.555205047318651 C 94,12.628161743619204 93.8,12.333581875537774 94,12.548322340120507 C 94.2,12.763062804703239 94.8,13.407284198451412 95,13.628907370232309 C 95.2,13.850530542013205 95,13.633036994551215 95,13.656438199024988 C 95,13.679839403498761 94.8,13.751419558359705 95,13.74591339260117 C 95.2,13.740407226842633 95.8,13.580728419845178 96,13.628907370232309 C 96.2,13.67708632061944 96,13.862919414969863 96,13.986808144536825 C 96,14.110696874103787 95.8,14.213937482076298 96,14.248351018067122 C 96.2,14.282764554057946 96.8,14.23733868655001 97,14.158875824490941 C 97.2,14.080412962431874 97,14.007456266131383 97,13.856036707771782 C 97,13.704617149412181 96.8,13.846400917694382 97,13.40177803269294 C 97.2,12.957155147691498 97.8,12.228964726125636 98,11.632922282764572 C 98.2,11.036879839403507 98,10.599139661600262 98,10.421565815887622 C 98,10.243991970174982 97.8,10.644565529108167 98,10.74505305420137 C 98.2,10.845540579294571 98.8,10.734040722684288 99,10.924003441353628 C 99.2,11.113966160022969 99,11.540694006309186 99,11.694866647548075" class="SparkLine__Path-sc-9wg5ja-1 kDnVnu"></path></svg>