<svg width="64" height="64" viewBox="0 0 64 64" fill="none" xmlns="http://www.w3.org/2000/svg">
<g clip-path="url(#clip0)">
<path d="M63.6537 36.6678C61.077 54.1497 44.8141 66.2304 27.3322 63.6537C9.85033 61.077 -2.23041 44.8141 0.34629 27.3322C2.92298 9.85033 19.1859 -2.23041 36.6678 0.34629C54.1447 2.92794 66.2254 19.1859 63.6537 36.6678Z" fill="#0090FF"/>
<path d="M46.3502 12.8035C39.8837 8.71552 35.2556 17.7191 35.1466 17.9966C33.992 20.2462 33.0456 23.6901 32.4559 26.2618L24.0321 25.0131L23.7001 27.2875L32.0199 28.5164C31.787 29.7007 31.673 30.4688 31.673 30.4688L31.2171 32.9662H31.2419L31.2122 33.1148L22.9766 31.9008L22.6694 34.1901L30.8257 35.3794C28.6801 46.2015 27.0944 49.462 25.4988 51.2359C25.1718 51.6175 22.8825 53.1536 21.7279 50.4084C20.9252 48.4957 19.399 48.7584 19.399 48.7584C18.9679 48.7187 16.961 50.012 20.1026 51.999C26.5444 56.092 31.1973 47.0835 31.3063 46.811C32.4609 44.5613 33.997 38.4813 34.5866 35.9096L43.065 37.1632L43.397 34.8937L35.0475 33.6946C35.2754 32.5054 35.3943 31.7423 35.3943 31.7423L35.8056 29.2349H35.7808L35.8056 29.0863L44.0609 30.3053L44.3731 28.0308L36.2169 26.8118C38.3625 15.9897 39.3585 15.3604 40.954 13.5666C41.2811 13.1851 43.5704 11.6539 44.7249 14.3942C45.5277 16.3069 47.0737 16.0442 47.0737 16.0442C47.5048 16.0888 49.5067 14.7906 46.3651 12.8035" fill="#FEFEFE"/>
</g>
<defs>
<clipPath id="clip0">
<rect width="63.9988" height="64" fill="white"/>
</clipPath>
</defs>
</svg>
