<svg width="32" height="32" viewBox="0 0 32 32" fill="none" xmlns="http://www.w3.org/2000/svg">
<path d="M16 32C24.8366 32 32 24.8366 32 16C32 7.16344 24.8366 0 16 0C7.16344 0 0 7.16344 0 16C0 24.8366 7.16344 32 16 32Z" fill="#2550AA"/>
<g clip-path="url(#clip0)">
<path fill-rule="evenodd" clip-rule="evenodd" d="M14.6643 17.1143C12.2071 17.1143 10.2214 15.1214 10.2214 12.6714C10.2214 10.2143 12.2143 8.22857 14.6643 8.22857C17.1214 8.22857 19.1071 10.2214 19.1071 12.6714C19.1143 15.1214 17.1214 17.1143 14.6643 17.1143ZM14.6643 6C18.3429 6 21.3286 8.98572 21.3286 12.6643C21.3286 16.3429 18.3429 19.3286 14.6643 19.3286C10.9857 19.3286 8 16.3429 8 12.6643C8 8.98572 10.9857 6 14.6643 6ZM21.0071 19.6571C21.4429 20.0929 21.4429 20.7929 21.0071 21.2286L16.5643 25.6714C16.1286 26.1071 15.4286 26.1071 14.9929 25.6714C14.5571 25.2357 14.5571 24.5357 14.9929 24.1L19.4357 19.6571C19.8714 19.2214 20.5714 19.2214 21.0071 19.6571ZM23.5571 7.11429C23.5571 7.72857 23.0571 8.22857 22.4429 8.22857C21.8286 8.22857 21.3286 7.72857 21.3286 7.11429C21.3286 6.5 21.8286 6 22.4429 6C23.0571 6 23.5571 6.5 23.5571 7.11429Z" fill="white"/>
</g>
<defs>
<clipPath id="clip0">
<rect width="15.5571" height="20" fill="white" transform="translate(8 6)"/>
</clipPath>
</defs>
</svg>
