<svg fill="none" height="64" viewBox="0 0 64 64" width="64" xmlns="http://www.w3.org/2000/svg"><path d="m0 0h64v64h-64z" fill="#fff"/><path d="m32 34c9.3888 0 17-7.6112 17-17 0-9.38884-7.6112-17-17-17s-17 7.61116-17 17c0 9.3888 7.6112 17 17 17z" fill="#56b4fc"/><path d="m64 48h-64v16h64z" fill="#bfe9ff"/><g fill="#1652f0"><path d="m49 60h-34v4h34z"/><path d="m49 54h-34v4h34z"/><path d="m49 48h-34v4h34z"/></g><path d="m49 42h-34v4h34z" fill="#56b4fc"/><path d="m49 36h-34v4h34z" fill="#56b4fc"/><path d="m32 30c7.1797 0 13-5.8203 13-13s-5.8203-13-13-13-13 5.8203-13 13 5.8203 13 13 13z" stroke="#fff" stroke-miterlimit="10" stroke-width="2"/><path d="m31.0002 23h2v-12h-2z" fill="#fff"/><path d="m26.0001 16.0001v2h12v-2z" fill="#fff"/></svg>