<svg fill="none" height="64" viewBox="0 0 64 64" width="64" xmlns="http://www.w3.org/2000/svg"><path d="m0 0h64v64h-64z" fill="#fff"/><path d="m64 12h-64v48h64z" fill="#bfe9ff"/><path d="m10 62v-52c0-1.1.9-2 2-2h40c1.1 0 2 .9 2 2v52c0 1.1-.9 2-2 2h-40c-1.1 0-2-.9-2-2z" fill="#56b4fc"/><path d="m54 12h-44v48h44z" fill="#1652f0"/><g fill="#fff"><path d="m48 22h-32v2h32z"/><path d="m48 28h-32v2h32z"/><path d="m44 34h-24v2h24z"/><path d="m38.3611 43.461-1.4142-1.4142-8.4852 8.4852 1.4142 1.4142z"/><path d="m29.8834 51.9478 1.4142-1.4142-4.2426-4.2426-1.4142 1.4142z"/></g><path d="m44 8h-24c0-2.21 1.79-4 4-4h16c2.21 0 4 1.79 4 4z" fill="#56b4fc"/><path d="m32 8c2.2091 0 4-1.79086 4-4s-1.7909-4-4-4-4 1.79086-4 4 1.7909 4 4 4z" fill="#56b4fc"/></svg>