<svg fill="none" height="64" viewBox="0 0 64 64" width="64" xmlns="http://www.w3.org/2000/svg"><path d="m0 0h64v64h-64z" fill="#fff"/><g fill="#56b4fc"><path d="m12 10c-1.1 0-2-.9-2-2v-4c0-1.1.9-2 2-2s2 .9 2 2v4c0 1.1-.9 2-2 2z"/><path d="m22 10c-1.1 0-2-.9-2-2v-4c0-1.1.9-2 2-2s2 .9 2 2v4c0 1.1-.9 2-2 2z"/><path d="m32 10c-1.1 0-2-.9-2-2v-4c0-1.1.9-2 2-2s2 .9 2 2v4c0 1.1-.9 2-2 2z"/><path d="m42 10c-1.1 0-2-.9-2-2v-4c0-1.1.9-2 2-2s2 .9 2 2v4c0 1.1-.9 2-2 2z"/><path d="m52 10c-1.1 0-2-.9-2-2v-4c0-1.1.9-2 2-2s2 .9 2 2v4c0 1.1-.9 2-2 2z"/><path d="m58 54h-52c-1.1 0-2-.9-2-2v-46h56v46c0 1.1-.9 2-2 2z"/></g><path d="m60 6h-56v8h56z" fill="#bfe9ff"/><path d="m54 14h-44v48h44z" fill="#bfe9ff"/><path d="m54 14h-44v40h44z" fill="#1652f0"/><path d="m40.265 34.995v-2h-17.27v2z" fill="#fff"/><path d="m34.51 28.34 5.66 5.66-5.66 5.66 1.42 1.41 7.07-7.07-7.07-7.07z" fill="#fff"/><path d="m12 10c-1.1 0-2-.9-2-2v-2h4v2c0 1.1-.9 2-2 2z" fill="#1652f0"/><path d="m22 10c-1.1 0-2-.9-2-2v-2h4v2c0 1.1-.9 2-2 2z" fill="#1652f0"/><path d="m32 10c-1.1 0-2-.9-2-2v-2h4v2c0 1.1-.9 2-2 2z" fill="#1652f0"/><path d="m42 10c-1.1 0-2-.9-2-2v-2h4v2c0 1.1-.9 2-2 2z" fill="#1652f0"/><path d="m52 10c-1.1 0-2-.9-2-2v-2h4v2c0 1.1-.9 2-2 2z" fill="#1652f0"/></svg>