<svg width="32" height="32" viewBox="0 0 32 32" fill="none" xmlns="http://www.w3.org/2000/svg">
<path d="M16 32C24.8366 32 32 24.8366 32 16C32 7.16344 24.8366 0 16 0C7.16344 0 0 7.16344 0 16C0 24.8366 7.16344 32 16 32Z" fill="#31CB9E"/>
<path d="M14.9728 15.9555L22.4125 20.2204C22.6685 20.3692 22.9999 20.1809 22.9999 19.8834V12.0276C22.9999 11.7301 22.6742 11.5418 22.4125 11.6905L14.9728 15.9555Z" fill="white"/>
<path d="M17.0404 25.8393L21.9908 22.0601C22.213 21.8888 22.1904 21.5517 21.9512 21.4086L14.6151 17.2058L16.4247 25.6114C16.4736 25.8901 16.805 26.0106 17.0404 25.8393Z" fill="white"/>
<path d="M13.0654 15.9555L15.0124 6.90021C15.0858 6.54621 14.681 6.28447 14.3891 6.51231L9.40484 10.3216C9.14875 10.5155 9 10.8243 9 11.1445V20.7891C9 21.1092 9.14875 21.418 9.40484 21.612L14.3891 25.4156C14.6753 25.6322 15.0858 25.3761 15.0124 25.0277L13.0654 15.9555Z" fill="white"/>
<path d="M21.9794 9.85273L17.0403 6.07923C16.8125 5.90788 16.4811 6.02839 16.4171 6.30707L14.6132 14.7127L21.938 10.5042C22.1846 10.3611 22.2072 10.0241 21.9794 9.85273Z" fill="white"/>
</svg>
