<svg viewBox="0 0 100 32" version="1.1" xmlns="http://www.w3.org/2000/svg" preserveAspectRatio="none" class="SparkLine__Svg-sc-9wg5ja-0 cdfFYq"><path d="M 0,28 C 6.8953720069292865e-18,27.887390029325516 3.727810491246207e-17,28.04574780058652 0,27.436950146627574 C 3.727810491246207e-17,26.82815249266863 -0.19999999999999998,25.765395894428142 0,24.95601173020527 C 0.20000000000000007,24.146627565982396 0.8000000000000002,24.319061583577714 1,23.3900293255132 C 1.2,22.460997067448687 1,20.96891495601173 1,20.3108504398827 C 1,19.65278592375367 0.7999999999999999,19.976539589442822 1,20.099706744868044 C 1.2,20.222873900293266 1.7999999999999998,20.550146627565987 2,20.9266862170088 C 2.2,21.303225806451614 2,22.239296187683287 2,21.982404692082113 C 2,21.72551319648094 1.8,19.786510263929618 2,19.642228739002928 C 2.2,19.497947214076238 2.8,21.264516129032252 3,21.26099706744867 C 3.2,21.25747800586509 3,21.02873900293253 3,19.624633431085023 C 3,18.220527859237517 2.8000000000000003,15.503812316715539 3,14.240469208211142 C 3.2,12.977126099706746 3.8,13.663343108504394 4,13.307917888563042 C 4.2,12.952492668621689 4,12.885630498533708 4,12.463343108504382 C 4,12.041055718475057 3.8,11.157771260997057 4,11.196480938416414 C 4.2,11.235190615835771 4.8,12.385923753665688 5,12.65689149560117 C 5.2,12.927859237536653 5,12.502052785923741 5,12.551319648093827 C 5,12.600586510263913 4.8,12.829325513196464 5,12.903225806451598 C 5.2,12.977126099706732 5.8,13.107331378299113 6,12.9208211143695 C 6.2,12.734310850439888 6,12.086803519061597 6,11.970674486803532 C 6,11.854545454545466 5.8,13.934310850439877 6,12.34017595307917 C 6.2,10.746041055718463 6.800000000000001,5.650439882697945 7,4 C 7.2,2.3495601173020546 7,3.7853372434017634 7,4.087976539589443 C 7,4.3906158357771226 6.8,5.2809384164222655 7,5.513196480938397 C 7.2,5.745454545454529 7.8,5.090909090909105 8,5.249266862170102 C 8.2,5.407624633431099 7.8,5.9847507331378145 8,6.304985337243383 C 8.2,6.625219941348951 8.8,7.068621700879759 9,6.850439882697942 C 9.2,6.632258064516125 9,5.481524926686207 9,5.214076246334298 C 9,4.946627565982389 8.8,5.432258064516109 9,5.513196480938397 C 9.2,5.594134897360686 9.8,5.316129032258056 10,5.618768328445742 C 10.2,5.921407624633428 10,6.414076246334308 10,7.0263929618768275 C 10,7.638709677419347 9.799999999999999,7.930791788856285 10,8.68035190615834 C 10.2,9.429912023460394 10.8,10.270967741935484 11,10.7741935483871 C 11.2,11.277419354838715 11,11.266862170087968 11,11.196480938416414 C 11,11.12609970674486 10.8,10.717888563049854 11,10.422287390029329 C 11.2,10.126686217008803 11.8,9.651612903225812 12,9.718475073313787 C 12.2,9.785337243401761 12,10.728445747800583 12,10.756598240469199 C 12,10.784750733137814 11.8,10.01055718475071 12,9.859237536656867 C 12.2,9.707917888563024 12.8,9.46158357771259 13,9.999999999999982 C 13.2,10.538416422287375 13,11.977712609970657 13,12.551319648093827 C 13,13.124926686216996 12.8,12.934897360703802 13,12.868035190615828 C 13.2,12.801173020527854 13.8,12.245161290322573 14,12.217008797653957 C 14.2,12.188856304985341 14,12.49501466275662 14,12.727272727272746 C 14,12.959530791788872 13.8,13.307917888563036 14,13.378299120234583 C 14.2,13.44868035190613 14.8,13.424046920821095 15,13.079178885630483 C 15.2,12.734310850439872 15,11.94604105571848 15,11.653958944281529 C 15,11.361876832844578 14.8,11.660997067448656 15,11.618768328445725 C 15.2,11.576539589442794 15.8,11.305571847507338 16,11.442815249266873 C 16.2,11.580058651026409 15.8,11.921407624633432 16,12.3049853372434 C 16.2,12.688563049853368 16.8,12.614662756598241 17,13.360703812316714 C 17.2,14.106744868035188 17,15.52140762463342 17,16.03519061583577 C 17,16.548973607038118 16.8,16.446920821114382 17,15.92961876832846 C 17.2,15.412316715542538 17.8,13.885043988269798 18,13.448680351906157 C 18.2,13.012316715542516 18,13.832258064516123 18,13.747800586510255 C 18,13.663343108504387 17.8,13.012316715542504 18,13.026392961876812 C 18.2,13.040469208211121 18.8,13.554252199413467 19,13.818181818181795 C 19.2,14.082111436950123 19,14.592375366568893 19,14.346041055718453 C 19,14.099706744868014 18.8,13.012316715542497 19,12.586510263929597 C 19.2,12.160703812316697 19.8,12.266275659824043 20,12.217008797653957 C 20.2,12.167741935483871 20,12.537243401759524 20,12.34017595307917 C 20,12.143108504398816 19.8,11.22111436950145 20,11.231671554252184 C 20.2,11.242228739002918 20.8,12.185337243401753 21,12.392961876832842 C 21.2,12.600586510263932 21,12.181818181818187 21,12.26979472140763 C 21,12.357771260997072 20.8,12.857478005865108 21,12.832844574780058 C 21.2,12.808211143695008 21.8,12.38592375366567 22,12.146627565982383 C 22.2,11.907331378299096 22,11.565982404692072 22,11.636363636363626 C 22,11.70674486803518 21.8,12.396480938416403 22,12.498533724340154 C 22.2,12.600586510263906 22.8,12.322580645161269 23,12.146627565982383 C 23.2,11.970674486803498 23,11.720821114369476 23,11.618768328445725 C 23,11.516715542521974 22.8,11.995307917888551 23,11.636363636363626 C 23.2,11.2774193548387 23.8,10.443401759530778 24,9.824046920821097 C 24.2,9.204692082111416 23.8,8.497360703812285 24,8.539589442815224 C 24.2,8.581818181818162 24.8,9.662170087976547 25,10.035190615835788 C 25.2,10.408211143695029 25,10.38709677419354 25,10.404692082111428 C 25,10.422287390029316 24.8,9.897947214076252 25,10.12316715542523 C 25.2,10.348387096774209 25.8,11.073313782991214 26,11.530791788856316 C 26.2,11.988269794721418 26,12.185337243401772 26,12.410557184750743 C 26,12.635777126099715 25.8,12.533724340175956 26,12.65689149560117 C 26.2,12.780058651026385 26.8,13.015835777126078 27,13.026392961876812 C 27.2,13.036950146627547 27,12.727272727272732 27,12.709677419354843 C 27,12.692082111436955 26.8,12.938416422287368 27,12.938416422287368 C 27.2,12.938416422287368 27.8,12.934897360703815 28,12.709677419354843 C 28.2,12.484457478005872 28,11.840469208211134 28,11.812316715542512 C 28,11.784164222873889 27.8,12.34721407624633 28,12.568914956011728 C 28.2,12.790615835777126 28.8,12.910263929618766 29,12.9208211143695 C 29.2,12.931378299120235 29,12.642815249266864 29,12.6217008797654 C 29,12.600586510263938 28.8,12.783577712609992 29,12.815249266862189 C 29.2,12.846920821114386 29.8,12.920821114369499 30,12.780058651026383 C 30.2,12.639296187683268 30,12.217008797653943 30,12.111436950146611 C 30,12.00586510263928 29.8,12.297947214076231 30,12.252199413489727 C 30.2,12.206451612903223 30.8,11.998826979472152 31,11.882697947214087 C 31.2,11.766568914956022 31,12.016422287390014 31,11.671554252199398 C 31,11.326686217008781 30.8,10.042228739002935 31,10.158357771261 C 31.2,10.274486803519066 31.8,11.956598240469201 32,12.252199413489727 C 32.2,12.547800586510252 32,11.664516129032249 32,11.636363636363626 C 32,11.608211143695003 31.8,12.037536656891476 32,12.111436950146611 C 32.2,12.185337243401747 32.8,12.308504398826981 33,12.005865102639302 C 33.2,11.703225806451622 32.8,11.22463343108505 33,10.598240469208214 C 33.2,9.971847507331379 33.8,9.187096774193549 34,8.873900293255128 C 34.2,8.560703812316707 34,9.00410557184749 34,9.032258064516112 C 34,9.060410557184735 33.8,8.905571847507332 34,9.014662756598243 C 34.2,9.123753665689154 34.8,9.257478005865096 35,9.577712609970671 C 35.2,9.897947214076247 35,10.422287390029343 35,10.615835777126117 C 35,10.809384164222891 34.8,10.598240469208216 35,10.545454545454543 C 35.2,10.49266862170087 35.8,10.263929618768312 36,10.351906158357755 C 36.2,10.439882697947198 36,10.981818181818177 36,10.985337243401757 C 36,10.988856304985337 35.8,10.714369501466274 36,10.369501466275658 C 36.2,10.024633431085041 36.8,9.693841642228731 37,9.26099706744867 C 37.2,8.82815249266861 37,8.191202346041042 37,8.205278592375356 C 37,8.21935483870967 36.8,8.842228739002937 37,9.331378299120244 C 37.2,9.82052785923755 37.8,10.43284457478007 38,10.651026392961887 C 38.2,10.869208211143704 38,10.513782991202351 38,10.422287390029329 C 38,10.330791788856306 37.8,10.200586510263934 38,10.193548387096772 C 38.2,10.18651026392961 38.8,10.710850439882673 39,10.387096774193525 C 39.2,10.063343108504377 39,8.884457478005864 39,8.57478005865103 C 39,8.265102639296195 38.8,9.334897360703819 39,8.838709677419358 C 39.2,8.342521994134897 39.8,6.47038123167154 40,6.0938416422287265 C 40.2,5.717302052785913 40,6.3049853372434095 40,6.956011730205287 C 40,7.607038123167164 39.8,8.856304985337237 40,9.348973607038111 C 40.2,9.841642228738985 40.8,9.683284457477981 41,9.419354838709653 C 41.2,9.155425219941325 40.8,8.346041055718457 41,8.02932551319647 C 41.2,7.712609970674483 41.8,7.645747800586522 42,7.835777126099716 C 42.2,8.02580645161291 42,8.683870967741914 42,8.97947214076244 C 42,9.275073313782965 41.8,9.352492668621693 42,9.313782991202341 C 42.2,9.27507331378299 42.8,8.8774193548387 43,8.785923753665685 C 43.2,8.69442815249267 43,8.68739002932553 43,8.85630498533726 C 43,9.025219941348992 42.8,9.67624633431086 43,9.630498533724342 C 43.2,9.584750733137824 43.8,8.877419354838688 44,8.627565982404668 C 44.2,8.377712609970649 44,7.930791788856292 44,8.381231671554241 C 44,8.831671554252189 43.8,10.07741935483869 44,10.879765395894411 C 44.2,11.682111436950132 44.8,12.174780058651018 45,12.392961876832842 C 45.2,12.611143695014666 45,12.153665689149571 45,11.970674486803532 C 45,11.787683284457492 44.8,11.580058651026402 45,11.478005865102643 C 45.2,11.375953079178885 45.8,11.287976539589435 46,11.46041055718474 C 46.2,11.632844574780046 46,12.301466275659813 46,12.34017595307917 C 46,12.378885630498527 45.8,11.671554252199417 46,11.653958944281529 C 46.2,11.63636363636364 46.8,12.185337243401753 47,12.252199413489727 C 47.2,12.319061583577701 47,11.836950146627556 47,11.988269794721399 C 47,12.139589442815241 46.8,13.022873900293252 47,13.008797653958943 C 47.2,12.994721407624635 47.8,12.150146627565984 48,11.917888563049859 C 48.2,11.685630498533733 48,11.513196480938435 48,11.847507331378317 C 48,12.1818181818182 47.8,13.251612903225814 48,13.58944281524927 C 48.2,13.927272727272728 48.8,14.296774193548389 49,13.5366568914956 C 49.2,12.77653958944281 48.8,10.32727272727272 49,9.788856304985327 C 49.2,9.250439882697934 49.8,10.499706744868025 50,10.844574780058641 C 50.2,11.189442815249258 50,11.432258064516125 50,11.513196480938413 C 50,11.594134897360702 49.8,11.358357771260989 50,11.249266862170085 C 50.2,11.140175953079181 50.8,11.094428152492684 51,10.96774193548389 C 51.2,10.841055718475095 51,10.693255131964833 51,10.615835777126117 C 51,10.538416422287401 50.8,10.506744868035184 51,10.580645161290313 C 51.2,10.654545454545442 51.8,10.851612903225803 52,10.985337243401757 C 52.2,11.119061583577711 52,11.140175953079174 52,11.249266862170085 C 52,11.358357771260996 51.8,11.435777126099719 52,11.530791788856316 C 52.2,11.625806451612913 52.8,11.836950146627556 53,11.72434017595307 C 53.2,11.611730205278585 53,11.069794721407641 53,10.96774193548389 C 53,10.865689149560138 52.8,10.967741935483883 53,11.214076246334315 C 53.2,11.460410557184748 53.8,12.041055718475059 54,12.199413489736056 C 54.2,12.357771260997053 54,11.949560117302056 54,12.005865102639302 C 54,12.062170087976547 53.8,12.417595307917885 54,12.480938416422285 C 54.2,12.544281524926685 54.8,12.312023460410568 55,12.322580645161302 C 55.2,12.333137829912037 55,12.326099706744875 55,12.533724340175958 C 55,12.74134897360704 54.8,13.096774193548386 55,13.360703812316714 C 55.2,13.624633431085043 55.8,13.628152492668622 56,13.8533724340176 C 56.2,14.07859237536658 56,13.811143695014682 56,14.486803519061603 C 56,15.162463343108524 55.8,16.936070381231676 56,17.231671554252202 C 56.2,17.527272727272727 56.8,16.03167155425221 57,15.96480938416423 C 57.2,15.897947214076249 57,16.13724340175951 57,16.897360703812296 C 57,17.657478005865084 56.8,19.371260997067466 57,19.765395894428174 C 57.2,20.15953079178888 57.8,19.244574780058663 58,18.868035190615842 C 58.2,18.49149560117302 57.8,17.76304985337243 58,17.88269794721407 C 58.2,18.00234604105571 58.8,19.41700879765395 59,19.466275659824042 C 59.2,19.515542521994135 59,18.547800586510277 59,18.12903225806453 C 59,17.710263929618783 58.8,17.713782991202358 59,17.372434017595314 C 59.2,17.03108504398827 59.8,16.573607038123154 60,16.42228739002931 C 60.2,16.27096774193547 60,16.499706744868035 60,16.6158357771261 C 60,16.731964809384166 59.8,17.02404692082111 60,17.002932551319642 C 60.2,16.981818181818173 60.8,16.54193548387095 61,16.510263929618755 C 61.2,16.47859237536656 61,16.49618768328446 61,16.844574780058657 C 61,17.192961876832854 60.8,17.675073313783003 61,18.252199413489745 C 61.2,18.829325513196487 61.8,19.98357771260997 62,19.730205278592372 C 62.2,19.476832844574773 62,17.15777126099705 62,16.98533724340174 C 62,16.812903225806433 61.8,18.822287390029324 62,18.868035190615842 C 62.2,18.91378299120236 62.8,17.66451612903228 63,17.21407624633433 C 63.2,16.76363636363638 63,16.598240469208218 63,16.6158357771261 C 63,16.633431085043984 62.8,16.907917888563038 63,17.302052785923742 C 63.2,17.696187683284446 63.8,18.14310850439882 64,18.586510263929615 C 64.2,19.029912023460408 64,19.772434017595312 64,19.519061583577717 C 64,19.26568914956012 63.8,17.685630498533722 64,17.319648093841643 C 64.2,16.953665689149563 64.8,17.463929618768336 65,17.689149560117315 C 65.2,17.914369501466293 65,18.860997067448704 65,18.44574780058653 C 65,18.03049853372436 64.8,15.947214076246341 65,15.612903225806459 C 65.2,15.278592375366577 65.8,16.541935483870986 66,16.774193548387117 C 66.2,17.00645161290325 65.8,16.58064516129035 66,16.774193548387117 C 66.2,16.967741935483886 66.8,17.527272727272717 67,17.741935483870954 C 67.2,17.95659824046919 67,17.865102639296182 67,17.8475073313783 C 67,17.829912023460416 66.8,18.07976539589445 67,17.653958944281545 C 67.2,17.228152492668638 67.8,16.09149560117301 68,15.718475073313769 C 68.2,15.34545454545453 68,15.528445747800589 68,15.788856304985345 C 68,16.0492668621701 67.8,17.0592375366569 68,17.020527859237543 C 68.2,16.981818181818184 68.8,15.771260997067442 69,15.595307917888556 C 69.2,15.41935483870967 69,15.933137829912026 69,16.140762463343115 C 69,16.348387096774204 68.8,16.665102639296205 69,16.633431085044002 C 69.2,16.6017595307918 69.8,16.056304985337235 70,15.982404692082099 C 70.2,15.908504398826965 70,16.30263929618768 70,16.26392961876833 C 70,16.22521994134898 69.8,15.78181818181819 70,15.788856304985345 C 70.2,15.795894428152499 70.8,16.288563049853366 71,16.2991202346041 C 71.2,16.309677419354834 71,15.982404692082124 71,15.841642228739016 C 71,15.700879765395907 70.8,15.736070381231672 71,15.595307917888556 C 71.2,15.45454545454544 71.8,15.401759530791768 72,15.13782991202344 C 72.2,14.873900293255112 72,14.86334310850439 72,14.275659824046913 C 72,13.687976539589437 71.8,12.621700879765381 72,12.199413489736056 C 72.2,11.77712609970673 72.8,12.086803519061576 73,12.164222873900284 C 73.2,12.241642228738993 73,12.382404692082089 73,12.586510263929597 C 73,12.790615835777105 72.8,13.036950146627559 73,13.184750733137829 C 73.2,13.332551319648099 73.8,13.223460410557186 74,13.325513196480944 C 74.2,13.427565982404703 73.8,13.78299120234606 74,13.695014662756618 C 74.2,13.607038123167175 74.8,12.934897360703822 75,12.885630498533729 C 75.2,12.836363636363636 75,13.209384164222872 75,13.448680351906157 C 75,13.687976539589442 74.8,13.930791788856316 75,14.082111436950159 C 75.2,14.233431085044002 75.8,14.018768328445752 76,14.205278592375372 C 76.2,14.391788856304991 76,15.06041055718477 76,15.014662756598259 C 76,14.968914956011748 75.8,14.240469208211143 76,13.976539589442815 C 76.2,13.712609970674487 76.8,13.680938416422304 77,13.695014662756618 C 77.2,13.709090909090932 77,14.039882697947235 77,14.046920821114389 C 77,14.053958944281543 76.8,13.628152492668637 77,13.730205278592388 C 77.2,13.83225806451614 77.8,14.507917888563057 78,14.557184750733143 C 78.2,14.606451612903228 78,13.9483870967742 78,13.976539589442815 C 78,14.004692082111431 77.8,14.56774193548385 78,14.697947214076224 C 78.2,14.828152492668599 78.8,14.712023460410547 79,14.627565982404684 C 79.2,14.543108504398822 79,14.06099706744867 79,14.275659824046913 C 79,14.490322580645158 78.8,15.2434017595308 79,15.700879765395902 C 79.2,16.158357771261006 79.8,16.475073313782985 80,16.563049853372426 C 80.2,16.651026392961867 80,16.2850439882698 80,16.140762463343115 C 80,15.996480938416433 79.8,15.943695014662774 80,15.841642228739016 C 80.2,15.739589442815257 80.8,15.500293255131952 81,15.630498533724326 C 81.2,15.7607038123167 81,16.383577712609974 81,16.492668621700886 C 81,16.6017595307918 80.8,16.34486803519062 81,16.175953079178885 C 81.2,16.007038123167153 81.8,15.83812316715543 82,15.648093841642229 C 82.2,15.458064516129028 82,15.282111436950123 82,15.225806451612883 C 82,15.169501466275642 81.8,15.289149560117314 82,15.36656891495603 C 82.2,15.443988269794746 82.8,15.507331378299128 83,15.612903225806459 C 83.2,15.71847507331379 82.8,15.968328445747824 83,15.894428152492688 C 83.2,15.820527859237552 83.8,15.039296187683282 84,15.243401759530784 C 84.2,15.447507331378285 84,16.394134897360694 84,16.914956011730197 C 84,17.4357771260997 83.8,17.82639296187683 84,17.8475073313783 C 84.2,17.868621700879768 84.8,17.4217008797654 85,17.020527859237543 C 85.2,16.619354838709686 85,16.246334310850454 85,15.841642228739016 C 85,15.436950146627579 84.8,15.373607038123179 85,14.997067448680358 C 85.2,14.620527859237537 85.8,14.905571847507321 86,13.958944281524913 C 86.2,13.012316715542504 86,10.781231671554234 86,10.263929618768312 C 86,9.74662756598239 85.8,11.175366568914946 86,11.3724340175953 C 86.2,11.569501466275653 86.8,11.298533724340171 87,11.249266862170085 C 87.2,11.2 87,10.865689149560124 87,11.126099706744872 C 87,11.38651026392962 86.8,12.607624633431072 87,12.551319648093827 C 87.2,12.495014662756581 87.8,11.094428152492656 88,10.844574780058641 C 88.2,10.594721407624627 88,11.15777126099707 88,11.302052785923758 C 88,11.446334310850446 87.8,11.537829912023463 88,11.565982404692086 C 88.2,11.594134897360709 88.8,11.270381231671568 89,11.442815249266873 C 89.2,11.615249266862179 89,12.224046920821111 89,12.428152492668612 C 89,12.632258064516114 88.8,12.31202346041054 89,12.463343108504382 C 89.2,12.614662756598225 89.8,13.033431085043986 90,13.184750733137829 C 90.2,13.336070381231671 90,12.994721407624628 90,13.219941348973599 C 90,13.44516129032257 89.8,14.187683284457464 90,14.310850439882683 C 90.2,14.434017595307903 90.8,14.057478005865091 91,13.8357771260997 C 91.2,13.614076246334308 90.8,13.311436950146636 91,13.20234604105573 C 91.2,13.093255131964824 91.8,13.135483870967755 92,13.290322580645173 C 92.2,13.44516129032259 92,13.976539589442815 92,13.976539589442815 C 92,13.976539589442815 91.8,13.381818181818197 92,13.290322580645173 C 92.2,13.198826979472148 92.8,13.57184750733137 93,13.519061583577697 C 93.2,13.466275659824024 93,13.167155425219914 93,13.026392961876812 C 93,12.885630498533711 92.8,12.903225806451632 93,12.815249266862189 C 93.2,12.727272727272746 93.8,12.723753665689133 94,12.586510263929597 C 94.2,12.449266862170061 94,12.23812316715542 94,12.129032258064514 C 94,12.019941348973608 93.8,12.06217008797654 94,12.041055718475072 C 94.2,12.019941348973603 94.8,12.213489736070365 95,12.02346041055717 C 95.2,11.833431085043976 95,11.1225806451613 95,11.090909090909102 C 95,11.059237536656905 94.8,11.717302052785923 95,11.865102639296186 C 95.2,12.012903225806449 95.8,11.822873900293262 96,11.829912023460416 C 96.2,11.83695014662757 96,11.826392961876827 96,11.900293255131956 C 96,11.974193548387085 95.8,12.08328445747799 96,12.199413489736056 C 96.2,12.315542521994121 96.8,12.354252199413486 97,12.480938416422285 C 97.2,12.607624633431085 97,13.029912023460406 97,12.832844574780058 C 97,12.63577712609971 96.8,12.037536656891511 97,11.495601173020546 C 97.2,10.953665689149581 97.8,10.401173020527875 98,10.12316715542523 C 98.2,9.845161290322586 98,10.049266862170088 98,10.105571847507328 C 98,10.161876832844568 97.8,10.214662756598234 98,10.404692082111428 C 98.2,10.594721407624622 98.8,10.960703812316702 99,11.055718475073299 C 99.2,11.150733137829896 99,10.914956011730188 99,10.879765395894411" class="SparkLine__Path-sc-9wg5ja-1 kDnVnu"></path></svg>