<svg width="64" height="64" viewBox="0 0 64 64" fill="none" alt="London, UK illustration" class="Cards__iconStyle-sc-1np73mb-4 cwIGzX"><g clip-path="url(#london_svg__clip0)"><path d="M41.937 22.349H21.619L31.778 0l10.159 22.349z" fill="#56B4FC"></path><path d="M45.492 22.349H18.063V64h27.429V22.349z" fill="#D4EEFF"></path><path d="M49.556 55.873v-29.46H14v29.46h35.556z" fill="#56B4FC"></path><path d="M45.492 26.413H18.063v29.46h27.429v-29.46z" fill="#1652F0"></path><path d="M31.778 51.302c5.61 0 10.159-4.548 10.159-10.159 0-5.61-4.548-10.159-10.159-10.159-5.61 0-10.159 4.548-10.159 10.159 0 5.61 4.548 10.159 10.159 10.159z" fill="#fff"></path><path d="M34.107 44.909l-3.345-3.346V34.54h2.032v6.182l2.75 2.75-1.437 1.437z" fill="#1652F0"></path></g><defs><clipPath id="london_svg__clip0"><path fill="#fff" d="M0 0h64v64H0z"></path></clipPath></defs></svg>