<svg width="64" height="64" viewBox="0 0 64 64" fill="none" alt="Manila, Philippines illustration" class="Cards__iconStyle-sc-1np73mb-4 cwIGzX"><g clip-path="url(#manila_svg__clip0)"><path d="M51 52a7 7 0 100-14 7 7 0 000 14z" fill="#56B4FC"></path><path d="M64 45H27V33c0-2.21 1.79-4 4-4h31c1.1 0 2 .9 2 2v14z" fill="#BFE9FF"></path><path d="M0 35h64v10H2c-1.1 0-2-.9-2-2M62 13H19.92c-2.86 0-5.32 2.02-5.88 4.82L14 18h46c1.1 0 2-.9 2-2v-3z" fill="#56B4FC"></path><path d="M62 13H20c0-1.1.9-2 2-2h42c0 1.1-.9 2-2 2z" fill="#1652F0"></path><path d="M34 18h-2v11h2V18zM47 18h-2v11h2V18z" fill="#BFE9FF"></path><path d="M12 31h3l2-13h-3l-2 13z" fill="#56B4FC"></path><path d="M60 18h-2v11h2V18z" fill="#BFE9FF"></path><path d="M6 31c-2.21 0-4 1.79-4 4h13v-4H6z" fill="#56B4FC"></path><path d="M64 35H27v10h37V35z" fill="#1652F0"></path><path d="M12 52a7 7 0 100-14 7 7 0 000 14z" fill="#56B4FC"></path><path d="M21 45a9 9 0 00-18 0" fill="#1652F0"></path><path d="M12 48a3 3 0 100-6 3 3 0 000 6zM51 48a3 3 0 100-6 3 3 0 000 6z" fill="#fff"></path><path d="M15 31v4h4c-2.21 0-4-1.79-4-4z" fill="#56B4FC"></path></g><defs><clipPath id="manila_svg__clip0"><path fill="#fff" d="M0 0h64v64H0z"></path></clipPath></defs></svg>