<svg width="64" height="64" viewBox="0 0 64 64" fill="none" alt="New York, NY illustration" class="Cards__iconStyle-sc-1np73mb-4 cwIGzX"><path d="M33 0h-2v17h2V0zM44 20H20v44h24V20zM41 17H23v3h18v-3z" fill="#56B4FC"></path><path d="M26 31H14v33h12V31zM50 31H38v33h12V31z" fill="#D4EEFF"></path><path d="M44 31h-6v33h6V31zM26 31h-6v33h6V31z" fill="#1652F0"></path><path d="M24 23.5h-1.5V28H24v-4.5zM27.5 23.5H26V28h1.5v-4.5zM31 23.5h-1.5V28H31v-4.5zM34.5 23.5H33V28h1.5v-4.5zM38 23.5h-1.5V28H38v-4.5z" fill="#fff"></path><path d="M34.5 23.5H33V28h1.5v-4.5zM31 31h-1.5v4.5H31V31zM34.5 31H33v4.5h1.5V31zM31 39h-1.5v4.5H31V39zM34.5 39H33v4.5h1.5V39zM31 47h-1.5v4.5H31V47zM34.5 47H33v4.5h1.5V47zM31 55h-1.5v4.5H31V55zM34.5 55H33v4.5h1.5V55zM38 23.5h-1.5V28H38v-4.5zM41.5 23.5H40V28h1.5v-4.5z" fill="#fff"></path><path d="M41.5 23.5H40V28h1.5v-4.5z" fill="#fff"></path></svg>