<svg width="40" height="40" viewBox="0 0 40 40" fill="none" xmlns="http://www.w3.org/2000/svg">
<rect width="40" height="40" fill="white"/>
<path d="M19.9996 39.5816C30.8142 39.5816 39.5812 30.8147 39.5812 20C39.5812 9.18543 30.8142 0.418457 19.9996 0.418457C9.18495 0.418457 0.417969 9.18543 0.417969 20C0.417969 30.8147 9.18495 39.5816 19.9996 39.5816Z" fill="#5F45BA"/>
<path fill-rule="evenodd" clip-rule="evenodd" d="M13.054 11.8156C12.6879 12.4319 11.8915 12.6348 11.275 12.2688C10.6587 11.9027 10.4557 11.1063 10.8219 10.4899C11.1879 9.87353 11.9844 9.67059 12.6007 10.0367C13.2172 10.4027 13.42 11.1992 13.054 11.8156Z" fill="white"/>
<path fill-rule="evenodd" clip-rule="evenodd" d="M8.62432 11.2395C8.36571 11.6749 7.80313 11.8182 7.36781 11.5596C6.93237 11.301 6.78905 10.7386 7.04767 10.3031C7.30615 9.86767 7.86874 9.72435 8.30418 9.98297C8.73962 10.2416 8.88294 10.8042 8.62432 11.2395Z" fill="white"/>
<path fill-rule="evenodd" clip-rule="evenodd" d="M20.9546 30.022C25.7093 29.4636 29.5337 25.5763 29.8451 20.6287C30.1955 15.062 25.9668 10.2651 20.4 9.91465C19.7345 9.87274 19.0806 9.89809 18.4433 9.98153C17.105 10.0911 15.9753 10.6007 15.9753 10.6007C15.0617 11.0468 14.4702 11.7949 14.4702 12.7957C14.4702 14.0969 15.5251 15.1518 16.8263 15.1518C17.044 15.1518 17.7973 14.9136 17.9754 14.8515C18.64 14.6199 19.361 14.5138 20.1075 14.5608C22.0309 14.682 23.6565 15.7884 24.5273 17.3569C25.0149 18.2357 25.2667 19.2588 25.1989 20.3363C25.01 23.337 22.4243 25.6165 19.4235 25.4276C17.6505 25.3161 16.1298 24.3674 15.2208 22.9911C15.2208 22.9916 15.2208 22.9921 15.221 22.9927C15.2208 22.9921 15.2208 22.9918 15.2208 22.9911C14.1335 21.5682 14.3849 19.2932 14.3837 19.265C14.3391 18.0002 13.3025 16.9881 12.0269 16.9881C10.9369 16.9881 10.0219 17.7277 9.75004 18.7318C9.69667 18.9288 9.66991 19.5068 9.67756 19.5843C9.45321 25.0547 13.6395 29.7281 19.131 30.0737C19.7504 30.1127 20.3594 30.092 20.9546 30.022Z" fill="white"/>
<path fill-rule="evenodd" clip-rule="evenodd" d="M11.7025 15.4178C11.2278 16.217 10.1953 16.48 9.39612 16.0055C8.59696 15.5308 8.33389 14.4983 8.80844 13.6991C9.28312 12.8999 10.3157 12.6369 11.1148 13.1114C11.914 13.5861 12.1771 14.6186 11.7025 15.4178Z" fill="white"/>
</svg>
