<svg xmlns="http://www.w3.org/2000/svg" xmlns:xlink="http://www.w3.org/1999/xlink" version="1.1" id="Layer_1" x="0px" y="0px" viewBox="0 0 49.1 39.8" style="enable-background:new 0 0 49.1 39.8;" xml:space="preserve">
<style type="text/css">
	.st0{fill:none;stroke:#2374BB;stroke-width:2;stroke-linecap:round;stroke-linejoin:round;stroke-miterlimit:10;}
</style>
<g>
	<path class="st0" d="M17.7,12.1c0,27.3,0-17.5,0,11.8c0,3.8,2.1,7.3,5.5,9"/>
	<path class="st0" d="M39.8,18.3c0,1.1-0.9,2.1-2.1,2.1h-0.7v-5.5h0.7c1.1,0,2.1,0.9,2.1,2.1V18.3z"/>
	<path class="st0" d="M13.5,12.1h-1.4C9.8,12.1,8,14,8,16.3V19c0,2.3,1.9,4.2,4.2,4.2h1.4c12.4,0,17.4,2.8,23.5,5.5V6.6   C31,9.4,25.9,12.1,13.5,12.1z"/>
</g>
</svg>