<svg fill="none" height="52" viewBox="0 0 38 52" width="38" class="ArticlesCTA__IconSVG-sc-1bglyv8-2 fGAtjj"><clipPath id="breaking-news_svg__a"><path d="M0 .391h38V51.61H0z"></path></clipPath><g clip-path="url(#breaking-news_svg__a)"><path d="M38 32.402H0V51.61h38z" fill="#56b4fc"></path><path d="M38 32.402L19 43.606 0 32.402V.392h38z" fill="#bfe9ff"></path><g fill="#fff"><path d="M19 13.996c2.623 0 4.75-2.15 4.75-4.802 0-2.652-2.127-4.801-4.75-4.801s-4.75 2.15-4.75 4.801c0 2.652 2.127 4.802 4.75 4.802zM31.665 17.197H6.332v1.6h25.333zM31.665 21.998H6.332V23.6h25.333zM25.335 26.8H12.668v1.6h12.667z"></path></g><path d="M22.165 9.194l-2.422.753-.744 2.448-.744-2.448-2.423-.753 2.423-.752.744-2.449.744 2.449z" fill="#bfe9ff"></path><path d="M38 32.402L19 43.606 0 32.402" fill="#1652f0"></path></g></svg>