<svg xmlns="http://www.w3.org/2000/svg" xmlns:xlink="http://www.w3.org/1999/xlink" version="1.1" id="Layer_1" x="0px" y="0px" viewBox="0 0 49.1 39.8" style="enable-background:new 0 0 49.1 39.8;" xml:space="preserve">
<style type="text/css">
	.st0{fill:none;stroke:#2374BB;stroke-width:2;stroke-linejoin:round;stroke-miterlimit:10;}
	.st1{fill:#2374BB;}
	.st2{fill:none;stroke:#2374BB;stroke-width:2;stroke-linecap:round;stroke-linejoin:round;stroke-miterlimit:10;}
</style>
<g>
	<path class="st0" d="M39.2,19.1c0,6.1-6.1,11.1-13.6,11.1c-1.7,0-3.3-0.2-4.8-0.7L13,33.2l3.1-6.1c-2.5-2-4.1-4.8-4.1-7.9   C12,13,18.1,8,25.6,8S39.2,13,39.2,19.1z"/>
	<g>
		<path class="st1" d="M26.2,23.4c-0.7,0-1.2,0.5-1.2,1.2c0,0.7,0.5,1.2,1.2,1.2c0.7,0,1.2-0.5,1.2-1.2    C27.4,23.9,26.9,23.4,26.2,23.4L26.2,23.4z"/>
	</g>
	<path class="st2" d="M22.7,17c0-2,1.6-3.6,3.5-3.6c2,0,3.5,1.6,3.5,3.5c0,2-1.6,3.5-3.5,3.5v1.5"/>
</g>
</svg>