<svg width="64" height="64" viewBox="0 0 64 64" fill="none" alt="Redwood City, CA illustration" class="Cards__iconStyle-sc-1np73mb-4 cwIGzX"><path d="M34.5 58h-5l2-27h1l2 27z" fill="#1652F0"></path><path d="M45 35c0 7.18-5.82 13-13 13s-13-5.82-13-13S32 6 32 6s13 21.82 13 29z" fill="#BFE9FF"></path><path d="M30.25 47.87c.57.08 1.16.13 1.75.13.59 0 1.18-.05 1.75-.13L32.5 31h-1l-1.25 16.87z" fill="#fff"></path><path d="M11.06 11.06a1.88 1.88 0 100-3.76 1.88 1.88 0 000 3.76zM52.94 11.06a1.88 1.88 0 100-3.76 1.88 1.88 0 000 3.76z" fill="#BFE9FF"></path><path d="M58.49 30.42a58.347 58.347 0 00-52.98 0c-1.17-2.3-2.34-4.59-3.51-6.89a66.1 66.1 0 0160 0c-1.17 2.3-2.34 4.59-3.51 6.89z" fill="#56B4FC"></path><path d="M41.9 24.91c-1.21-2.74-2.63-5.62-4.02-8.29-3.92-.35-7.86-.35-11.78 0-1.39 2.67-2.81 5.55-4.02 8.29a58.364 58.364 0 0119.82 0z" fill="#1652F0"></path><path d="M36.402 36.41l-4.059 4.058.665.665 4.058-4.059-.664-.664z" fill="#fff"></path><path d="M49.8 58h6.27l-2.25-44.92h-1.76L49.8 58zM14.2 58H7.93l2.25-44.92h1.76L14.2 58z" fill="#1652F0"></path></svg>