<svg width="64" height="64" viewBox="0 0 64 64" fill="none" alt="Remote illustration" class="Cards__iconStyle-sc-1np73mb-4 cwIGzX"><path d="M31.62 39.5L14.75 50.75v4.69H48.5v-4.69L31.62 39.5z" fill="#BFE9FF"></path><path d="M37.24 28.25C37.17 18.18 35.06 9.02 31.62 2c-3.44 7.02-5.55 16.18-5.61 26.25H26v27.19h11.25V28.25h-.01z" fill="#56B4FC"></path><path d="M33.5 28.25h-3.75v.94h3.75v-.94zM33.5 32h-3.75v.94h3.75V32zM33.5 35.75h-3.75v.94h3.75v-.94z" fill="#fff"></path><path d="M31.62 39.5L26 43.25v12.19h11.25V43.25l-5.63-3.75z" fill="#1652F0"></path><path d="M31.62 22.63a1.88 1.88 0 100-3.76 1.88 1.88 0 000 3.76z" fill="#fff"></path><path d="M48.5 39.5s-3.75 5.21-3.75 18.75h7.5c0-13.54-3.75-18.75-3.75-18.75zM14.75 39.5S11 44.71 11 58.25h7.5c0-13.54-3.75-18.75-3.75-18.75zM28.81 55.44h5.63l2.81 5.62H26l2.81-5.62z" fill="#56B4FC"></path><path d="M52.25 58.25h-7.5V62h7.5v-3.75zM18.5 58.25H11V62h7.5v-3.75z" fill="#1652F0"></path><path d="M18.5 3.88l.99 4.63 4.63.99-4.63.99-.99 4.63-.99-4.63-4.63-.99 4.63-.99.99-4.63z" fill="#BFE9FF"></path></svg>