<svg width="64" height="64" viewBox="0 0 64 64" fill="none" alt="San Francisco, CA illustration" class="Cards__iconStyle-sc-1np73mb-4 cwIGzX"><path d="M33 42h-2v6h2v-6zM38.5 42h-2v6h2v-6zM44 38.5h-2V48h2v-9.5zM49.5 34.5h-2V48h2V34.5zM27.5 42h-2v6h2v-6zM22 38.5h-2V48h2v-9.5zM16.5 34.5h-2V48h2V34.5z" fill="#1652F0"></path><path d="M32 43.286c-12.958 0-23.5-10.542-23.5-23.5h3c0 11.304 9.196 20.5 20.5 20.5s20.5-9.196 20.5-20.5h3c0 12.958-10.542 23.5-23.5 23.5z" fill="#1652F0"></path><path d="M11.5 16h-4v43h4V16zM52.5 59h4V16h-4v43z" fill="#56B4FC"></path><path d="M0 47v4h64v-4H0z" fill="#56B4FC"></path><path d="M11.5 47h-4v4h4v-4zM56.5 47h-4v4h4v-4z" fill="#1652F0"></path><path d="M32 28c6.627 0 12-5.373 12-12S38.627 4 32 4 20 9.373 20 16s5.373 12 12 12z" fill="#D4EEFF"></path></svg>