<svg width="64" height="64" viewBox="0 0 64 64" fill="none" alt="Singapore illustration" class="Cards__iconStyle-sc-1np73mb-4 cwIGzX"><path d="M35.23 26.237c8.2-3.22 15.41-5.51 19.67-6.79a25.05 25.05 0 00-12.88-12.89c-1.28 4.27-3.57 11.48-6.79 19.68zM32 24.897a252.45 252.45 0 019.11-18.71A24.807 24.807 0 0032 4.467c-3.22 0-6.29.61-9.11 1.72A252.45 252.45 0 0132 24.897zM28.77 26.237c-3.22-8.2-5.51-15.41-6.79-19.67a25.05 25.05 0 00-12.89 12.88 255.35 255.35 0 0119.68 6.79zM55.28 38.577c1.11-2.82 1.72-5.89 1.72-9.11 0-3.22-.61-6.29-1.72-9.11-3.92 2.12-10.63 5.59-18.71 9.11 8.07 3.52 14.79 6.99 18.71 9.11zM35.23 32.697c3.22 8.2 5.51 15.41 6.79 19.67a25.106 25.106 0 0012.89-12.89c-4.27-1.27-11.48-3.56-19.68-6.78zM8.72 20.357A24.807 24.807 0 007 29.467c0 3.22.61 6.29 1.72 9.11 3.92-2.12 10.63-5.59 18.71-9.11-8.07-3.52-14.79-6.99-18.71-9.11zM28.77 32.697a256.91 256.91 0 01-19.67 6.79 25.106 25.106 0 0012.89 12.89c1.27-4.27 3.56-11.48 6.78-19.68z" fill="#56B4FC"></path><path d="M23 52.467l-4 8h26l-4-8H23z" fill="#BFE9FF"></path><path d="M32 32.467a3 3 0 100-6 3 3 0 000 6zM32 34.037c-3.52 8.07-6.99 14.79-9.11 18.71 2.82 1.1 5.89 1.72 9.11 1.72 3.22 0 6.29-.62 9.11-1.72-2.12-3.92-5.59-10.64-9.11-18.71z" fill="#1652F0"></path></svg>