<svg width="64" height="64" viewBox="0 0 64 64" fill="none" alt="Tokyo, Japan illustration" class="Cards__iconStyle-sc-1np73mb-4 cwIGzX"><path d="M51.5 36h-39v3h39v-3z" fill="#1652F0"></path><path d="M15.5 57.5h8V30h-3l-5 27.5zM48.5 57.5h-8V30h3l5 27.5z" fill="#56B4FC"></path><path d="M32 33c7.456 0 13.5-6.044 13.5-13.5S39.456 6 32 6s-13.5 6.044-13.5 13.5S24.544 33 32 33z" fill="#D4EEFF"></path><path d="M8 25.5l2.5 4.5h43l2.5-4.5H8z" fill="#56B4FC"></path><path d="M19.907 25.5a13.566 13.566 0 003.611 4.5h16.964a13.54 13.54 0 003.611-4.5H19.907z" fill="#1652F0"></path></svg>