<svg xmlns="http://www.w3.org/2000/svg" fill="none" height="32" viewBox="0 0 32 32" width="32"><path d="m16 32c8.8366 0 16-7.1634 16-16 0-8.83656-7.1634-16-16-16-8.83656 0-16 7.16344-16 16 0 8.8366 7.16344 16 16 16z" fill="#ecb244"/><path d="m15.096 19.846h6.297v3.35h-3.875c.064.958.097 1.847.161 2.804h-3.261v-2.77h-3.876c0-1.093-.129-2.187.065-3.213.097-.547.678-1.026 1.033-1.504 1.2282-1.5349 2.4663-3.0619 3.714-4.581.485-.582.969-1.129 1.518-1.778h-6.04v-3.35h3.586v-2.804h3.132v2.735h3.908c0 1.128.129 2.222-.065 3.248-.097.547-.678 1.026-1.065 1.504-1.2282 1.5349-2.4663 3.0619-3.714 4.581-.4872.6085-.9934 1.2014-1.518 1.778z" fill="#fff"/></svg>